<?xml version="1.0" encoding="UTF-8"?>
<svg id="Layer_2" data-name="Layer 2" xmlns="http://www.w3.org/2000/svg" viewBox="0 0 215.19 279.43">
  <defs>
    <style>
      .cls-1 {
        fill: #f3c200;
      }

      .cls-2 {
        fill: #e8c086;
      }

      .cls-3 {
        fill: #fcfcfc;
      }

      .cls-4 {
        fill: #f3c49f;
      }

      .cls-5 {
        fill: #6998b8;
      }

      .cls-6 {
        fill: #a9825e;
      }

      .cls-7 {
        fill: #0f0e0e;
      }

      .cls-8 {
        fill: #886a4e;
      }

      .cls-9 {
        fill: #7b5e49;
      }
    </style>
  </defs>
  <g id="Layer_1-2" data-name="Layer 1">
    <g>
      <path class="cls-7" d="m197.2,265.62c2.17,8.92.94,14.14-9.24,13.79-11.05-.38-21.95-2.23-33-2.35-3.26-.03-5.05-1.31-5.13-5.35-.12-6.31.87-12.53,1.45-18.71.5-5.25.68-10.72,3.43-15.94,2.95-5.6,1.92-6.29-4.42-6.89-2.11-.2-3.98-1.2-5.95-1.9-9.79-3.49-19.59-7.15-30.31-5.96-6.33-.46-12.66-.48-19,0-6.7,1.13-13.65.93-20,3.82-2.66.59-5.32.96-7.84,2.31-3.32,1.79-6.93,2.93-11.93-.13,3.31,10.22,4.93,19.48,5.96,28.84-.03,4.65-.07,9.31-.1,13.96-.04,4.75-3.04,7.22-7.59,5.76-2.17-.69-4.24-1.2-6.16-.19-2.77,1.45-5.63,1.53-8.6,1.49-4.32-.06-8.64-.01-12.97-.01q-12.32,0-12.91-12.02c.73-1.66,1.45-3.32,2.18-4.99,2.99-4.06,8.76-3.36,12-6.99.6-.07,1-.31.81-1.01,0-1.34,0-2.67,0-4.01-1.87-4-.08-8,0-12-.94-9.15-4.36-17.91-3.96-27.31.11-2.68,1.17-5.05,1.27-7.64,2.42-3.32,5.31-5.96,8.85-8.26,2.75-1.78,3.97-5.67,7.67-6.8,4.43-1.36,8.79-2.94,13.19-4.39,3.13-1.03,5.28-2.94,3.99-6.39-2.31-6.14-.99-12.9-3.51-19.62-5.03,5.34-9.36,10.66-15.4,14.16-7.95,4.6-21,2.81-26.33-6.62-2.77-4.9-3.33-10.34-2.12-15.77.32-1.45.16-2.93.66-4.31,1.96-4.52,3.46-9.23,6.42-13.3,1.22-1.68,2.73-3.35,2.64-5.69,2.55-3.42,4.98-6.99,9.83-7.31,2.33,0,4.67.02,7,.02,1.1,0,2.06.29,3.24-.52,4.46-3.05,4.37-7.77,4.63-12.22.36-6.36-.64-12.89,3.84-18.42,1-1.24.41-1.98-1.37-2.65-11.3-4.28-10.22-13.6-3.46-20.48,5.43-5.53,12.16-8.81,18.76-12.4,1.6-.87,3.13-1.57,3.36-3.84,1.83-17.99,16.54-35.87,35.44-39.48,2.98-.57,5.95-1.1,7.74-5.11,1.98-4.44,9.56-3.41,11.15,1.35.93,2.77,2.73,3.29,4.74,3.95,18.23,5.99,28.04,19.19,31.89,37.37.98,4.64,2.28,8.27,7.43,10.16,6.06,2.22,10.78,6.85,15.04,11.6,5.95,6.63,4.76,12.57-2.76,17.23-2.77,1.72-5.6,3.06-8.78,3.8-1.86.44-2.71,1.55-1.92,3.82,1.72,4.9,3.24,9.88,1.1,15.14-.72,1.79.17,3.3,1.74,4.17,5.19,2.85,9.74,7.29,16.57,5.82,4.47-.96,8.24,1.5,10,5.11,4.1,8.39,10.03,15.78,12.08,25.36,1.61,7.53-1.8,17.37-8,22.31-4.25,3.39-17.35,2.82-22.08-.74-6.22-4.69-11.29-10.53-16.89-16.25-1.19,5.49-2.93,10.33-2.65,15.63.1,1.95-.9,4.17-1.97,5.93-3.35,5.51-2.93,6.6,2.87,8.68,5.88,2.1,12.52,3.22,16.4,8.73,1.41,2,2.95,3.39,4.91,4.5,3.45,1.96,5.41,5.06,6.86,8.58,2.92,7.05-.64,13.78-1.34,20.6-.59,5.76-3.5,11-1.95,17.38.72,2.95-.65,7.01-.7,10.61-.02,1.11-.55,2.44,1.38,2.48,5.62.11,8.51,4.17,11.54,8.02.09.49.17.98.29,1.46Zm-77.58-73.35c-3.33.35-2.6,2.98-2.48,4.99.15,2.53,1.97,1.55,3.35,1.22,10.64-2.54,20.6-6.47,28.78-14.04.43-.28,1.54-.11,1.08-.97-.3-.56-1.16-.16-1.68.29-9.45,3.64-18.85,7.43-29.06,8.5Zm-58.19-10.52c-.05.08.27.4.42.61,4.28,5.85,10.58,8.88,16.91,11.74,3.92,1.77,8.04,3.1,12.14,4.45,1.51.5,3.67,1.91,4.16-1.3.36-2.36.08-4.24-2.9-4.66-7.29-1.04-14.07-3.74-20.86-6.46-3.08-1.24-5.51-3.78-8.93-4.28-.29-.31-.61-.62-.94-.1Zm114.26-114.55c-6.95-7.37-15.3-11.91-24.52-14.91-9.73-3.16-19.81-4.13-29.95-5.4-14.06-1.77-27.69-.35-41.23,2.45-12.38,2.56-24.31,6.72-33.14,16.68-.84.48-.95,1.12-.42,1.9.38-.43.76-.86,1.14-1.3,42.7-15.21,85.36-15.01,128.11.57Zm-25.85,36.87c1.5-3.09,2.38-6.47,3.58-9.71.91-2.43,1.28-4.52-2.18-5.18-2.13-.41-1.51-2.31-1.53-3.66-.05-3.16.21-6.33.1-9.48-.14-3.95-2.2-6.09-6.32-5.88-.5.03-1.06.17-1.49,0-6.72-2.63-13-2.22-20.23-.38-7.51,1.92-14.62-3.28-20.52-8.15-3.28-2.71-6.58-2.4-10.18-2.37-5.6.04-7.67,3.96-10.98,7.73-4.73,5.38-5.42,10.81-5.05,17.08.12,2-1.09,3.23-2.45,4-2.85,1.6-2.98,3.92-2.42,6.64,4.35,20.92,20.88,34.7,47.68,34.57,12.1-.59,24.36-9.51,31.99-25.2Zm-73.83,42.49c-2.45,10.22-5.31,20.3-13.14,28.01-1.77,1.75-1.01,3.06.61,3.99,10.83,6.16,21.71,12,34.9,10.69,4.94-.49,9.98-.31,14.96-.12,12.63.47,24.15-3.28,35.19-8.94,3.43-1.76,4.35-3.59,1.8-7.39-4.92-7.31-6.49-15.89-7.36-24.56-.56-5.53-1.74-11.02-.83-16.63-2.73-.35-2.77,1.6-3.42,2.72-5.97,10.31-14.11,18.38-24.4,24.39-4.01,2.34-7.15,2.04-10.69-1.13-8.92-7.99-18.34-15.48-24.29-28.04-1.26,6.49-2.09,11.8-3.34,17.01Zm72.68,42.29c-8.34,7.57-19.03,10.59-29.7,13.3-21.5,5.47-39.84-2.08-56.5-14.69-4.88-3.69-8.17-2.46-12.76.17,6.19,5.45,10.85,11.65,14.19,18.79,2.2,4.71,3.7,9.67,4.08,14.84.24,3.25,1.44,3.81,4.26,2.76,15.86-5.9,32.18-5.57,48.74-4.11,6.89.61,13.43,1.98,19.93,4.05,1.11.35,2.84,1.01,3.01-1.21,1.1-14.44,8.59-25.41,19.24-34.75-5.35-3.4-9.65-3.56-14.5.84ZM82.25,36.91c9.2-2.15,18.46-3.63,27.82-3.28,13.6.51,27.21,1.54,40.23,6.13,1.12.39,2.42.96,3.29.12,1.22-1.18-.49-1.99-.9-2.92-6.08-14.14-16.09-24.21-31.5-27.01-20.48-3.72-41.92,6.66-48.96,29.19,3.51-.34,6.81-1.48,10.02-2.23ZM14.49,158.9c1.8,9.33,12.58,14.32,21.31,10.64,4.56-1.92,8.29-4.91,11.57-8.5,3.48-3.81,6.5-8.17,10.44-11.41,6.24-5.12,6.96-11.93,7.19-19.03.21-6.49-.07-12.99.13-19.48.09-2.98-.85-3.35-3.44-2.5-5.45,1.79-10.37,4.49-14.86,8-3.19,2.5-2.98,5.42.51,7.58,7.29,4.53,7.79,12.42.72,17.32-1.97,1.37-1.39,2.01-.73,3.32,1.45,2.84.51,5.84.51,8.77,0,.85-.81,1.51-1.69,1.51-1.16,0-.98-1.05-1.13-1.83-.45-2.35,1.39-6.05-.91-6.8-2.72-.88-2.94,3.31-4.56,5.04-4.85,5.19-11.93,5.12-16.49-.39-2.86-3.46-3.78-6.54-4.22-14.9-5.23,7.45-5.81,15.09-4.35,22.64Zm177.66-5.09c-8.25,4.75-11.85-2.99-16.92-8.09-.16,3.47-.27,5.88-.43,9.18-2.16-2.47-3-4.17-2.26-6.89.73-2.67,1.66-5.41-2.43-7.39-2.91-1.41-3.29-5.49-3.09-8.97.18-3.2-.79-6.34,4.06-7.73,4.11-1.17,3.89-6.18.07-8.45-5.13-3.04-10.32-5.97-16.09-6.99,0,10.12.02,20.28-.01,30.44,0,2.06.39,3.73,1.99,5.34,5.04,5.08,9.85,10.39,14.75,15.61,2.63,2.81,5.52,5.3,8.84,7.28,6.09,3.62,12.2,4.28,18.26.04,5.3-3.71,8.38-12.11,6.89-18.62-1.01-4.46-2.43-8.76-5.37-12.48.05,7.38-1.68,13.93-8.26,17.72Zm-64.62-21.51c-1.38,1.55-3.51,2.47-5.38,3.54-.9.51-2.1,1.77-2.99.29-1.03-1.71.73-2.21,1.77-2.9,1.22-.81,2.81-1.1,4.07-3.49-6,3.02-11.7,2.31-17.36,2.37-3.06.03-5.76-.96-8.59-1.79-1.08-.32-2.82-1.16-3.51.54-.58,1.43,1.03,1.91,1.93,2.45,1.84,1.1,3.71,2.29,5.73,2.89,1.48.44,2.83.97,2.29,2.44-.6,1.64-2.32.89-3.46.37-5.5-2.52-10.56-5.68-13.96-10.88-2.28-3.49-5.25-6.2-9.32-9.19,2.21,7.93,5.26,14.39,9.87,20.13,5.45,6.79,12.27,12.15,18.7,17.92,1.24,1.11,2.37,1.37,3.99.45,13.89-7.93,24.23-18.74,29-35.27-5.38,3.06-9.33,6.24-12.79,10.14Zm56.38,92.52c.2-2.9,1.12-5.75,1.73-8.63,2.14-10-2.93-17.71-12.76-20.8-1.78-.56-3.22.55-4.51,1.58-6.59,5.22-10.16,12.44-13.09,20.06-.21.54-.11,1.74.02,1.77,5.08,1.06,3.62,5.08,3.72,8.29.06,1.92,1.22,1.98,2.6,2.17,5.01.71,10.01,1.49,15.01,2.24,5.46.95,6.95-1.96,7.27-6.69Zm-155.07,2.19c.86,2.1,2.02,2.99,3.63,3.06,6.25.28,12.51.23,18.69-.97,2-.39,1.71-2.04,1.82-3.54.18-2.59-.86-5.76,3.35-6.54,1.26-.24.7-1.84.27-2.98-2.52-6.68-5.62-12.98-10.61-18.25-2.79-2.95-5.79-3.33-9.4-1.79-7.77,3.31-11.05,9-9.5,16.3-.01,5.69-.08,10.22,1.76,14.73Zm12.39,26.89c-3.27,2.73-7.14.34-10.78,1.86,1.92,1.25,3.71,2.25,5.29,3.5,1.01.8,2.22,2.08.83,3.33-1.31,1.17-1.92-.6-2.74-1.23-6.64-5.17-16.27-2.44-18.01,5.01-.52,2.21-.1,3.14,2.23,3.1,9.32-.15,18.65-.28,27.97-.35,1.85-.02,2.65-.96,3.08-2.6,1.04-3.98,2.88-7.47,6.57-9.63,2.58-1.51,1.4-3.86,1.32-5.84-.4-10.31-.44-10.22-10.81-9.77-2.82.12-4.11.46-3.21,3.8.96,3.54-1.06,5.2-4.63,5.13-2.62-.05-5.24,0-9.06,0,3.91,4.7,8.29,1.64,11.95,3.71Zm127.84.55c4.15-2.55,8.24-.19,11.81-2.17-1.85-1.68-3.55-1.01-5.07-1.04-4.11-.08-7.65-.57-6.79-6.13.32-2.06-.54-3.17-2.75-2.95-.16.02-.33-.03-.5-.01-3.43.33-8.42-1.53-9.94.83-1.98,3.07-1.3,7.85-1.77,11.9-.15,1.33.63,1.86,1.62,2.66,2.32,1.88,4.72,4.18,5.03,7.2.42,4.16,2.9,4.13,6.07,4.63,8.09,1.29,16.21.61,24.31.92,4.36.17,4.93-.93,3.05-4.92-3.05-6.45-10.98-8.04-17.34-3.48-.97.7-1.92,2.59-3.18.92-1.02-1.35.58-2.4,1.59-3.13,1.57-1.13,3.3-2.03,5.17-3.16-3.59-.66-6.96-1.28-11.31-2.07ZM77.11,40.74c-1.59.47-3.11,1.17-4.7,1.66-2.23.69-2.78,2.32-2.25,4.3.75,2.77,2.61,1.07,4,.73,24.58-5.94,49.09-5.86,73.54.72,1.44.39,2.86.89,4.31,1.24,1.27.3,2.91,1.98,3.74-.18.72-1.87.7-4.06-1.75-5.05-2.46-.99-4.92-2.05-7.47-2.75-11.91-3.27-24.08-4.78-36.99-5.18-10.55.63-21.67,1.3-32.44,4.51Zm101.69,87.57c-2.33.53-3.23,2.04-2.75,4.42.56,2.8,2.66,1.04,4.02,1.33.51.11,1.15-.66,1.77-.75,1.4-.2,3.47-.91,3.88.83.46,1.96-1.55,1.98-3.07,2.14-1.28.14-2.53.57-3.78.92-3.24.9-1.84,3.64-1.69,5.39.2,2.4,2.2,1.78,3.88,1.23,1.08-.35,2.23-.53,3.36-.61.95-.07,2.26-.17,2.28,1.21.02,1.03-.8,1.68-1.98,1.8-1.37.13-3.55-.6-3.64,1.48-.08,1.96,1.85,3.01,3.55,3.78,3.84,1.75,6.86.31,9.18-2.75,6.85-9.04,4.88-19.47-1.48-26.97-1.86-2.19-13.53-2.31-15.69-.46-1.26,1.08-1.96,2.54-1.44,3.99.71,1.98,2.16.47,3.26.21,2.76-.65,5.47-.4,8.18,0,.03.41.07.82.1,1.23-2.65.52-5.32.99-7.96,1.59Zm-138.65,6.38c1.35.48,3.04,1.39,3.77-.42.74-1.83-.02-3.69-2.01-4.51-1.64-.67-3.39-1.37-5.13-1.45-1.77-.08-3-.81-5.23-2,3.9,0,6.83-.05,9.75.03.92.03,2.06,1.72,2.57-.39.26-1.1.28-2.07-.78-3.11-3.56-3.51-12.71-3.7-16.47-.14-6.26,5.93-6.16,21.71-.03,27.59,2.93,2.81,5.87,2.22,9.12,1.1,1.5-.52,2.13-1.74,2.27-2.97.2-1.75-1.43-2.02-2.71-2.22-1.32-.21-3.21-.33-2.87-1.85.41-1.83,2.4-1.18,3.83-.9.64.12,1.23.57,1.86.64,1.98.21,3.99.47,4.76-2.19.75-2.6-.79-3.77-2.78-4.43-2.27-.76-4.66-1.19-6.99-1.76,2.4-1.65,4.72-1.86,7.08-1.02Zm32.12-25.61c-.71-.95-.83-2.83-2.75-2.14-1.55.56-1.56,1.99-1.61,3.34-.3,8.82-.71,17.64-.88,26.46-.16,8.58-2.52,16.6-5.93,24.35-1.56,3.54-2.56,8.81,0,10,2.86,1.33,4.5-3.85,5.86-6.67,6.18-12.82,8.41-26.55,9.06-43.06.31-2.9-.5-7.9-3.77-12.28Zm72.37,24.63c.88,8.92,1.05,17.89,3.41,26.61.96,3.55,2.21,6.98,4.14,10.12.4.65,1.1,1.48,1.74,1.56,1.23.15,1.66-1.34,1.75-2.04.32-2.45.9-5.15.23-7.41-4.47-15.01-3.84-30.41-3.91-45.77-.01-2.34-.04-4.67-1.15-6.94-7.83,6.7-7.09,14.99-6.21,23.88Zm-25.85-66.76c3.33.84,6.68.49,8.88-2.75,1.6-2.36,3.27-2.37,5.37-.62,2.06,1.71,4.46,2.89,7.08,3.52.64.15,1.36,0,1.97.2,2.47.8,3.06-5.07,4.68-2.28,2.43,4.19,7.69,7.24,6.37,13.39-.51,2.37-.08,4.93.69,7.57,1.34-4.36,3.19-8.5,3.2-13.2.01-8.15.09-8.27-7.78-10.09-15.2-3.52-30.62-4.76-47.47-4.34,5.7,4.91,11.22,7.14,17.02,8.6Zm-54.86,4.01c2.31-1.15,1.23-3.91.71-5.79-.49-1.76-2.2-.82-3.39-.44-5.68,1.81-11.31,3.75-16.38,7.01-3.19,2.05-3.34,4.18-.48,6.67,3.47,3.01,7.65,4.39,12.37,5.64.3-5.88,1.81-10.42,7.17-13.09Zm96.83,1.88c3.83,2.52,5.51,6.08,5.47,10.58-.02,1.93,1.18,2.12,2.7,1.74.48-.12.97-.24,1.43-.43,4-1.61,9.53-2.76,10.07-7.17.52-4.33-5.18-5.28-8.49-7.18-2.57-1.48-5.51-2.3-8.25-3.49-2.87-1.25-4.21-.61-3.77,1.43.24,2.39-.32,3.76.84,4.52Zm3.93,118.12c-10.99,8.2-16.6,19.49-18.66,32.8-.33,2.15.87,3.04,2.74,3.33,2.94.45,1.97-1.78,2.21-3.23,2.23-13.55,8.32-24.68,20.2-32.2-1.8-2.93-4.21-2.39-6.49-.69Zm-103.77,33.59c.16,1.27-.16,2.92,1.99,2.52,1.63-.3,3.54-.6,3.11-2.94-.51-2.74-1.22-5.44-1.93-8.13-2.51-9.5-6.95-17.89-14.29-24.6-2.4-2.19-4.88-3.55-8.25-.84,11.76,8.49,17.62,20.08,19.38,33.99Zm100.79,7.64c-1.81-.07-4.27-.67-3.78,2.76.31,2.14-.52,4.64,3.38,4.29,5.05-.45,10.04,1.02,15.14,1.13,4.03.09,5.09-2.32,5.3-4.81.27-3.26-2.86-2.21-4.8-2.37-1.32-.11-2.65-.02-4.58-.02-3.25.75-6.9-.84-10.67-.98Zm-112.52,6.99c3.6.39,5.24-.88,4.89-4.69-.22-2.38.33-3.61-3.44-2.78-5.48,1.21-11.26,1.95-17.04,1.57-1.13-.07-3.62-1.06-3.31,1.29.23,1.73-.14,4.89,3.56,4.55,2.79-.25,5.62-.05,8.43-.05,0-.09,0-.17,0-.26,2.3.11,4.61.11,6.89.36Zm54.17-47.28c-4.93-.09-7.82,3.62-5.03,7.59,2.75,3.92,7.9,1.15,11.95,1.62,1.83.21,4.06.29,4.74-2.31,1.32-5.09-.05-6.89-5.22-6.88-1.16,0-2.31,0-3.47,0v-.02c-.99,0-1.98.01-2.97,0Zm-48.21-85.6c-.04,1.43,1.3,1.12,2.27.85,3.19-.91,6.37-1.83,9.55-2.74,1.07-.3,2.52-.22,2.23-1.97-.21-1.27-.08-2.8-1.69-3.32-4.99-1.61-8.3-5.02-10.52-10.71-3.02,6.42-1.68,12.25-1.84,17.9Zm13.52-23.12c.33.98.62,1.96,1.9,1.9,1.41-.06,1.4-1.17,1.44-2.16.05-1.33.2-2.69.01-3.99-.68-4.82.44-8.78,4.6-11.79,1.57-1.14,3.25-3.25,2.19-5.13-1.05-1.87-3.29-.37-4.98-.04q-5.76,1.12-5.8,11.3c.1,3.31-.44,6.67.64,9.92Zm-48.27,189.1c-1.45-.03-4.05-1-4.16,1.23-.14,2.68,2.61,1.88,4.25,1.88,6.98,0,13.99.27,20.92-.34,4.62-.41,9.09-2.05,13.89-1.17,1.55.28,3.2-.71,3.56-3.2-13.08.83-25.74,1.87-38.46,1.61Zm171.84,3.94c1.23-.02,2.47-.46,2.38-1.92-.09-1.39-1.44-1.08-2.35-1.11-7.6-.2-15.19-.1-22.81-.8-4.92-.45-9.83-1.2-14.77-1.53-.94-.06-2.07-.75-2.46.66-.42,1.47.67,2.07,1.84,2.46.47.15,1.01.31,1.47.22,9.26-1.72,17.98,3.81,27.24,2.04,3.16,0,6.31.04,9.47-.02Zm-36.49-176.26c-2.08.74-2.75,2.46-2.67,4.28.09,1.96,1.86,1.98,3.39,1.95,3.03-.04,6.84,3.85,8.58,1.08,2.47-3.93,1.35-9.05-.64-14.34-2.62,3.67-5.31,5.82-8.67,7.02Zm-95.36-12.27c.65,3.59,2.05,7.4,7.49,7.5-3.24-6.74-.41-14.18-3.68-21.25-5.27,3.84-4.67,8.97-3.81,13.75Zm99.24-11.57c-1.2,6.59-2.38,13.03-3.66,20.05,8.79-3.48,10.67-14.18,3.66-20.05Zm-111.57,35.44c2.46-.65,4.26-1.3,4.1-4.15-.38-6.67-.25-13.31,1.32-19.9-7.37,6.73-4.97,15.53-5.42,24.05Zm133.87,135c.2-2.02.07-3.65-2.72-3.36-1.47.15-3.04.17-4.45-.19-1.81-.46-3.58-1.65-3.84,1.56-.21,2.59,1.02,3.66,3.5,3.59.99-.03,1.99,0,3.04,0,1.4-.67,4.08,2.14,4.46-1.59Zm-152.57-2.18c0,4.66,3.86,2.23,5.99,2.54,1.79.26,4.66,1.2,4.51-2.54-.18-4.51-3.85-.61-4.93-2.78-1.95,1.68-5.58-1.34-5.58,2.78Zm27.46,15.26c-3,.36-4.1,3.58-4.65,6.32-.55,2.73,1.85,2.09,3.31,2.2,3.91.29,2.05-2.76,2.57-4.5-.57-1.37.8-4.26-1.22-4.02Zm98.04,8.33c.83.41,3.07,1.04,3.2-.85.22-3.15-1.57-5.39-5.06-7.49.59,3.47-1.78,6.56,1.86,8.34ZM49.56,128.24c-.34-.45-1.07-.82-1.62-.83-.89-.01-.82.89-.82,1.49.01,3.05.03,6.09-1.74,9.7,4.19-2.4,6-7.97,4.18-10.36Zm123.48,1.25c-.06-1.07.33-2.46-1.61-2.3-1.43.12-1.36,1.12-1.39,2.1-.06,1.65-.22,3.3-.16,4.94.04,1.29.1,2.92,1.93,2.87,1.83-.05,1.04-1.68,1.2-2.67.12-.81.03-1.65.03-2.47h.02c0-.83.04-1.65,0-2.48Z"/>
      <path class="cls-7" d="m203.3,204.02c-1.51.27-1.37,1.33-1.08,2.29,2.98,9.71,1.88,19.32-.7,28.88-.22.81-.88,1.54.26,1.91.96.31,1.59-.08,2.3-1.13,1.41-2.09.7-4.42,1.36-6.6,2.16-7.12,1.96-14.46.27-21.64-.26-1.12-.08-3.56-2.42-3.7Z"/>
      <path class="cls-7" d="m211.99,218.66c-.03,2.43.23,4.86-.95,7.19-.33.65-.5,2.13.9,2.34,1.16.18,1.88-.8,1.99-1.76.39-3.35,1.71-6.61,1.09-10.06-.22-1.23.92-3.31-1.7-3.18-2.24.11-1.1,1.92-1.31,3-.15.79-.03,1.64-.02,2.46Z"/>
      <path class="cls-4" d="m70.17,94.69c-.56-2.72-.43-5.03,2.42-6.64,1.36-.77,2.57-2,2.45-4-.37-6.27.32-11.69,5.05-17.08,3.31-3.77,5.38-7.69,10.98-7.73,3.61-.02,6.9-.34,10.18,2.37,5.9,4.88,13.01,10.07,20.52,8.15,7.22-1.84,13.51-2.25,20.23.38.43.17.99.02,1.49,0,4.13-.21,6.18,1.93,6.32,5.88.11,3.16-.15,6.32-.1,9.48.02,1.36-.6,3.26,1.53,3.66,3.46.66,3.09,2.74,2.18,5.18-1.2,3.23-2.08,6.62-3.58,9.71-7.63,15.69-19.89,24.61-31.99,25.2-26.8.12-43.34-13.65-47.68-34.57Zm21.82-7.13c.27,2.01.98,3.53,3.12,3.79,2.27.27,3.06-1.43,3.79-3.17,1.05-2.5-1.05-4.59-.86-6.97,1.08-.86,2.17.33,3.27,0,.59-.18,1.36,0,1.52-.9.14-.79-.35-1.21-.94-1.53-3.33-1.8-6.65-3.63-10.02-5.35-.86-.44-2.14-.62-2.66.35-.53.99.36,1.71,1.21,2.37,2.45,1.9,6.14,1.94,7.7,5.14-4.14.04-6.77,1.47-6.12,6.27Zm35.26-1.71c-.86,1.76-1.3,5.21,2.12,6.19,1.53.44,3.86.63,4.27-1.31.58-2.75,1.61-5.94-1.03-8.29-.65-.58-1.77-.77-2.36-1.67,1.96-1.75,4.22-2.99,6.6-4.1.99-.46,1.29-1.51,1.02-2.56-.28-1.06-1.27-1.17-1.98-.78-4.37,2.4-8.68,4.9-13.18,7.47,1.45,2.33,7.23-.44,4.52,5.05Zm-27.42,22.91c-.91.69-2.02,1.72-1.19,2.88.98,1.37,1.93.15,2.88-.5,5.96-4.09,13.56-4.14,19.68-.07.98.65,1.84,1.88,2.79.52.7-1.01.04-2.29-1.05-2.96-3.53-2.15-7.26-3.75-11.72-3.58-4.13-.24-7.96,1.13-11.38,3.71Zm17.61-9.71c2.06-1.81,2.46-4.66.94-7.22-1.25-2.12-1.49-4.32-1.34-6.67.07-1.07-.15-1.97-1.57-1.93-1.39.03-1.49.89-1.51,1.98-.04,1.67.45,3.16.92,4.76,1.94,6.6,1.81,6.64-5.02,7.83,2.61,1.81,5.09,3.45,7.57,1.26Z"/>
      <path class="cls-6" d="m163.19,188.01c-5.35-3.4-9.65-3.56-14.5.84-8.34,7.57-19.03,10.59-29.7,13.3-21.5,5.47-39.84-2.08-56.5-14.69-4.88-3.69-8.17-2.46-12.76.17,6.19,5.45,10.85,11.65,14.19,18.79,2.2,4.71,3.7,9.67,4.08,14.84.24,3.25,1.44,3.81,4.26,2.76,15.86-5.9,32.18-5.57,48.74-4.11,6.89.61,13.43,1.98,19.93,4.05,1.11.35,2.84,1.01,3.01-1.21,1.1-14.44,8.59-25.41,19.24-34.75Z"/>
      <path class="cls-2" d="m72.23,39.14c3.51-.34,6.81-1.48,10.02-2.23,9.2-2.15,18.46-3.63,27.82-3.28,13.6.51,27.21,1.54,40.23,6.13,1.12.39,2.42.96,3.29.12,1.22-1.18-.49-1.99-.9-2.92-6.08-14.14-16.09-24.21-31.5-27.01-20.48-3.72-41.92,6.66-48.96,29.19Z"/>
      <path class="cls-2" d="m47.58,66.63c42.69-15.21,85.36-15.01,128.11.57-6.95-7.37-15.3-11.91-24.52-14.91-9.73-3.16-19.81-4.13-29.95-5.4-14.06-1.77-27.69-.35-41.23,2.45-12.38,2.56-24.31,6.72-33.14,16.68.24.2.48.4.72.6Z"/>
      <path class="cls-4" d="m176.62,231.53c5.46.95,6.95-1.96,7.27-6.69.2-2.9,1.12-5.75,1.73-8.63,2.14-10-2.93-17.71-12.76-20.8-1.78-.56-3.22.55-4.51,1.58-6.59,5.22-10.16,12.44-13.09,20.06-.21.54-.11,1.74.02,1.77,5.08,1.06,3.62,5.08,3.72,8.29.06,1.92,1.22,1.98,2.6,2.17,5.01.71,10.01,1.49,15.01,2.24Z"/>
      <path class="cls-4" d="m27.06,212.29c-.01,5.69-.08,10.22,1.76,14.73.86,2.1,2.02,2.99,3.63,3.06,6.25.28,12.51.23,18.69-.97,2-.39,1.71-2.04,1.82-3.54.18-2.59-.86-5.76,3.35-6.54,1.26-.24.7-1.84.27-2.98-2.52-6.68-5.62-12.98-10.61-18.25-2.79-2.95-5.79-3.33-9.4-1.79-7.77,3.31-11.05,9-9.5,16.3Z"/>
      <path class="cls-6" d="m29.26,250.2c3.91,4.7,8.29,1.64,11.95,3.71-3.27,2.73-7.14.34-10.78,1.86,1.92,1.25,3.71,2.25,5.29,3.5,1.01.8,2.22,2.08.83,3.33-1.31,1.17-1.92-.6-2.74-1.23-6.64-5.17-16.27-2.44-18.01,5.01-.52,2.21-.1,3.14,2.23,3.1,9.32-.15,18.65-.28,27.97-.35,1.85-.02,2.65-.96,3.08-2.6,1.04-3.98,2.88-7.47,6.57-9.63,2.58-1.51,1.4-3.86,1.32-5.84-.4-10.31-.44-10.22-10.81-9.77-2.82.12-4.11.46-3.21,3.8.96,3.54-1.06,5.2-4.63,5.13-2.62-.05-5.24,0-9.06,0Z"/>
      <path class="cls-6" d="m180.36,256.53c-3.59-.66-6.96-1.28-11.31-2.07,4.15-2.55,8.24-.19,11.81-2.17-1.85-1.68-3.55-1.01-5.07-1.04-4.11-.08-7.65-.57-6.79-6.13.32-2.06-.54-3.17-2.75-2.95-.16.02-.33-.03-.5-.01-3.43.33-8.42-1.53-9.94.83-1.98,3.07-1.3,7.85-1.77,11.9-.15,1.33.63,1.86,1.62,2.66,2.32,1.88,4.72,4.18,5.03,7.2.42,4.16,2.9,4.13,6.07,4.63,8.09,1.29,16.21.61,24.31.92,4.36.17,4.93-.93,3.05-4.92-3.05-6.45-10.98-8.04-17.34-3.48-.97.7-1.92,2.59-3.18.92-1.02-1.35.58-2.4,1.59-3.13,1.57-1.13,3.3-2.03,5.17-3.16Z"/>
      <path class="cls-8" d="m109.55,36.23c-10.55.63-21.67,1.3-32.44,4.51-1.59.47-3.11,1.17-4.7,1.66-2.23.69-2.78,2.32-2.25,4.3.75,2.77,2.61,1.07,4,.73,24.58-5.94,49.09-5.86,73.54.72,1.44.39,2.86.89,4.31,1.24,1.27.3,2.91,1.98,3.74-.18.72-1.87.7-4.06-1.75-5.05-2.46-.99-4.92-2.05-7.47-2.75-11.91-3.27-24.08-4.78-36.99-5.18Z"/>
      <path class="cls-4" d="m186.76,126.72c-2.65.52-5.32.99-7.96,1.59-2.33.53-3.23,2.04-2.75,4.42.56,2.8,2.66,1.04,4.02,1.33.51.11,1.15-.66,1.77-.75,1.4-.2,3.47-.91,3.88.83.46,1.96-1.55,1.98-3.07,2.14-1.28.14-2.53.57-3.78.92-3.24.9-1.84,3.64-1.69,5.39.2,2.4,2.2,1.78,3.88,1.23,1.08-.35,2.23-.53,3.36-.61.95-.07,2.26-.17,2.28,1.21.02,1.03-.8,1.68-1.98,1.8-1.37.13-3.55-.6-3.64,1.48-.08,1.96,1.85,3.01,3.55,3.78,3.84,1.75,6.86.31,9.18-2.75,6.85-9.04,4.88-19.47-1.48-26.97-1.86-2.19-13.53-2.31-15.69-.46-1.26,1.08-1.96,2.54-1.44,3.99.71,1.98,2.16.47,3.26.21,2.76-.65,5.47-.4,8.18,0,.03.41.07.82.1,1.23Z"/>
      <path class="cls-4" d="m33.07,135.7c2.4-1.65,4.72-1.86,7.08-1.02,1.35.48,3.04,1.39,3.77-.42.74-1.83-.02-3.69-2.01-4.51-1.64-.67-3.39-1.37-5.13-1.45-1.77-.08-3-.81-5.23-2,3.9,0,6.83-.05,9.75.03.92.03,2.06,1.72,2.57-.39.26-1.1.28-2.07-.78-3.11-3.56-3.51-12.71-3.7-16.47-.14-6.26,5.93-6.16,21.71-.03,27.59,2.93,2.81,5.87,2.22,9.12,1.1,1.5-.52,2.13-1.74,2.27-2.97.2-1.75-1.43-2.02-2.71-2.22-1.32-.21-3.21-.33-2.87-1.85.41-1.83,2.4-1.18,3.83-.9.64.12,1.23.57,1.86.64,1.98.21,3.99.47,4.76-2.19.75-2.6-.79-3.77-2.78-4.43-2.27-.76-4.66-1.19-6.99-1.76Z"/>
      <path class="cls-6" d="m76.04,121.35c.31-2.9-.5-7.9-3.77-12.28-.71-.95-.83-2.83-2.75-2.14-1.55.56-1.56,1.99-1.61,3.34-.3,8.82-.71,17.64-.88,26.46-.16,8.58-2.52,16.6-5.93,24.35-1.56,3.54-2.56,8.81,0,10,2.86,1.33,4.5-3.85,5.86-6.67,6.18-12.82,8.41-26.55,9.06-43.06Z"/>
      <path class="cls-6" d="m150.85,109.82c-7.83,6.7-7.09,14.99-6.21,23.88.88,8.92,1.05,17.89,3.41,26.61.96,3.55,2.21,6.98,4.14,10.12.4.65,1.1,1.48,1.74,1.56,1.23.15,1.66-1.34,1.75-2.04.32-2.45.9-5.15.23-7.41-4.47-15.01-3.84-30.41-3.91-45.77-.01-2.34-.04-4.67-1.15-6.94Z"/>
      <path class="cls-9" d="m101.77,58.33c5.7,4.91,11.22,7.14,17.02,8.6,3.33.84,6.68.49,8.88-2.75,1.6-2.36,3.27-2.37,5.37-.62,2.06,1.71,4.46,2.89,7.08,3.52.64.15,1.36,0,1.97.2,2.47.8,3.06-5.07,4.68-2.28,2.43,4.19,7.69,7.24,6.37,13.39-.51,2.37-.08,4.93.69,7.57,1.34-4.36,3.19-8.5,3.2-13.2.01-8.15.09-8.27-7.78-10.09-15.2-3.52-30.62-4.76-47.47-4.34Z"/>
      <path class="cls-6" d="m56.76,84.03c.3-5.88,1.81-10.42,7.17-13.09,2.31-1.15,1.23-3.91.71-5.79-.49-1.76-2.2-.82-3.39-.44-5.68,1.81-11.31,3.75-16.38,7.01-3.19,2.05-3.34,4.18-.48,6.67,3.47,3.01,7.65,4.39,12.37,5.64Z"/>
      <path class="cls-6" d="m159.92,68.3c.24,2.39-.32,3.76.84,4.52,3.83,2.52,5.51,6.08,5.47,10.58-.02,1.93,1.18,2.12,2.7,1.74.48-.12.97-.24,1.43-.43,4-1.61,9.53-2.76,10.07-7.17.52-4.33-5.18-5.28-8.49-7.18-2.57-1.48-5.51-2.3-8.25-3.49-2.87-1.25-4.21-.61-3.77,1.43Z"/>
      <path class="cls-6" d="m171.18,191.64c-1.8-2.93-4.21-2.39-6.49-.69-10.99,8.2-16.6,19.49-18.66,32.8-.33,2.15.87,3.04,2.74,3.33,2.94.45,1.97-1.78,2.21-3.23,2.23-13.55,8.32-24.68,20.2-32.2Z"/>
      <path class="cls-6" d="m41.55,190.55c11.76,8.49,17.62,20.08,19.38,33.99.16,1.27-.16,2.92,1.99,2.52,1.63-.3,3.54-.6,3.11-2.94-.51-2.74-1.22-5.44-1.93-8.13-2.51-9.5-6.95-17.89-14.29-24.6-2.4-2.19-4.88-3.55-8.25-.84Z"/>
      <path class="cls-3" d="m172.39,233.16c-3.25.75-6.9-.84-10.67-.98-1.81-.07-4.27-.67-3.78,2.76.31,2.14-.52,4.64,3.38,4.29,5.05-.45,10.04,1.02,15.14,1.13,4.03.09,5.09-2.32,5.3-4.81.27-3.26-2.86-2.21-4.8-2.37-1.32-.11-2.65-.02-4.58-.02Z"/>
      <path class="cls-9" d="m61.85,182.37c4.29,5.85,10.58,8.88,16.91,11.74,3.92,1.77,8.04,3.1,12.14,4.45,1.51.5,3.67,1.91,4.16-1.3.36-2.36.08-4.24-2.9-4.66-7.29-1.04-14.07-3.74-20.86-6.46-3.08-1.24-5.51-3.78-8.93-4.28-.17.18-.35.35-.53.52Z"/>
      <path class="cls-3" d="m42.3,238.8c2.3.11,4.61.11,6.89.36,3.6.39,5.24-.88,4.89-4.69-.22-2.38.33-3.61-3.44-2.78-5.48,1.21-11.26,1.95-17.04,1.57-1.13-.07-3.62-1.06-3.31,1.29.23,1.73-.14,4.89,3.56,4.55,2.79-.25,5.62-.05,8.43-.05,0-.09,0-.17,0-.26Z"/>
      <path class="cls-9" d="m148.68,183.77c-9.45,3.65-18.85,7.44-29.05,8.5-3.33.35-2.6,2.98-2.48,4.99.15,2.53,1.97,1.55,3.35,1.22,10.64-2.54,20.6-6.47,28.78-14.04-.2-.23-.4-.45-.6-.69Z"/>
      <path class="cls-2" d="m106.34,191.88c-.99,0-1.98.01-2.97,0-4.93-.09-7.82,3.62-5.03,7.59,2.75,3.92,7.9,1.15,11.95,1.62,1.83.21,4.06.29,4.74-2.31,1.32-5.09-.05-6.89-5.22-6.88-1.16,0-2.31,0-3.47,0v-.02Z"/>
      <path class="cls-6" d="m57,88.39c-3.02,6.42-1.68,12.25-1.84,17.9-.04,1.43,1.3,1.12,2.27.85,3.19-.91,6.37-1.83,9.55-2.74,1.07-.3,2.52-.22,2.23-1.97-.21-1.27-.08-2.8-1.69-3.32-4.99-1.61-8.3-5.02-10.52-10.71Z"/>
      <path class="cls-9" d="m68.04,73.24c.11,3.31-.43,6.66.65,9.92.33.98.62,1.96,1.9,1.9,1.41-.06,1.4-1.17,1.44-2.16.05-1.33.2-2.69.01-3.99-.68-4.82.44-8.78,4.6-11.79,1.57-1.14,3.25-3.25,2.19-5.13-1.05-1.87-3.29-.37-4.98-.04q-5.76,1.12-5.81,11.3Z"/>
      <path class="cls-9" d="m58.87,270.65c-13.08.83-25.74,1.87-38.46,1.61-1.45-.03-4.05-1-4.16,1.23-.14,2.68,2.61,1.88,4.25,1.88,6.98,0,13.99.27,20.92-.34,4.62-.41,9.09-2.05,13.89-1.17,1.55.28,3.2-.71,3.56-3.2Z"/>
      <path class="cls-9" d="m182.78,276.22c3.16,0,6.31.04,9.47-.02,1.23-.02,2.47-.46,2.38-1.92-.09-1.39-1.44-1.08-2.35-1.11-7.6-.2-15.19-.1-22.81-.8-4.92-.45-9.83-1.2-14.77-1.53-.94-.06-2.07-.75-2.46.66-.42,1.47.67,2.07,1.84,2.46.47.15,1.01.31,1.47.22,9.26-1.72,17.98,3.81,27.24,2.04Z"/>
      <path class="cls-6" d="m164.43,92.92c-2.62,3.67-5.31,5.82-8.67,7.02-2.08.74-2.75,2.46-2.67,4.28.09,1.96,1.86,1.98,3.39,1.95,3.03-.04,6.84,3.85,8.58,1.08,2.47-3.93,1.35-9.05-.64-14.34Z"/>
      <path class="cls-4" d="m64.22,73.91c-5.27,3.84-4.67,8.97-3.81,13.75.65,3.59,2.05,7.4,7.49,7.5-3.24-6.74-.41-14.18-3.68-21.25Z"/>
      <path class="cls-4" d="m155.99,96.14c8.79-3.48,10.67-14.18,3.66-20.05-1.2,6.59-2.38,13.03-3.66,20.05Z"/>
      <path class="cls-6" d="m53.49,87.48c-7.37,6.73-4.97,15.53-5.42,24.05,2.46-.65,4.26-1.3,4.1-4.15-.38-6.67-.25-13.31,1.32-19.9Z"/>
      <path class="cls-6" d="m177.49,248.13c1.4-.67,4.08,2.14,4.46-1.59.2-2.02.07-3.65-2.72-3.36-1.47.15-3.04.17-4.45-.19-1.81-.46-3.58-1.65-3.84,1.56-.21,2.59,1.02,3.66,3.5,3.59.99-.03,1.99,0,3.04,0Z"/>
      <path class="cls-6" d="m34.95,241.59c-1.95,1.68-5.58-1.34-5.58,2.78,0,4.66,3.86,2.23,5.99,2.54,1.79.26,4.66,1.2,4.51-2.54-.18-4.51-3.85-.61-4.93-2.78Z"/>
      <path class="cls-6" d="m58.06,263.64c-.57-1.37.8-4.26-1.22-4.02-3,.36-4.1,3.58-4.65,6.32-.55,2.73,1.85,2.09,3.31,2.2,3.91.29,2.05-2.76,2.57-4.5Z"/>
      <path class="cls-6" d="m153.03,259.62c.59,3.47-1.78,6.56,1.86,8.34.83.41,3.07,1.04,3.2-.85.22-3.15-1.57-5.39-5.06-7.49Z"/>
      <path class="cls-4" d="m45.37,138.6c4.19-2.4,6-7.97,4.18-10.36-.34-.45-1.07-.82-1.62-.83-.89-.01-.82.89-.82,1.49.01,3.05.03,6.09-1.74,9.7Z"/>
      <path class="cls-4" d="m173.05,131.96c0-.83.04-1.65,0-2.48-.06-1.07.33-2.46-1.61-2.3-1.43.12-1.36,1.12-1.39,2.1-.06,1.65-.22,3.3-.16,4.94.04,1.29.1,2.92,1.93,2.87,1.83-.05,1.04-1.68,1.2-2.67.12-.81.03-1.65.03-2.47h.02Z"/>
      <path class="cls-2" d="m46.86,66.02c-.84.48-.95,1.12-.42,1.9.38-.43.76-.86,1.14-1.29-.24-.2-.48-.4-.71-.6Z"/>
      <path class="cls-9" d="m149.28,184.46c.43-.28,1.54-.11,1.08-.97-.3-.56-1.16-.16-1.68.28.19.23.39.46.59.68Z"/>
      <path class="cls-9" d="m62.38,181.85c-.29-.31-.61-.62-.94-.1-.05.08.27.4.42.61.18-.17.35-.34.52-.52Z"/>
      <path class="cls-7" d="m9.77,231.15c.1.67.2,1.35.3,2.02,3.23.86,3.21.86,2.48-2.05-1.99-7.94-2.28-15.92-.51-23.95q.1-5.16-2.93-3.86c-1.17,6.57-1.01,13.24-1.34,19.87.41,2.32,1.56,4.51,1.3,6.96.56.11,1.03.29.69,1.01Z"/>
      <path class="cls-7" d="m3.09,224.17c0-3.49,0-6.98,0-10.46,0-.91-.28-1.55-1.38-1.56-1.34-.02-1.68.75-1.69,1.88-.04,3.51-.06,7.02,3.08,10.14Z"/>
      <path class="cls-4" d="m122.72,80.79c1.45,2.33,7.23-.44,4.52,5.05-.86,1.76-1.3,5.21,2.12,6.19,1.53.44,3.86.63,4.27-1.31.58-2.75,1.61-5.94-1.03-8.29-.65-.58-1.77-.77-2.36-1.67,1.96-1.75,4.22-2.99,6.6-4.1.99-.46,1.29-1.51,1.02-2.56-.28-1.06-1.27-1.17-1.98-.78-4.37,2.4-8.68,4.9-13.18,7.47Z"/>
      <path class="cls-4" d="m111.19,105.05c-4.13-.24-7.96,1.13-11.38,3.71-.91.69-2.02,1.72-1.19,2.88.98,1.37,1.93.15,2.88-.5,5.96-4.09,13.56-4.14,19.68-.07.98.65,1.84,1.88,2.79.52.7-1.01.04-2.29-1.05-2.96-3.53-2.15-7.26-3.75-11.72-3.58Z"/>
      <path class="cls-4" d="m98.1,81.29c-4.14.04-6.77,1.47-6.12,6.27.27,2.01.98,3.53,3.12,3.79,2.27.27,3.06-1.43,3.79-3.17,1.05-2.5-1.05-4.59-.86-6.97l.08.08Z"/>
      <path class="cls-4" d="m109.86,97.78c2.61,1.81,5.09,3.45,7.57,1.26,2.06-1.81,2.46-4.66.94-7.22-1.25-2.12-1.49-4.32-1.34-6.67.07-1.07-.15-1.97-1.57-1.93-1.39.03-1.49.89-1.51,1.98-.04,1.67.45,3.16.92,4.76,1.94,6.6,1.81,6.64-5.02,7.83Z"/>
      <path class="cls-4" d="m98.02,81.21c1.08-.86,2.17.33,3.27,0,.59-.18,1.36,0,1.52-.9.14-.79-.35-1.21-.94-1.53-3.33-1.8-6.65-3.63-10.02-5.35-.86-.44-2.14-.62-2.66.35-.53.99.36,1.71,1.21,2.37,2.45,1.9,6.14,1.94,7.7,5.15,0,0-.08-.07-.08-.07Z"/>
      <path class="cls-7" d="m116.16,177.43c-10.76,1.64-21.08-.49-31.3-3.6-1.2-.36-2.87-1.7-3.49-.18-.78,1.91,1.34,2.12,2.72,2.64,16.19,6.06,32.49,5.91,48.87.87,1.18-.36,3.17-.61,2.76-2.13-.47-1.77-1.95-.5-3.17-.21-5.16,1.24-10.3,2.61-15.63,2.97-.32.02-.57-.1-.76-.36Z"/>
      <path class="cls-9" d="m116.16,177.43c.18.26.44.38.76.36-.25-.12-.5-.24-.76-.36Z"/>
      <path class="cls-7" d="m125.1,140.81c-.33-1.88-1.26-1.95-2.53-1.22-2.29,1.33-4.6,2.62-6.86,3.99-.81.49-1.88,1.05-1.11,2.3.65,1.07,1.58.99,2.57.39,2.77-1.69,6.13-2.55,7.93-5.46Z"/>
      <path class="cls-7" d="m97.92,86.96c.14,2.88-.11,5.33-3,5.25-3.02-.09-3.91-2.59-3.93-5.27-.03-2.9,1.23-4.75,4.4-4.61,3.92.18,2.27,3.2,2.54,4.63Z"/>
      <path class="cls-7" d="m109.68,97.52c2.33.4,4.85,1.09,6.33-.77,1.51-1.9-.24-4.04-1.16-5.84-1.39-2.7-1.07-5.12.48-7.63.36,4.09,3.54,7.27,3.36,11.45-.1,2.26.25,4.49-2.83,5.57-3.09,1.08-4.73-.11-6.17-2.78Z"/>
      <path class="cls-7" d="m135.96,88.03c-.05,2.5.88,5.26-3.14,4.89-3.01-.27-3.85-1.98-3.89-4.63-.05-2.99,1.81-5.14,4.26-5.15,2.71-.01,3.56,2.51,2.77,4.88Z"/>
      <path class="cls-4" d="m112.96,113.82c-3.01.5-5.13-.81-7.37-1.75-1.26-.53-1.98-1.35-1.4-2.62.52-1.14,1.77-.95,2.57-.42,3.58,2.35,7.28,2.94,11.31,1.32.82-.33,1.68-.06,1.91.94.23.98-.43,1.56-1.25,1.82-2,.64-3.96,1.76-5.76.69Z"/>
      <path class="cls-7" d="m135.14,77.78c-3.09-.36-4.77.55-6.28,1.95-.72.67-1.51.6-2.09-.17-.78-1.03-.2-1.89.64-2.49,3.46-2.48,7.14-3.2,11.07-1.1,1,.53,2.32,1.17,1.54,2.54-.52.93-1.62.69-2.6.14-.97-.55-2.1-.81-2.27-.87Z"/>
      <path class="cls-7" d="m88.67,76.1c.41-.88.71-1.84,1.91-1.97,2.01-.22,3.8-1.08,6.06.03,1.82.9,5.03.73,4.48,3.26-.62,2.88-2.7-.43-4.32-.12-2.05.38-4.25-.03-6.38-.15-.72-.04-1.71.21-1.76-1.05Z"/>
      <path class="cls-7" d="m110.91,113c-.19.11-.49.13-.67.16-.69.09-1.4,0-2.08-.12-1.63-.3-3.09-1.09-4.6-1.72-1.26-.53-1.98-1.35-1.4-2.62.52-1.14,1.77-.95,2.57-.42.63.41,1.28.78,1.96,1.1,1.07.5,2.17.81,3.32,1.02.17.03.31.07.47.15.41.19.76.46.93.9.08.21.04.47-.04.65-.11.25-.19.53-.33.77-.03.05-.08.09-.13.13Z"/>
      <path class="cls-1" d="m103.64,157.58c3.53,3.17,6.68,3.46,10.69,1.13,10.29-6.01,18.44-14.08,24.4-24.39.65-1.12.68-3.07,3.42-2.72-.91,5.61.27,11.1.83,16.63.87,8.66,2.45,17.24,7.36,24.56,2.55,3.8,1.63,5.63-1.8,7.39-11.05,5.66-22.56,9.4-35.19,8.94-4.98-.18-10.01-.37-14.96.12-13.2,1.32-24.08-4.53-34.9-10.69-1.62-.92-2.39-2.24-.61-3.99,7.82-7.7,10.68-17.79,13.14-28.01,1.25-5.21,2.08-10.52,3.34-17.01,5.95,12.56,15.36,20.04,24.29,28.04Zm-18.78,16.25c-1.2-.36-2.87-1.7-3.49-.18-.78,1.91,1.34,2.12,2.72,2.64,16.19,6.06,32.49,5.91,48.87.87,1.18-.36,3.17-.61,2.76-2.13-.47-1.77-1.95-.5-3.17-.21-5.16,1.24-10.3,2.61-15.64,2.97-.25-.12-.5-.24-.75-.36-10.76,1.64-21.08-.49-31.3-3.6Z"/>
      <path class="cls-1" d="m18.84,136.26c-5.23,7.45-5.81,15.09-4.35,22.64,1.8,9.33,12.58,14.32,21.31,10.64,4.56-1.92,8.29-4.91,11.57-8.5,3.48-3.81,6.5-8.17,10.44-11.41,6.24-5.12,6.96-11.93,7.19-19.03.21-6.49-.07-12.99.13-19.48.09-2.98-.85-3.35-3.44-2.5-5.45,1.79-10.37,4.49-14.86,8-3.19,2.5-2.98,5.42.51,7.58,7.29,4.53,7.79,12.42.72,17.32-1.97,1.37-1.39,2.01-.73,3.32,1.45,2.84.51,5.84.51,8.77,0,.85-.81,1.51-1.69,1.51-1.16,0-.98-1.05-1.13-1.83-.45-2.35,1.39-6.05-.91-6.8-2.72-.88-2.94,3.31-4.56,5.04-4.85,5.19-11.93,5.12-16.49-.39-2.86-3.46-3.78-6.54-4.22-14.9Z"/>
      <path class="cls-1" d="m200.4,136.1c.05,7.38-1.68,13.93-8.26,17.72-8.25,4.75-11.85-2.99-16.92-8.09-.16,3.47-.27,5.88-.43,9.18-2.16-2.47-3-4.17-2.26-6.89.73-2.67,1.66-5.41-2.43-7.39-2.91-1.41-3.29-5.49-3.09-8.97.18-3.2-.79-6.34,4.06-7.73,4.11-1.17,3.89-6.18.07-8.45-5.13-3.04-10.32-5.97-16.09-6.99,0,10.12.02,20.28-.01,30.44,0,2.06.39,3.73,1.99,5.34,5.04,5.08,9.85,10.39,14.75,15.61,2.63,2.81,5.52,5.3,8.84,7.28,6.09,3.62,12.2,4.28,18.26.04,5.3-3.71,8.38-12.11,6.89-18.62-1.01-4.46-2.43-8.76-5.37-12.48Z"/>
      <path class="cls-5" d="m111.31,157.44c-1.62.92-2.76.66-3.99-.45-6.43-5.77-13.24-11.12-18.7-17.92-4.61-5.74-7.66-12.2-9.87-20.13,4.07,2.99,7.04,5.7,9.32,9.19,3.4,5.2,8.46,8.36,13.96,10.88,1.14.52,2.86,1.27,3.46-.37.54-1.47-.81-2-2.29-2.44-2.02-.6-3.89-1.79-5.73-2.89-.9-.54-2.52-1.02-1.93-2.45.69-1.7,2.43-.87,3.51-.54,2.82.84,5.53,1.82,8.59,1.79,5.66-.06,11.36.65,17.36-2.37-1.26,2.39-2.85,2.68-4.07,3.49-1.05.69-2.8,1.19-1.77,2.9.89,1.48,2.09.23,2.99-.29,1.87-1.07,4-1.99,5.38-3.54,3.46-3.9,7.42-7.08,12.79-10.14-4.78,16.53-15.11,27.34-29,35.27Zm11.26-17.85c-2.29,1.33-4.6,2.62-6.86,3.99-.81.49-1.88,1.05-1.11,2.3.65,1.07,1.58.99,2.57.39,2.77-1.69,6.13-2.55,7.93-5.46-.33-1.88-1.26-1.95-2.53-1.22Z"/>
      <path class="cls-2" d="m111.86,5.57c.46-.39.74-.95,1.23-1.33.23-.18.45-.41.69-.56.57-.37,1.33-.54,2-.53.52,0,.96-.08,1.34.34.36.4.51.97.54,1.49.01.24.19.52.15.75-.08.49-1.09.67-1.49.82-.61.23-1.09.12-1.62-.18-.49-.28-1.01-.53-1.49-.78-.43-.22-.92-.06-1.35,0Z"/>
    </g>
  </g>
</svg>