<?xml version="1.0" encoding="UTF-8"?>
<svg id="Layer_2" data-name="Layer 2" xmlns="http://www.w3.org/2000/svg" viewBox="0 0 209.97 341.25">
  <defs>
    <style>
      .cls-1 {
        fill: #e8c086;
      }

      .cls-2 {
        fill: #fcfcfc;
      }

      .cls-3 {
        fill: #ffa34e;
      }

      .cls-4 {
        fill: #f3c49f;
      }

      .cls-5 {
        fill: #6998b8;
      }

      .cls-6 {
        fill: #cf4c47;
      }

      .cls-7 {
        fill: #a9825e;
      }

      .cls-8 {
        fill: #0f0e0e;
      }

      .cls-9 {
        fill: #886a4e;
      }

      .cls-10 {
        fill: #7b5e49;
      }
    </style>
  </defs>
  <g id="Layer_1-2" data-name="Layer 1">
    <g>
      <rect class="cls-2" x="89.77" y="87.86" width="33" height="5"/>
      <path class="cls-8" d="m20.35,86.6c-.83-1.79-1.66-3.58-2.49-5.37.16-1.74-1-3.01-1.56-4.5-4.05-10.65-8.54-21.16-10.46-32.49,5.95-4.1.23-5.69-1.74-8.08C1.51,31.03-.26,25.73.03,19.87c.21-4.35,1.84-7.35,5.62-10.08,4.77-3.44,10.38-3.61,15.41-5.74.67,0,1.33,0,2,0,4.97-.06,8.07,2.5,9.49,7.08,1.68,5.39,6.84,9.94,3.78,16.51-1.06,2.29-4.08,4.43.28,7.44,2.21,1.53,2.35,6.07,3.41,9.25,2.01,6.07,1.96,6,6.86,2.69,2.42-1.63,4.97-3.13,7.62-4.35,2.73-1.25,3.86-3.2,4.87-6.03,5.14-14.4,14.38-24.91,29.5-29.41,1.29-.38,2.6-.9,3.06-2.2C93.52.6,96.96-.22,101.04.05c2.54,1.31,3.18,5.06,6.67,5.16,8.84.26,16.18,4.38,23.32,9.03,6.64,5.06,11.22,11.75,15.11,19,1.36,5.21,6.51,4.03,9.88,5.85,2.75,1.18,4.8,3.68,7.91,4.19,2.05,2.55,3.82,3.47,5-.68.57-2.01,1.36-3.96,2.01-5.95.26-.78.23-2.13.67-2.29,6.74-2.52,1.05-5.4.3-8.11-1.55-6.04,3.4-9.96,4.91-15,.78-3.47,3.75-4.98,6.19-6.96,5.22-3.07,9.91,1.48,14.95,1.05,1.02.62,2.04,1.24,3.05,1.86l.03.03c.44,1.43,1.41,2.13,2.9,2.1l-.03-.03c.15.54.38.98,1.07.78,5.04,3.11,5.02,8.12,4.95,13.15-2.49,4.37-3.14,9.66-6.7,13.48-1.89,2.03-5.34,3.74-.7,6.54.82.5.55,1.74.22,2.74-1.28,3.95-2.43,7.95-3.75,11.88-7.27,21.73-17.46,42.08-28.88,61.9-3.89,6.75-11.25,12.66-7.33,22.12.04.1-.44.41-.68.62-1.79-.26-1.19-3.69-3.34-2.91-1.98.71-1.8,2.99-1.7,4.77.55,10.22-1.03,20.6,2.07,30.65.05.16.08.34.05.49-2.03,8.99-1,18.17-1.79,27.24-.06.39-.12.78-.17,1.17.35-.14.7-.29,1.05-.43,4.6-3.52,5.96-8.74,6.53-13.98.34-3.12.54-6.26.61-9.39.1-4.19-.04-8.38-.39-12.56s-.93-8.35-1.7-12.47c-.19-1.04-.4-2.07-.62-3.1s-.53-1.99-.57-3c-.02-.61.22-1.18.19-1.78-.02-.46-.16-.88-.36-1.29-.21-.45-.34-.92-.55-1.37-.06-.13-.1-.26-.16-.38-.06-.13-.19-.26-.24-.39-.09-.22-.02-.54-.02-.78,0-.86.73-.98,1.21-1.54.25.18.39.24.6.5.15.19.37.33.53.51.17.2.25.44.38.66.23.39.46.83.52,1.29s-.05.93.15,1.37c.57,1.23.36,2.61.58,3.92,1.44,8.5,3.33,16.99,3.8,25.56.61,11.15.1,22.37-9.23,30.75-1.69,1.52-2.19,2.96-1.94,5.78.6,6.56,2.57,12.72,4.51,18.77,1.65,5.14,1.61,10.88,5.54,15.49,2.33,2.73-.08,9.28-3.41,11.11-1.7.93-1.13,2.14-1.21,3.36-.32,5.24.44,10.48-.96,15.75-1.24,4.67-2.35,9.74-1.8,14.43.52,4.46.54,8.59-.05,13.02-.44,3.35-1.89,7.52,1.25,10.41,3.18,2.93,4.98,6.73,7.48,10.08.03,2.5-.13,5.01.13,7.48.31,2.92-1.25,4.68-3.31,6.14-6.68,4.75-18.16,4.47-24.97-.21-6.08-4.19-7.73-11.45-12.12-16.79-.45-.55-.62-1.57-.5-2.3,1.35-8.27,2-16.59,1.81-24.97-.03-1.32-.24-2.8.27-3.93,3.07-6.87,1.44-13.88.87-20.86-.18-2.21-.95-2.2-3.16-1.71-4.19.93-7.35-.23-8.32-5.52-1.33-7.25-3.97-14.21-6.6-21.12-.32-.83.05-2.6-1.26-2.13-4.68,1.7-9.5.45-14.18,1.13-.99.14-1.36,1.21-1.63,2.24-1.72,6.52-4.7,12.62-6.15,19.26-.65,2.96-2.04,6.79-6.7,4.87-4.53-1.87-5.55.44-6.29,4.35-2.21,11.79,2.15,23.16,1.85,34.8,0,.16.17.33.14.47-.93,5.09,2.83,10.22-.12,15.29-2.13,3.67-4.36,7.29-6.35,11.03-3.3,6.19-8.19,9.23-15.33,8.53-2.3-.23-4.66.17-6.98.03-3.86-.23-7.72-1.23-9.85-4.58-2.36-3.71-.33-14.08,3.05-17.23,5.63-5.26,7.06-11.46,5.07-18.76-.47-1.71-.77-3.78-.24-5.38,2.13-6.31,0-12.16-1.4-18.13.1-5.48.1-10.97.34-16.45.1-2.25-.45-3.55-2.71-4.42-2.41-.92-3.8-2.23-2.66-5.63,3.57-10.64,6.67-21.45,9.74-32.26,1.26-4.45,3.29-9.41-3.28-11.88-.5-.19-.73-1.04-1.12-1.57-7.03-9.71-7.36-20.61-5.67-31.87,1.04-.32.78-1.05.56-1.77-.16-11.6,2.46-22.77,5.5-33.84.37-1.35.7-2.13-.19-3.49-4.26-6.51-8.3-13.17-12.42-19.78-4.83-8.87-9.65-17.75-14.48-26.62Zm91.86-45.79c3.29.1,6.58.2,9.75,1.26,8.13,1.12,15.72,3.75,22.37,8.61,4.74,3.47,8.07,7.99,7.65,14.21-.25,3.73,3.21,4.67,4.59,7.79,3.94-7.22,6.58-14.36,9.3-21.46,1.02-2.67-1.08-3.61-2.68-4.61-9.37-5.9-19.6-9.65-30.48-11.44-2.52-.41-5.04-1.88-7.75-.81-12.9-2.31-25.76-.9-38.53.83-7.41,1.01-14.62,3.3-21.66,5.96-7.5,2-13.77,6.26-19.93,10.74-1.65,1.2-1.69,2.47-.95,4.28,2.54,6.29,4.98,12.61,8.4,19.06,2.87-3.7,6.27-6.28,6.23-11.67-.04-4.75,4.21-7.65,7.81-10.36,2.24-1.68,4.66-3.1,7.01-4.63,12.41-5.32,25.31-8.19,38.87-7.78Zm-6.19,85.46c-5.71.31-10.95-1.91-17.12-2.91,2.68,4.65,6.5,6.95,10.67,8.86,1,.46,2.72.74,2.25,2.14-.6,1.78-2.2.83-3.31.33-5.41-2.46-10-5.91-12.9-11.27-.71-1.31-1.28-2.71-2.66-3.52-1.93-1.14-2.89-1.07-3,1.63-.17,4.61,1.65,8.43,4.13,12.03,5.28,7.65,12.58,13.19,19.81,18.81,1.77,1.37,3.07.59,4.49-.32,10.09-6.46,17.3-15.4,22.35-26.16.33-.71.35-1.65.26-2.45-.17-1.37.85-3.39-.84-3.98-1.93-.66-3.44.77-4.38,2.48-1.45,2.66-3.11,5.2-5.53,6.99-2,1.48-4.78,4.76-6.57,2.63-1.58-1.88,2.93-2.52,4.2-4.3.99-1.39,3.28-1.79,3.12-4.08.18-.1.36-.19.54-.29-.1-.01-.23-.06-.28-.02-.1.09-.15.24-.22.36-5.09.58-9.84,2.75-15.02,3.03Zm48.67,15.34c.24-1.81.97-3.02,1.74-4.3,12.98-21.64,25.72-43.4,34.99-66.97,3.01-7.66,5.97-15.33,7.95-23.36.53-2.16-.19-2.9-1.86-3.83-6.77-3.77-14.27-5.14-21.69-6.8-2.07-.46-2.46.95-2.95,2.48-3.96,12.36-8.59,24.46-14.14,36.19-.61,1.28-.67,2.52-.68,3.86-.04,7.04-2.83,12.14-9.2,15.89-4.15,2.45-6.7,7.97-6.28,12.26,1.44,14.6,1.68,29.45,6.34,43.59,1.4,4.24,2.93,8.43,4.4,12.64.19.72.42,1.44,1.35,1.35.09,0,.1-.8.15-1.23.59-7.25-1.08-14.47-.12-21.77Zm-29.34-1.27c-3.43,5.64-8.72,9.35-13.6,13.5-3.44,2.92-6.55,3.94-10.34.09-3.36-3.41-7.5-6.03-11.18-9.14-3.71-3.13-6.55-7.04-9.64-11.57-2.32,4.82-2.31,9.75-3.28,14.35-3.03,14.39-8.3,27.37-20.05,37.01-2.79,2.29-1.54,7.93,1.9,9.14,9.37,3.3,19.15,4.75,28.84,6.73,4.82.98,8.36-1.48,12.57-1.42,6.27.09,12.53.56,18.77.89,10.47.56,20.53-2.94,30.47-6.07,1.91-.6,4.89-.32,5.21-3.6.29-3-.58-5-3.13-7.11-7.8-6.45-11.41-15.64-14.83-24.82-3.1-8.32-4.74-17-5.55-26.9-2.48,3.58-4.47,6.16-6.16,8.92Zm-61.07-54.59c-.9.34-.31,1.86-.12,2.79,3.62,17.72,15.58,30.02,33.26,33.75,23.09,4.88,45.11-11.95,48.76-33.63.58-3.45,1.03-5.3-2.75-6.7-1.86-.69-1.59-3.35-1.1-5,2.33-7.85-2.39-13.55-5.63-19.74-.36-.7-.91-.96-1.58-.92-4.69.3-8.7-1.42-12.4-4.08-.66-.47-1.19-1.01-2.06-.13-5.24,5.33-11.06,3.27-16.99,1.43-3.54-1.09-7.1-2.3-9.78-4.71-3.06-2.75-5.9-2.61-9.4-1.4-4.57,1.58-9.59,2.19-9.17,9.02.17,2.8-1.91,5.19-3.63,7.33-2.85,3.53-4.76,7.22-3.77,10.35.16,5.38,1.53,9.65-3.65,11.63Zm24.68,166.98c1.63-4.54,3.49-9,4.97-13.59.75-2.34,1.97-3.01,4.33-3.02,4.12-.03,8.27.55,12.36-.73,2.46-.76,3.93.41,4.69,3.04,1.42,4.95,3.31,9.77,4.82,14.69.91,2.97,2.03,3.71,5.6,3.31,11.79-1.3,22.73-5.39,33.86-8.96,2.96-.95,4.05-2.22,2.66-5.38-1.13-2.56-1.8-5.37-2.34-8.13-1.38-6.96-3.04-13.23-12.07-13.85-3.23-.22-6.03-3-7.66-5.98-1.72-3.14-3.99-3.19-7.05-2.71-9.74,1.55-19.36,4.9-29.18,4.51-9.42-.37-18.78-2.71-28.12-4.42-2.92-.53-4.81-.29-6.65,2.48-3.1,4.65-8.01,6.89-13.38,7.97-1.73.35-3.09.58-3.68,2.62-1.71,5.91-3.51,11.79-5.48,17.62-.66,1.95-.08,2.66,1.65,3.29,12.04,4.45,24.39,7.7,37.25,9.67,1.96.53,2.82-.7,3.45-2.46Zm-23.05-117.75c.89-7.53,1.39-15.11,2.12-22.66.45-4.67-.46-8.92-4.03-12.16-9-8.16-12.44-19.49-17.26-30.02-4.7-10.29-8.94-20.79-11.7-31.79-.48-1.93-.96-1.56-2.56-1.37-6.87.81-13.16,3.28-19.55,5.68-4.31,1.61-4.6,4.13-3.39,7.91,3.68,11.52,7.93,22.81,13.12,33.75,8.57,18.1,18.92,35.17,29.54,52.09,1.75,2.78,2.65,5.36,2.47,8.77-.39,7.3-.12,14.63-.12,21.95.46.03.92.07,1.38.1,5.23-10.15,8.65-20.9,9.99-32.26ZM138.64,26.65c-10.12-14.31-29.04-21.97-44.51-18.33-13.36,3.14-23.24,10.66-29.13,22.99,24.14-8.68,48.4-10.65,73.64-4.66ZM61.4,317.08c1.17.63,2.75,1.45,1.96,2.87-.76,1.37-1.94-.16-2.97-.45-9.56-2.67-15.78-2.26-17.84,4.48-1.07,3.48-.57,5.6,3.19,6.87,11.93,4.03,18.04,1.37,24.43-9.36,4.52-7.59,6.77-15.33,5.54-24.02-.2-1.43.42-4.52-1.5-3.86-2.39.83-6.23.05-7.07,3.89-.61,2.79,1.48,6.44-1.6,8.29-2.57,1.54-5.87.18-8.84.39-.99.07-2,.02-2.99.06-.93.03-1.59.36-1.52,1.46.06,1.04.72,1.35,1.63,1.45,2.78.33,5.55.67,8.33,1.02,1.2.15,3.15-.51,2.96,1.55-.21,2.34-1.88.79-3.03.73-3.15-.16-6.31-.17-9.47-.26-1.8-.05-2.79.73-2.85,2.72,3.98.19,8,.2,11.64,2.16Zm91.55-4.88c-1.98-.03-3.98.22-5.95.51-1.47.22-3.42,1.04-3.8-.9-.45-2.29,1.8-1.83,3.17-1.87,1.68-.05,3.28-.18,4.65-1.15-.15-1.69-1.4-1.44-2.23-1.43-4.93.08-7.71-1.49-6.87-7.2.47-3.17-3.92-6.85-7.22-6.84-1.4,0-1.39.8-1.68,1.83-3.47,12.6,1.38,23.02,8.72,32.65,4.25,5.57,18.78,6.03,23.39,1.05,1.24-1.33,1.06-2.77.46-4.17-1.25-2.95-2.68-6.22-6.3-6.35-4.19-.15-8.69-1.38-12.53,1.71-.74.6-1.85,1.27-2.55.04-.63-1.1.38-1.81,1.14-2.44,3.63-2.98,8.18-2.27,12.65-2.95-.93-3.51-3.3-2.47-5.08-2.49Zm-19.06-190.13c-.28,14.49,2.98,28.2,8.08,41.57,2.38,6.23,6.24,11.61,10.79,16.47.82.88,1.79,2.19,3.37,1.33,1.3-.71.87-2.03.89-3.14.04-2.29-.35-4.24-1.65-6.46-6.81-11.6-11.16-24.08-12.5-37.6-.66-6.68-2.31-13.26-1.85-20.05.1-1.4-.67-2.45-1.45-3.62-4.76,2.77-5.6,6.64-5.69,11.51Zm-69.57,31.92c-2.14,6.67-4.76,13.07-9.1,18.65-.59.76-1.23,1.76-1.22,2.63.04,2.24-1.16,5.37.94,6.46,1.98,1.03,3.62-1.72,5.01-3.23,8.65-9.38,12.13-21.1,15.13-33.11,1.87-7.49,1.63-15.1,2.22-22.68.45-5.77-2-9.32-7.26-12.74.37,15.54-1.23,29.97-5.72,44Zm-14.23,125.34c-.12,1.76,1.05,2.38,2.73,2.9,6.06,1.89,12.03.86,17.95-.39,2.09-.44,3.89-1.85,3.29-4.63-.14-.63-.06-1.33-.01-1.99.25-3.51,2.81-7.84.1-10.27-2.36-2.12-6.78-1.89-10.26-2.83-3.3-.89-6.73-1.6-9.8-3.04-4.13-1.93-5.44-.78-5.04,3.47.12,1.32.02,2.66.02,4.7-.88,3.65,1.31,7.76,1.02,12.08Zm109.83-5.65c.43-4.26,1.52-9.91-.62-12.57-2.22-2.77-7.14,1.33-10.96,2.03-3.66.68-7.33,1.33-10.98,2.07-2.62.54-4.02,2.02-3.23,4.85.22.78.69,1.5.85,2.28.61,3.01-1.6,7.23,1.13,8.91,3.83,2.35,8.69,2.87,13.35,2.91.33,0,.67,0,1,0,7.91.05,8.43-.3,9.45-10.5Zm-114.27-117.64c-.93,11.47-3.9,22.86-1.71,34.52.85,4.53,2.44,8.61,5.43,12.11.77.9,1.63,1.86,2.94,1.26,1.15-.52.78-1.77.68-2.64-.7-6.49,1.52-13.1-1.61-19.58-1.64-3.4.6-7.47.71-11.22.24-8.64-.09-17.29-.17-25.93-.02-2.25-.67-4.2-2.41-6.14-2.36,5.86-3.39,11.78-3.86,17.62ZM11.5,39.65c.28.35,1.79-.18,2.69-.45,4.48-1.31,8.96-2.62,13.41-4.02,2.35-.74,8.12-10.71,7.34-12.94-.76-2.21-1.96-4.32-4.91-3.97-3.31.38-7.34-1.43-9.56,2.36-1.27,2.17.57,3.39,2.62,3.57,2.14.2,4.3.04,6.68.04-.72,1.94-2.47,2.86-3.77,2.86-3.69,0-6.66.07-6.05,5.13.17,1.41-1.25,1.22-2.09.46-1.15-1.05-.98-2.37-.44-3.67.49-1.17,1.67-2.56,0-3.44-1.07-.56-2.63-.61-3.74.46-3.93,3.8-7.03,1.74-10.47-2.15-.66,7.67,4.71,11.24,8.28,15.75Zm187.34-12.26c-2.93-.21-5.06-3.83-8.27-1.73,0,2.57,2,5.63-2.35,7.84.52-4.92-.4-8.27-6.01-7.33-1.19.2-2.45-.7-2.02-2.14.34-1.14,1.58-.97,2.49-.47,1.55.84,3.1,1.3,4.47-.18.97-1.04,1.28-2.45.65-3.71-.92-1.84-2.81-1.39-4.42-1.45-.66-.02-1.34-.07-1.99.03-2.03.34-5.02-1.22-5.9,1.16-1.04,2.81-1.28,6.07.62,9.04,2.67,4.17,5.78,7.48,11.14,7.81,1.43.09,3.07.39,4.18,1.2,5.03,3.66,7.71.1,10.33-3.26,2.62-3.35,3.83-7.38,4.7-11.67-2.41,2.1-3.63,5.13-7.63,4.85Zm-60.61,2.39c-15.6-4.17-31.28-4.92-47.27-2.09-8.54,1.52-16.94,2.99-24.56,7.41-1.03.6-2.1.96-2.11,2.98,25.76-9.45,51.92-9.38,78.35-3.9-.18-3.18-2.3-3.83-4.42-4.4ZM60.02,204.38c10.18,3.8,20.87,4.89,31.42,6.74,2.31.41,3.96-.45,3.58-3.23-.25-1.88,1.12-4.5-2.55-4.73-12.58-.78-24.87-3.08-36.69-7.61-1.73,4.69-.29,7.15,4.24,8.84Zm91.77-1.07c2.3-.89,3.44-2.13,3.38-4.75-.06-2.59-.45-3.71-3.36-2.51-9.71,4.02-20.04,5.56-30.34,6.94-3.45.46-3.36,1.94-3.44,4.43-.11,3.18,1.8,2.97,3.9,2.78,10.24-1,20.22-3.17,29.86-6.89ZM112.01,52.27c2.05.05,4.4.04,5.63-1.5,2.9-3.63,5.18-3.59,8.37-.23,1.89,1.98,4.82,2.92,7.82,2.73,1.55-.1,3.34-.39,3.81-1.86.62-1.98-1.56-2.3-2.76-2.78-10.02-4-20.39-5.99-31.22-4.94-3.07.3-6.12.73-10.56,1.27,6.69,4.04,12.2,7.15,18.91,7.32Zm-25.13,207.84c.41-2.51-1.8-1.95-3.03-2.18-12.27-2.32-24.38-5.21-36.04-9.77-1.38-.54-2.77-1.48-3.56.81-.73,2.12-.2,3.39,1.97,4.26,8.49,3.42,17.18,6.15,26.17,7.93,3.58.71,7.18,1.3,10.78,1.94,2.47.51,3.39-1.03,3.71-3Zm76.63-5.56c2.07-.81,2.04-2.43,1.44-4.11-.79-2.19-2.31-1.21-3.67-.69-11.8,4.52-23.95,7.7-36.45,9.52-1.23.18-2.84-.1-2.46,2.1.35,2.04,1.38,2.76,5.22,2.81,11.87-1.58,24.06-4.96,35.92-9.63Zm-59.86-52.84c-6.26.1-8.32,3.02-6.49,9.03.57,1.89,1.95,2.08,3.47,2.08,2.98,0,5.98-.26,8.95-.12,3.95.18,5.68-1.21,5.48-5.45-.25-5.65.01-5.66-8.93-5.54-.83,0-1.66-.01-2.49,0Zm-47.98,91.23c6,.24,12.26,1.57,17.59-2.58,1.7-1.32.73-3.43.69-5.16-.03-1.4-1.6-1.25-2.34-1.02-6.51,2.04-13.21.42-20.26,1.19,1.53,2.59-.79,7.36,4.33,7.56Zm82.93-7.62c-1.02-.26-3.15-1.22-3.5,1.25-.26,1.85-.2,3.76,1.73,4.72,2.02,1,4.11,1.95,6.47,1.91,1.82-.03,3.63-.04,5.45,0,4.63.12,9.64.83,8.8-6.9-6.22-.5-12.64.59-18.95-.99ZM62.83,79.28c.18.99.49,2.03,1.81,1.91,1.36-.13,1.28-1.26,1.35-2.24.02-.33.07-.67.01-.99-1.22-7.49,1.17-13.93,5.73-19.74,1.08-1.37,2.15-3.14.82-4.43-1.6-1.55-2.93.5-4.16,1.4-4.06,2.94-8.38,5.76-7.71,11.92.71,4.06,1.41,8.13,2.15,12.18Zm79.92,130.08c-2.17.67-1.44,1.71-.58,2.88,2.9,3.95,6.86,6.04,11.66,6.66,1.86.24,2.35-.63,1.97-2.34-.77-3.52-1.48-7.06-2.25-10.77-3.61,1.2-7.18,2.46-10.8,3.57Zm-10.47,112.45c1.51,2.16,2.81,4.48,4.06,6.81,5.16,9.59,18.58,13.05,27.6,7.05.96-.64,1.92-1.35,1.76-3.57-17.34,8.32-27.39.35-33.78-16.7-1.3,3.23-.78,4.77.36,6.4Zm-72.95,16.26c7.57-1.07,15.79-11.62,16.87-22.73-6.13,16.23-15.73,25.51-34.29,16.63,1.98,4.89,9.77,7.18,17.42,6.1Zm-3.36-119.03c1.44-.31,2.92-.65,4.22-1.3,3.25-1.62,7.76-3.75,6.99-7.16-.45-2.01-6.08-2.91-9.44-4.16-1.34-.5-1.28.82-1.76,1.64-1.67,2.84-.06,6.3-1.8,8.44-.35,2.11.3,2.86,1.79,2.54ZM144.87,54.8c-1.28-1.01-2.57-3.41-4.39-1.97-1.83,1.45-1.83,4.17-.17,5.82,5.68,5.66,6.6,12.59,5.97,20.11,3.7-9.01,4.23-19.51-1.41-23.96Zm12.22,247.83c.8-1.71,1.25-4.03.77-5.78-.83-3.07-3.24-.12-4.94-.65-1.2-.37-2.62-.05-3.94-.04-4.44,0-6.31,2.22-4.85,6.37,1.17,3.32,4.31.79,6.33,1.77,2.23-.83,5.24,1.27,6.62-1.66Zm-93.1-4.47c-.16-.6-.47-1.6-.82-1.65-3.92-.55-7.85-1.01-11.79-1.35-.89-.08-.83.72-.5,1.39,1.03,2.07-1.44,5.08,1.79,6.59,2.01.94,4.11,1.14,5.86.98,5.74-.02,6.75-1.2,5.45-5.96Zm85-210.35c-.1.72.13,1.83.63,2.21.96.72,1.92-.16,2.63-.77,4.94-4.26,4.77-12.82-.74-18.3-.91,5.98-1.78,11.42-2.53,16.86Zm-90.14-15.06c-6.13,4.83-4.64,14.43,3.13,19.51-1.06-6.62-2.09-13.02-3.13-19.51ZM10.77,13.47c1.29,2.44,2.21,5.08,3.31,7.62.61,1.41,1.28,2.99,3.15,1.51,2.54-2.03.86-12.13-2.16-13.28-.43-.17-.99-.02-1.48-.02-2.89.05-4.6.79-2.81,4.17Zm180.38,7.2c.12,1.32,1.1,1.53,2.09,1.63.86.09,1.43-.18,1.71-1.24.96-3.59,1.52-7.37,4.63-10.02.76-.64.32-1.37-.68-1.8-2.03-.87-4.09-1.89-5.79.38-1.59,2.11-1.89,4.78-2.49,6.75.21,1.74.4,3.02.52,4.3ZM8.74,14.93c-.8-1.73-2.24-2.49-4.03-1.46-1.65.95-2.14,2.61-1.42,4.28.85,1.95,2.05,3.74,3.12,5.59.79,1.38,1.84,2.46,3.58,1.81,1.7-.64,1.06-2.15.99-3.91.48-2.17-1.23-4.14-2.23-6.31Zm190.86,9.99c1.99.59,2.03-1.72,2.97-2.68.66-.68.96-1.7,1.58-2.41,2.14-2.44,3.18-5.25-.28-6.88-3.15-1.49-3.88,1.96-4.96,3.98-.6,1.13-.83,2.47-1.05,3.16.26,2.18-.29,4.23,1.73,4.83ZM24.19,16.23c1.77.03,3.32-.85,2.74-2.51-1-2.84-.73-6.83-4.9-7.54-1.7-.29-3.15.63-3.79,2.26-.11,2.16,4.28,7.75,5.95,7.78Zm161.46-1.03c1.34-.01,5.63-5.98,5.2-7.44-.47-1.59-1.92-1.55-3.26-1.51-2.25.06-4.74,3.86-4.55,7.02-.15,1.93,1.22,1.95,2.6,1.93Zm-28.88,293.27c.56-.53.37-1.79-.52-2.05-1.86-.56-3.48-.04-4.8,2.15,2.1.94,3.85,1.29,5.33-.1Z"/>
      <path class="cls-8" d="m110.85,287.69c0-5,.04-10-.03-14.99-.01-.95.79-2.56-1.3-2.5-1.44.04-1.4,1.12-1.4,2.12,0,10.5,0,20.99.02,31.49,0,.95-.13,2.28,1.18,2.36,1.69.11,1.56-1.35,1.56-2.49.01-5.33,0-10.66,0-15.99h-.04Z"/>
      <path class="cls-8" d="m101.9,298.12c.96-5.12.37-10.34.41-15.52,0-.61-.2-1.34-1.07-1.37-.82-.04-1.23.49-1.23,1.21-.03,5.22-.01,10.44-.01,15.66.64,0,1.27.02,1.91.02Z"/>
      <path class="cls-7" d="m158.29,203.48c4.6-3.52,5.96-8.74,6.53-13.98.29-2.64.48-5.29.57-7.95.15-4.19.07-8.39-.24-12.57s-.83-8.36-1.55-12.49c-.36-2.07-.88-4.12-1.23-6.19-.11-.63.22-1.16.16-1.77-.02-.21-.09-.39-.15-.58-.07-.22-.04-.4-.07-.62-.06-.49-.3-.95-.38-1.43-.04-.25-.08-.46-.16-.71-.1-.3-.11-.6-.23-.91-.14-.37-.21-.76-.24-1.15-.03-.36.04-.77-.04-1.12-.06-.24-.25-.42-.36-.64-.49-.91-.74-2.27-2.11-1.78-1.98.71-1.8,2.99-1.7,4.77.55,10.22-1.03,20.6,2.07,30.65.05.16.08.34.05.49-2.03,8.99-1,18.17-1.79,27.24.29.25.58.49.88.74Z"/>
      <path class="cls-4" d="m71.7,63.75c1.72-2.14,3.8-4.53,3.63-7.33-.42-6.83,4.6-7.45,9.17-9.02,3.51-1.21,6.34-1.35,9.4,1.4,2.68,2.41,6.24,3.61,9.78,4.71,5.93,1.83,11.75,3.9,16.99-1.43.86-.88,1.4-.34,2.06.13,3.71,2.65,7.72,4.37,12.4,4.08.67-.04,1.21.22,1.58.92,3.24,6.18,7.96,11.89,5.63,19.74-.49,1.65-.75,4.32,1.1,5,3.77,1.4,3.33,3.25,2.75,6.7-3.64,21.68-25.67,38.51-48.76,33.63-17.68-3.74-29.64-16.03-33.26-33.75-.19-.94-.78-2.45.12-2.79,5.18-1.99,3.81-6.25,3.65-11.63-.99-3.13.92-6.82,3.77-10.35Zm20.67,22.42c-3.79-.13-4.62,2.13-4.23,5.11.77,5.88,4.17,9.57,9.66,11.9,10.19,4.33,20.76.74,25.28-9,2.39-5.16.42-8.29-5.35-8.38-4.15-.06-12.45.26-12.45.4-4.3,0-8.61.11-12.91-.03Zm-4.33-8.2c2.35-.1,4.13-2.32,3.89-4.79-.24-2.49-.89-5.68-4.09-5.76-3.09-.08-3.68,2.71-3.82,5.37.3,2.54.95,5.31,4.02,5.18Zm36.88-.69c2.85-.25,4.11-2.68,4.05-5.26-.05-2.34-1.18-4.73-3.93-4.75-3.89-.02-2.82,3.2-2.99,4.93-.11,2.77-.32,5.36,2.87,5.08Zm-13.65,3.26c1.69-2.59.8-5.17-.91-7.34-1.62-2.06-.89-4.76-2.37-7.51-1.48,2.68-1.78,5.43-.69,7.17,2.88,4.59,2.97,7.47-3.61,8.54,2.97.61,5.73,1.99,7.58-.85Zm-28.74-16.44c3.01-2.19,5.9-2.75,9.03-.3.76.59,1.58.09,2.1-.63.45-.62.17-1.18-.24-1.77-2.28-3.25-11.07-2.7-12.91.83-.15.28-.2.61-.31.95.35,1.37,1.71,1.35,2.32.91Zm39.36-4.54c-1.29.52-3.3,1.2-2.64,2.94.62,1.61,2.15.23,3.34,0,1.9-.38,3.88-.65,5.76.21,1.07.49,2.33,2.14,3.16.12.77-1.86-1.17-2.5-2.41-3.04-1.15-.5-2.52-.49-3.61-.68-1.36.15-2.58.04-3.6.45Z"/>
      <path class="cls-7" d="m85.52,255.17c1.96.53,2.82-.7,3.45-2.46,1.63-4.54,3.49-9,4.97-13.59.75-2.34,1.97-3.01,4.33-3.02,4.12-.03,8.27.55,12.36-.73,2.46-.76,3.93.41,4.69,3.04,1.42,4.95,3.31,9.77,4.82,14.69.91,2.97,2.03,3.71,5.6,3.31,11.79-1.3,22.73-5.39,33.86-8.96,2.96-.95,4.05-2.22,2.66-5.38-1.13-2.56-1.8-5.37-2.34-8.13-1.38-6.96-3.04-13.23-12.07-13.85-3.23-.22-6.03-3-7.66-5.98-1.72-3.14-3.99-3.19-7.05-2.71-9.74,1.55-19.36,4.9-29.18,4.51-9.42-.37-18.78-2.71-28.12-4.42-2.92-.53-4.81-.29-6.65,2.48-3.1,4.65-8.01,6.89-13.38,7.97-1.73.35-3.09.58-3.68,2.62-1.71,5.91-3.51,11.79-5.48,17.62-.66,1.95-.08,2.66,1.65,3.29,12.04,4.45,24.39,7.7,37.25,9.67Z"/>
      <path class="cls-1" d="m65,31.31c24.14-8.68,48.4-10.65,73.64-4.66-10.12-14.31-29.04-21.97-44.51-18.33-13.36,3.14-23.24,10.66-29.13,22.99Z"/>
      <path class="cls-7" d="m49.76,314.92c3.98.19,8,.2,11.64,2.16,1.17.63,2.75,1.45,1.96,2.87-.76,1.37-1.94-.16-2.97-.45-9.56-2.67-15.78-2.26-17.84,4.48-1.07,3.48-.57,5.6,3.19,6.87,11.93,4.03,18.04,1.37,24.43-9.36,4.52-7.59,6.77-15.33,5.54-24.02-.2-1.43.42-4.52-1.5-3.86-2.39.83-6.23.05-7.07,3.89-.61,2.79,1.48,6.44-1.6,8.29-2.57,1.54-5.87.18-8.84.39-.99.07-2,.02-2.99.06-.93.03-1.59.36-1.52,1.46.06,1.04.72,1.35,1.63,1.45,2.78.33,5.55.67,8.33,1.02,1.2.15,3.15-.51,2.96,1.55-.21,2.34-1.88.79-3.03.73-3.15-.16-6.31-.17-9.47-.26-1.8-.05-2.79.73-2.85,2.72Z"/>
      <path class="cls-7" d="m158.03,314.69c-.93-3.51-3.3-2.47-5.08-2.49-1.98-.03-3.98.22-5.95.51-1.47.22-3.42,1.04-3.8-.9-.45-2.29,1.8-1.83,3.17-1.87,1.68-.05,3.28-.18,4.65-1.15-.15-1.69-1.4-1.44-2.23-1.43-4.93.08-7.71-1.49-6.87-7.2.47-3.17-3.92-6.85-7.22-6.84-1.4,0-1.39.8-1.68,1.83-3.47,12.6,1.38,23.02,8.72,32.65,4.25,5.57,18.78,6.03,23.39,1.05,1.24-1.33,1.06-2.77.46-4.17-1.25-2.95-2.68-6.22-6.3-6.35-4.19-.15-8.69-1.38-12.53,1.71-.74.6-1.85,1.27-2.55.04-.63-1.1.38-1.81,1.14-2.44,3.63-2.98,8.18-2.27,12.65-2.95Z"/>
      <path class="cls-7" d="m121.96,42.07c8.13,1.12,15.72,3.75,22.37,8.61,4.74,3.47,8.07,7.99,7.65,14.21-.25,3.73,3.21,4.67,4.59,7.79,3.94-7.22,6.58-14.36,9.3-21.46,1.02-2.67-1.08-3.61-2.68-4.61-9.37-5.9-19.6-9.65-30.48-11.44-2.52-.41-5.04-1.88-7.75-.81.19,3.03-3.81,4.43-3.01,7.7Z"/>
      <path class="cls-7" d="m139.58,110.55c-4.76,2.77-5.6,6.64-5.69,11.51-.28,14.49,2.98,28.2,8.08,41.57,2.38,6.23,6.24,11.61,10.79,16.47.82.88,1.79,2.19,3.37,1.33,1.3-.71.87-2.03.89-3.14.04-2.29-.35-4.24-1.65-6.46-6.81-11.6-11.16-24.08-12.5-37.6-.66-6.68-2.31-13.26-1.85-20.05.1-1.4-.67-2.45-1.45-3.62Z"/>
      <path class="cls-7" d="m70.04,109.98c.37,15.54-1.23,29.97-5.72,44-2.14,6.67-4.76,13.07-9.1,18.65-.59.76-1.23,1.76-1.22,2.63.04,2.24-1.16,5.37.94,6.46,1.98,1.03,3.62-1.72,5.01-3.23,8.65-9.38,12.13-21.1,15.13-33.11,1.87-7.49,1.63-15.1,2.22-22.68.45-5.77-2-9.32-7.26-12.74Z"/>
      <path class="cls-4" d="m49.07,267.25c-.88,3.65,1.31,7.76,1.02,12.08-.12,1.76,1.05,2.38,2.73,2.9,6.06,1.89,12.03.86,17.95-.39,2.09-.44,3.89-1.85,3.29-4.63-.14-.63-.06-1.33-.01-1.99.25-3.51,2.81-7.84.1-10.27-2.36-2.12-6.78-1.89-10.26-2.83-3.3-.89-6.73-1.6-9.8-3.04-4.13-1.93-5.44-.78-5.04,3.47.12,1.32.02,2.66.02,4.7Z"/>
      <path class="cls-4" d="m150.46,284.18c7.91.04,8.43-.31,9.45-10.5.43-4.26,1.52-9.91-.62-12.57-2.22-2.77-7.14,1.33-10.96,2.03-3.66.68-7.33,1.33-10.98,2.07-2.62.54-4.02,2.02-3.23,4.85.22.78.69,1.5.85,2.28.61,3.01-1.6,7.23,1.13,8.91,3.83,2.35,8.69,2.87,13.35,2.91.33,0,.67,0,1,0Z"/>
      <path class="cls-7" d="m121.96,42.07c-.8-3.27,3.2-4.67,3.01-7.7-12.9-2.31-25.76-.9-38.53.83-7.41,1.01-14.62,3.3-21.66,5.96,2.85,2.47,5.71,4.95,8.56,7.42,12.41-5.32,25.31-8.19,38.87-7.78,3.29.1,6.58.2,9.75,1.26Z"/>
      <path class="cls-7" d="m73.35,48.58c-2.85-2.47-5.71-4.95-8.56-7.42-7.5,2-13.77,6.26-19.93,10.74-1.65,1.2-1.69,2.47-.95,4.28,2.54,6.29,4.98,12.61,8.4,19.06,2.87-3.7,6.27-6.28,6.23-11.67-.04-4.75,4.21-7.65,7.81-10.36,2.24-1.68,4.66-3.1,7.01-4.63Z"/>
      <path class="cls-7" d="m49.51,138.42c-2.36,5.86-3.39,11.78-3.86,17.62-.93,11.47-3.9,22.86-1.71,34.52.85,4.53,2.44,8.61,5.43,12.11.77.9,1.63,1.86,2.94,1.26,1.15-.52.78-1.77.68-2.64-.7-6.49,1.52-13.1-1.61-19.58-1.64-3.4.6-7.47.71-11.22.24-8.64-.09-17.29-.17-25.93-.02-2.25-.67-4.2-2.41-6.14Z"/>
      <path class="cls-4" d="m3.22,23.9c-.66,7.67,4.71,11.24,8.28,15.75.28.35,1.79-.18,2.69-.45,4.48-1.31,8.96-2.62,13.41-4.02,2.35-.74,8.12-10.71,7.34-12.94-.76-2.21-1.96-4.32-4.91-3.97-3.31.38-7.34-1.43-9.56,2.36-1.27,2.17.57,3.39,2.62,3.57,2.14.2,4.3.04,6.68.04-.72,1.94-2.47,2.86-3.77,2.86-3.69,0-6.66.07-6.05,5.13.17,1.41-1.25,1.22-2.09.46-1.15-1.05-.98-2.37-.44-3.67.49-1.17,1.67-2.56,0-3.44-1.07-.56-2.63-.61-3.74.46-3.93,3.8-7.03,1.74-10.47-2.15Z"/>
      <path class="cls-4" d="m206.47,22.54c-2.41,2.1-3.63,5.13-7.63,4.85-2.93-.21-5.06-3.83-8.27-1.73,0,2.57,2,5.63-2.35,7.84.52-4.92-.4-8.27-6.01-7.33-1.19.2-2.45-.7-2.02-2.14.34-1.14,1.58-.97,2.49-.47,1.55.84,3.1,1.3,4.47-.18.97-1.04,1.28-2.45.65-3.71-.92-1.84-2.81-1.39-4.42-1.45-.66-.02-1.34-.07-1.99.03-2.03.34-5.02-1.22-5.9,1.16-1.04,2.81-1.28,6.07.62,9.04,2.67,4.17,5.78,7.48,11.14,7.81,1.43.09,3.07.39,4.18,1.2,5.03,3.66,7.71.1,10.33-3.26,2.62-3.35,3.83-7.38,4.7-11.67Z"/>
      <path class="cls-9" d="m142.66,34.19c-.18-3.18-2.3-3.83-4.42-4.4-15.6-4.17-31.28-4.92-47.27-2.09-8.54,1.52-16.94,2.99-24.56,7.41-1.03.6-2.1.96-2.11,2.98,25.76-9.45,51.92-9.38,78.35-3.9Z"/>
      <path class="cls-10" d="m55.78,195.54c-1.73,4.69-.29,7.15,4.24,8.84,10.18,3.8,20.87,4.89,31.42,6.74,2.31.41,3.96-.45,3.58-3.23-.25-1.88,1.12-4.5-2.55-4.73-12.58-.78-24.87-3.08-36.69-7.61Z"/>
      <path class="cls-10" d="m121.93,210.2c10.24-1,20.22-3.17,29.86-6.89,2.3-.89,3.44-2.13,3.38-4.75-.06-2.59-.45-3.71-3.36-2.51-9.71,4.02-20.04,5.56-30.34,6.94-3.45.46-3.36,1.94-3.44,4.43-.11,3.18,1.8,2.97,3.9,2.78Z"/>
      <path class="cls-9" d="m93.09,44.95c6.69,4.04,12.2,7.15,18.91,7.32,2.05.05,4.4.04,5.63-1.5,2.9-3.63,5.18-3.59,8.37-.23,1.89,1.98,4.82,2.92,7.82,2.73,1.55-.1,3.34-.39,3.81-1.86.62-1.98-1.56-2.3-2.76-2.78-10.02-4-20.39-5.99-31.22-4.94-3.07.3-6.12.73-10.56,1.27Z"/>
      <path class="cls-7" d="m83.16,263.11c2.47.51,3.39-1.03,3.71-3,.41-2.51-1.8-1.95-3.03-2.18-12.27-2.32-24.38-5.21-36.04-9.77-1.38-.54-2.77-1.48-3.56.81-.73,2.12-.2,3.39,1.97,4.26,8.49,3.42,17.18,6.15,26.17,7.93,3.58.71,7.18,1.3,10.78,1.94Z"/>
      <path class="cls-7" d="m127.58,264.19c11.87-1.58,24.06-4.96,35.92-9.63,2.07-.81,2.04-2.43,1.44-4.11-.79-2.19-2.31-1.21-3.67-.69-11.8,4.52-23.95,7.7-36.45,9.52-1.23.18-2.84-.1-2.46,2.1.35,2.04,1.38,2.76,5.22,2.81Z"/>
      <path class="cls-4" d="m106.13,201.71c-.83,0-1.66-.01-2.49,0-6.26.1-8.32,3.02-6.49,9.03.57,1.89,1.95,2.08,3.47,2.08,2.98,0,5.98-.26,8.95-.12,3.95.18,5.68-1.21,5.48-5.45-.25-5.65.01-5.66-8.93-5.54Z"/>
      <path class="cls-2" d="m51.33,285.38c1.53,2.59-.79,7.36,4.33,7.56,6,.24,12.26,1.57,17.59-2.58,1.7-1.32.73-3.43.69-5.16-.03-1.4-1.6-1.25-2.34-1.02-6.51,2.04-13.21.42-20.26,1.19Z"/>
      <path class="cls-2" d="m157.54,286.32c-6.22-.5-12.64.59-18.95-.99-1.02-.26-3.15-1.22-3.5,1.25-.26,1.85-.2,3.76,1.73,4.72,2.02,1,4.11,1.95,6.47,1.91,1.82-.03,3.63-.04,5.45,0,4.63.12,9.64.83,8.8-6.9Z"/>
      <path class="cls-10" d="m60.67,67.1c.71,4.06,1.41,8.13,2.15,12.18.18.99.49,2.03,1.81,1.91,1.36-.13,1.28-1.26,1.35-2.24.02-.33.07-.67.01-.99-1.22-7.49,1.17-13.93,5.73-19.74,1.08-1.37,2.15-3.14.82-4.43-1.6-1.55-2.93.5-4.16,1.4-4.06,2.94-8.38,5.76-7.71,11.92Z"/>
      <path class="cls-7" d="m153.54,205.79c-3.61,1.2-7.18,2.46-10.8,3.57-2.17.67-1.44,1.71-.58,2.88,2.9,3.95,6.86,6.04,11.66,6.66,1.86.24,2.35-.63,1.97-2.34-.77-3.52-1.48-7.06-2.25-10.77Z"/>
      <path class="cls-10" d="m131.92,315.4c-1.3,3.23-.78,4.77.36,6.4,1.51,2.16,2.81,4.48,4.06,6.81,5.16,9.59,18.58,13.05,27.6,7.05.96-.64,1.92-1.35,1.76-3.57-17.34,8.32-27.39.35-33.78-16.7Z"/>
      <path class="cls-10" d="m41.91,331.96c1.98,4.89,9.77,7.18,17.42,6.1,7.57-1.07,15.79-11.62,16.87-22.73-6.13,16.23-15.73,25.51-34.29,16.63Z"/>
      <path class="cls-7" d="m54.17,216.49c-.35,2.11.3,2.86,1.79,2.54,1.44-.31,2.92-.65,4.22-1.3,3.25-1.62,7.76-3.75,6.99-7.16-.45-2.01-6.08-2.91-9.44-4.16-1.34-.5-1.28.82-1.76,1.64-1.67,2.84-.06,6.3-1.8,8.44Z"/>
      <path class="cls-10" d="m146.28,78.76c3.7-9.01,4.23-19.51-1.41-23.96-1.28-1.01-2.57-3.41-4.39-1.97-1.83,1.45-1.83,4.17-.17,5.82,5.68,5.66,6.6,12.59,5.97,20.11Z"/>
      <path class="cls-7" d="m150.48,304.29c2.23-.83,5.24,1.27,6.62-1.66.8-1.71,1.25-4.03.77-5.78-.83-3.07-3.24-.12-4.94-.65-1.2-.37-2.62-.05-3.94-.04-4.44,0-6.31,2.22-4.85,6.37,1.17,3.32,4.31.79,6.33,1.77Z"/>
      <path class="cls-7" d="m58.55,304.13c5.74-.02,6.75-1.2,5.45-5.96-.16-.6-.47-1.6-.82-1.65-3.92-.55-7.85-1.01-11.79-1.35-.89-.08-.83.72-.5,1.39,1.03,2.07-1.44,5.08,1.79,6.59,2.01.94,4.11,1.14,5.86.98Z"/>
      <path class="cls-4" d="m151.52,70.96c-.91,5.98-1.78,11.42-2.53,16.86-.1.72.13,1.83.63,2.21.96.72,1.92-.16,2.63-.77,4.94-4.26,4.77-12.82-.74-18.3Z"/>
      <path class="cls-4" d="m61.98,92.27c-1.06-6.62-2.09-13.02-3.13-19.51-6.13,4.83-4.64,14.43,3.13,19.51Z"/>
      <path class="cls-4" d="m13.59,9.3c-2.89.05-4.6.79-2.81,4.17,1.29,2.44,2.21,5.08,3.31,7.62.61,1.41,1.28,2.99,3.15,1.51,2.54-2.03.86-12.13-2.16-13.28-.43-.17-.99-.02-1.48-.02Z"/>
      <path class="cls-4" d="m190.63,16.37c.21,1.74.4,3.02.52,4.3.12,1.32,1.1,1.53,2.09,1.63.86.09,1.43-.18,1.71-1.24.96-3.59,1.52-7.37,4.63-10.02.76-.64.32-1.37-.68-1.8-2.03-.87-4.09-1.89-5.79.38-1.59,2.11-1.89,4.78-2.49,6.75Z"/>
      <path class="cls-4" d="m10.97,21.24c.48-2.17-1.23-4.14-2.23-6.31-.8-1.73-2.24-2.49-4.03-1.46-1.65.95-2.14,2.61-1.42,4.28.85,1.95,2.05,3.74,3.12,5.59.79,1.38,1.84,2.46,3.58,1.81,1.7-.64,1.06-2.15.99-3.91Z"/>
      <path class="cls-4" d="m197.86,20.09c.26,2.18-.29,4.23,1.73,4.83,1.99.59,2.03-1.72,2.97-2.68.66-.68.96-1.7,1.58-2.41,2.14-2.44,3.18-5.25-.28-6.88-3.15-1.49-3.88,1.96-4.96,3.98-.6,1.13-.83,2.47-1.05,3.16Z"/>
      <path class="cls-4" d="m18.24,8.45c-.11,2.16,4.28,7.75,5.95,7.78,1.77.03,3.32-.85,2.74-2.51-1-2.84-.73-6.83-4.9-7.54-1.7-.29-3.15.63-3.79,2.26Z"/>
      <path class="cls-4" d="m183.04,13.26c-.15,1.93,1.22,1.95,2.6,1.93,1.34-.01,5.63-5.98,5.2-7.44-.47-1.59-1.92-1.55-3.26-1.51-2.25.06-4.74,3.86-4.55,7.02Z"/>
      <path class="cls-9" d="m151.44,308.56c2.1.94,3.85,1.29,5.33-.1.56-.53.37-1.79-.52-2.05-1.86-.56-3.48-.04-4.8,2.15Z"/>
      <path class="cls-10" d="m154.83,163.37c-.5-.04-1-.08-1.51-.12.19.72.42,1.44,1.36,1.35.09,0,.1-.8.15-1.23Z"/>
      <path class="cls-6" d="m121.01,123.18c.18-.1.36-.19.54-.29-.1-.01-.23-.06-.28-.02-.1.09-.15.24-.22.36,0,0-.04-.05-.04-.05Z"/>
      <path class="cls-7" d="m157.42,202.74l-.17,1.17c.35-.14.7-.29,1.05-.43-.29-.25-.58-.49-.88-.74Z"/>
      <path class="cls-8" d="m117.73,85.81c5.77.08,7.75,3.22,5.35,8.38-4.52,9.74-15.09,13.33-25.28,9-5.5-2.34-8.9-6.02-9.66-11.9-.39-2.98.44-5.24,4.23-5.11,4.3.15,8.61.03,12.91.03,0-.14,8.3-.46,12.45-.4Zm-23.59,2.43c-.34-.01-.66-.08-1.01-.08-.31,0-.61,0-.91-.04-.78-.08-1.07.86-1.08,1.48-.03,1.56,1.38,1.36,2.52,1.64,7.83,1.94,15.77.47,23.64.95.84.05,1.59-.27,2.21-.84.29-.27.64-.58.77-.96.14-.4.44-.71.8-.94.22-.14.3-.22.44-.44.09-.15.23-.34.26-.51.02-.12.03-.11-.07-.17.02.01-.19-.06-.19-.06-.18-.04-.39-.13-.58-.11s-.3.09-.51.09c-.4,0-.83-.08-1.23.01-.19.05-.36.08-.55.08-.24,0-.46-.08-.69-.1-.14,0-.29,0-.43,0h-2.77c-.19,0-.4.02-.59,0-.21-.01-.41-.08-.63-.09-.23,0-.45-.08-.68-.09-.26,0-.53,0-.79,0-.49,0-.98,0-1.47,0-.24,0-.23.06-.4.16-.15.08-.39.01-.56.01h-.85c-.47,0-.95.04-1.41,0-.22-.02-.41-.09-.64-.09s-.45,0-.68,0c-.28,0-.52-.09-.81-.09s-.59,0-.88,0h-3.77c-.64,0-1.32-.06-1.94.07-.25.05-.52.02-.78.02-.22,0-.39.04-.61.08-.55.09-1.19,0-1.76,0-.42,0-.84,0-1.27,0-.04,0-.08,0-.12,0Zm19.65,11.94c-4.07-4.94-11.98-5.67-19.16-1.4,6.6,3.59,12.66,4.99,19.16,1.4Z"/>
      <path class="cls-8" d="m84.02,72.79c.3,2.54.95,5.31,4.02,5.18,2.35-.1,4.13-2.32,3.89-4.79-.24-2.49-.89-5.68-4.09-5.76-3.09-.08-3.68,2.71-3.82,5.37Z"/>
      <path class="cls-8" d="m122.04,72.2c-.11,2.77-.32,5.36,2.87,5.08,2.85-.25,4.11-2.68,4.05-5.26-.05-2.34-1.18-4.73-3.93-4.75-3.89-.02-2.82,3.2-2.99,4.93Z"/>
      <path class="cls-8" d="m103.68,81.39c2.97.61,5.73,1.99,7.58-.85,1.69-2.59.8-5.17-.91-7.34-1.62-2.06-.89-4.76-2.37-7.51-1.48,2.68-1.78,5.43-.69,7.17,2.88,4.59,2.97,7.47-3.61,8.54Z"/>
      <path class="cls-8" d="m80.2,63.19c.35,1.37,1.71,1.35,2.32.91,3.01-2.19,5.9-2.75,9.03-.3.76.59,1.58.09,2.1-.63.45-.62.17-1.18-.24-1.77-2.28-3.25-11.07-2.7-12.91.83-.15.28-.2.61-.31.95Z"/>
      <path class="cls-8" d="m125.48,59.11c-1.36.15-2.58.04-3.6.45-1.29.52-3.3,1.2-2.64,2.94.62,1.61,2.15.23,3.34,0,1.9-.38,3.88-.65,5.76.21,1.07.49,2.33,2.14,3.16.12.77-1.86-1.17-2.5-2.41-3.04-1.15-.5-2.52-.49-3.61-.68Z"/>
      <path class="cls-8" d="m106.28,140.8c4.37,1.45,7.65-.6,10.91-2.66.76-.48,1.06-1.36.58-2.15-.51-.85-1.31-.71-2.13-.26-3.11,1.71-6.23,3.39-9.35,5.08Z"/>
      <path class="cls-6" d="m94.63,98.78c6.6,3.59,12.66,4.99,19.16,1.4-4.07-4.94-11.98-5.67-19.16-1.4Z"/>
      <path class="cls-5" d="m131.52,131.4c-2.48,3.58-4.47,6.16-6.16,8.92-3.43,5.64-8.72,9.35-13.6,13.5-3.44,2.92-6.55,3.94-10.34.09-3.36-3.41-7.5-6.03-11.18-9.14-3.71-3.13-6.55-7.04-9.64-11.57-2.32,4.82-2.31,9.75-3.28,14.35-3.03,14.39-8.3,27.37-20.05,37.01-2.79,2.29-1.54,7.93,1.9,9.14,9.37,3.3,19.15,4.75,28.84,6.73,4.82.98,8.36-1.48,12.57-1.42,6.27.09,12.53.56,18.77.89,10.47.56,20.53-2.94,30.47-6.07,1.91-.6,4.89-.32,5.21-3.6.29-3-.58-5-3.13-7.11-7.8-6.45-11.41-15.64-14.83-24.82-3.1-8.32-4.74-17-5.55-26.9Z"/>
      <path class="cls-5" d="m55.93,167.23c5.23-10.15,8.65-20.9,9.99-32.26.89-7.53,1.39-15.11,2.12-22.66.45-4.67-.46-8.92-4.03-12.16-9-8.16-12.44-19.49-17.26-30.02-4.7-10.29-8.94-20.79-11.7-31.79-.48-1.93-.96-1.56-2.56-1.37-6.87.81-13.16,3.28-19.55,5.68-4.31,1.61-4.6,4.13-3.39,7.91,3.68,11.52,7.93,22.81,13.12,33.75,8.57,18.1,18.92,35.17,29.54,52.09,1.75,2.78,2.65,5.36,2.47,8.77-.39,7.3-.12,14.63-.12,21.95.46.03.92.07,1.38.1Z"/>
      <path class="cls-5" d="m154.83,163.37c.59-7.25-1.08-14.47-.12-21.77.24-1.81.97-3.02,1.74-4.3,12.98-21.64,25.72-43.4,34.99-66.97,3.01-7.66,5.97-15.33,7.95-23.36.53-2.16-.19-2.9-1.86-3.83-6.77-3.77-14.27-5.14-21.69-6.8-2.07-.46-2.46.95-2.95,2.48-3.96,12.36-8.59,24.46-14.14,36.19-.61,1.28-.67,2.52-.68,3.86-.04,7.04-2.83,12.14-9.2,15.89-4.15,2.45-6.7,7.97-6.28,12.26,1.44,14.6,1.68,29.45,6.34,43.59,1.4,4.24,2.93,8.43,4.39,12.64.5.04,1,.08,1.51.12Z"/>
      <path class="cls-3" d="m121.01,123.18c.16,2.29-2.13,2.69-3.12,4.08-1.26,1.78-5.78,2.42-4.2,4.3,1.79,2.13,4.57-1.15,6.57-2.63,2.42-1.79,4.08-4.33,5.53-6.99.93-1.71,2.45-3.15,4.38-2.48,1.69.58.68,2.6.84,3.98.1.8.08,1.74-.26,2.45-5.05,10.76-12.26,19.7-22.35,26.16-1.42.91-2.72,1.69-4.49.32-7.23-5.62-14.53-11.16-19.81-18.81-2.49-3.6-4.31-7.42-4.13-12.03.1-2.7,1.06-2.76,3-1.63,1.38.81,1.95,2.21,2.66,3.52,2.9,5.35,7.48,8.81,12.9,11.27,1.11.5,2.71,1.45,3.31-.33.47-1.4-1.24-1.68-2.25-2.14-4.17-1.91-7.99-4.21-10.67-8.86,6.17,1,11.41,3.21,17.12,2.91,5.17-.28,9.93-2.45,15.02-3.03l-.04-.05Zm-3.82,14.95c.76-.48,1.06-1.36.58-2.15-.51-.85-1.31-.71-2.13-.26-3.11,1.71-6.23,3.39-9.35,5.08,4.37,1.45,7.65-.6,10.91-2.66Z"/>
      <path class="cls-1" d="m95.95,5.38c-.09-.48.62-1.23.97-1.48.42-.31.94-.42,1.41-.63s.99-.23,1.5-.18.52.39.7.79c.14.32.32.81.09,1.14-.35.5-1.47.7-2.02.7-.47,0-2.68.31-2.46-.53"/>
    </g>
  </g>
</svg>