<?xml version="1.0" encoding="UTF-8"?>
<svg id="Layer_2" data-name="Layer 2" xmlns="http://www.w3.org/2000/svg" viewBox="0 0 185.46 339.37">
  <defs>
    <style>
      .cls-1 {
        fill: #e8c086;
      }

      .cls-2 {
        fill: #fcfcfc;
      }

      .cls-3 {
        fill: #ffa34e;
      }

      .cls-4 {
        fill: #f3c49f;
      }

      .cls-5 {
        fill: #fdfdfd;
      }

      .cls-6 {
        fill: #6998b8;
      }

      .cls-7 {
        fill: #a9825e;
      }

      .cls-8 {
        fill: #0f0e0e;
      }

      .cls-9 {
        fill: #886a4e;
      }

      .cls-10 {
        fill: #7b5e49;
      }
    </style>
  </defs>
  <g id="Layer_1-2" data-name="Layer 1">
    <g>
      <ellipse class="cls-2" cx="117.83" cy="222.97" rx="11.5" ry="12"/>
      <path class="cls-8" d="m30.49,233.91c-1.85,5.62-5.12,9.57-11.61,9.09-7.55-.56-13.3-4.2-16.88-10.94-2.85-5.36-1.54-10.7.29-16.04.63-1.83,1.67-3.62-.91-5.46-2.19-1.56-1.2-4.84-.87-7.06,3.63-24.26,9.1-47.94,23.39-68.59,1.46-2.11.43-4.33.13-6.56-.98-7.16-1.89-14.3,1.84-21.12,2.05-3.76,4.5-6.99,8.58-8.68-1.44-2.69-3.89-4.39-4.12-7.46-.11-1.51-1.54-1.86-2.97-2.05-4.47-.6-8.26-3.04-12.13-5.05-5.25-2.72-6.12-7.98-2.88-13.36,3.69-6.13,8.72-11.59,14.92-14.21,7.08-2.99,8.16-7.96,9.26-14.16,2-11.23,8.23-20.13,16.92-27.22,3.88-3.16,8.22-5.93,13.27-6.94,2.14-.43,2.23-1.7,2.85-3.32.84-2.18,1.8-4.68,5.04-4.77,3.12-.09,6.12,0,7.38,3.41,1.37,3.69,4.85,3.19,7.36,3.48,17.48,1.99,34.45,18.63,36.98,35.95.34,2.33,1.49,3.6,3.44,4.15,8.2,2.3,14.64,7.16,20.39,13.26,6.37,6.76,5.59,14.04-2.29,18.64-1.1.64-2.27,1.26-3.49,1.6-4.3,1.2-6.91,4-6.78,8.39.12,3.81-4.7,6.34-3.7,8.41,1.16,2.41,5.08,3.83,6.91,6.55,1.25,1.85,1.86,4.12,2.76,6.2,2.7,6.83,2.08,13.79.43,20.67-.32,1.35-.88,2.31.14,3.53,7.24,8.73,10.4,19.41,14.27,29.76,3.97,10.62,6.15,21.77,9.49,32.57.9,2.91,1.21,6.06,1.42,9.12.14,2.02.62,2.85,2.61,1.96,2.23-1,4.47-2.87,6.86-.65,3.13,2.89,6.42,5.65,6.63,10.56.19,4.49-.23,7.5-5.7,8.99-4.27,1.16-9.58,2.85-10.3,8.91-.43,3.69-5.66,1.69-6.21,5.24-2.21,2.09-5.65,1.24-7.88,3.29-1.87,1.07-3.86,1.34-5.97.95-.76-1.12-1.22-3.16-3.04-.97-2.8.96-4.97,3.03-7.57,4.39-2.96,1.55-1.65,4.94-1.4,7.66,0,2.67,0,5.33,0,8,.08,3.33.16,6.66.24,9.99.08,2.28-.98,3.06-3.27,3.13-1.64.05-4.06-.06-3.81,2.88-.41,2.7-.42,5.42-.96,8.16-.74,3.79-1.12,8.11,3,10.84l-.03,2q-.65,12.04,11.7,17.28c1.11,1.57,2.21,3.14,3.32,4.72,1.63,4.13.73,8.45.77,12.66.02,2.37-2.06,3.53-4.58,3.52-3.47-.01-6.93.11-10.4.17l-13.01-.09c-5.33-.72-10.65-1.85-15.99-.11-4.51.33-7.59-1.21-8.06-6.16.11-6.65-.01-13.32.4-19.95.38-6.15-1.12-12.25,1.39-18.52,1.85-4.62-.26-10.09-.76-15.16-.22-2.24-2.02-1.22-3.1-1.28-7.1-.38-8.67-2.58-7.03-9.69,1.18-5.14-.75-10.15-1.24-15.19-.22-2.24.22-4.92-1.42-7.48-2.48,3.31-1.45,7.26-1.72,10.38-.4,4.7-2.24,9.39-.63,14.49,1.67,5.28-.66,7.57-6.54,7.33-3.51-.14-4.7.83-4.33,4.37.39,3.77-2.35,7.83-.76,11.23,4.39,9.32.61,19.08,2.4,28.46-.04,3.8-.16,7.6-.11,11.4.04,2.92-1.37,4.97-4.07,5.27-3.32.36-6.93,1.56-10.01-.81-1.91-1.47-2.57.14-3.58,1.08-9.09.09-18.19.03-27.27.32-5.68.18-7.74-1.04-7.6-7.8.04-1.81-.06-3.63-.1-5.44.34-.67.68-1.33,1.01-2,1.58-3.21,3.93-5.66,7.16-7.24,2.63-1.41,6.43-.26,8.12-3.72.99-.69,1.37-1.39,0-2.08-.1-2.65-.2-5.3-.3-7.96.06-1.67.12-3.33.18-5,4.78-1.95,3.04-6.08,2.62-9.31-.22-1.73-.72-3.52-.6-5.28.24-3.43.21-5.63-4.6-5.64-3.49-.01-3.92-4.11-3.36-6.98,2.38-12.25,1.09-24.59,1.25-36.89.61-.47.78-1.23.06-1.43-.87-.24-1.42.41-1.26,1.42Zm37.75,45.17c.06-.71-.2-1.03-.94-.78-7.3-.07-14.61-.13-21.91-.2-2.07-.02-4.69-.74-4,2.94.5,2.68-1.57,6.83,3.94,6.7,4.98-.12,9.96.1,14.94.02,8.24-.13,8.24-.18,7.97-8.67Zm-44.86,49.94c.03.66.4.91,1.03.83,9.96,0,19.93-.03,29.89.03,2.25.02,3.6-.45,4.28-2.98.82-3.06,2.4-6.56,5.4-7.43,7.01-2.03,6.53-7.09,6.23-12.43-.13-2.32-.03-4.65-.03-6.97.1-.64-.18-.94-.83-.91-4.15,0-8.3.06-12.44,0-2.13-.04-3.79.41-3.33,2.96,1.04,5.74-2.17,6.79-6.82,6.46-.99-.07-2-.06-2.98.09-1.31.2-3.43-.76-3.51,1.53-.08,2.28,2.01,1.54,3.37,1.77,2.19.37,4.72-.87,7.07,1.35-3.89,1.59-7.82-.37-11.4,1.52,2.53,2.43,7.39,2.69,5.65,8.22-4.04-5.9-9.33-6.03-15.04-3.67-4.24,1.74-6.49,4.97-6.54,9.63Zm121.96.84c.65.08.96-.21.95-.86-1.33-10.98-9.99-13.79-21.59-6.8-1-4.64,4.08-4.78,6.07-8.2-3.57,0-6.47.02-9.37,0-1.17-.01-2.73-.14-2.66-1.53.07-1.31,1.6-1.42,2.81-1.43,2-.02,3.99-.07,5.99-.13.87-.02,1.68-.24,1.69-1.33,0-1.06-.74-1.38-1.65-1.39-2.5-.03-4.99-.08-7.49-.03-2.42.05-4.08-.85-3.62-3.45.95-5.41-1.94-6.08-6.24-5.59-2.14.25-4.32,0-6.48.08-1.29.05-2.7-.44-3.84.53-.82.7-.79,15.93.07,16.65.47.4,1.21.48,1.83.71,4.49,1.68,7.64,4.76,9.02,9.33.83,2.74,2.33,3.49,5.07,3.45,9.81-.14,19.63-.03,29.44-.02ZM17.89,69.49c42.59-18.27,85.96-21.53,130.69-6.45-1.68-3.87-4.67-5.7-7.51-7.63-11.09-7.51-23.84-10.08-36.76-11.29-20.27-1.9-40.23.62-59.54,7.03-10.58,3.51-20.6,8.37-27.4,17.89-.25.18-.49.35-.74.53.45.45.86.36,1.26-.08Zm33.85,59.77c-1.97,12.38-2.05,25.1-5.32,37.25-2.75,10.24-4.11,21.13-12.12,29.3-2.57,2.62-.96,8.96,2.45,9.91,11.58,3.24,23.41,5.06,35.44,5.11,2.87.01,5.43-2.04,8.59-1.72,5.71.57,11.41-.39,17.2,1.56,5.17,1.74,10.31-1.14,15.33-2.82,3.38-1.12,1.34-4.02,2.39-5.87,1.16-2.03,2.48-3.66,5.1-2.91,2.11.61,3.08,2.29,2.34,4.25-.96,2.56-1.61,4.43,2.21,4.73,4.69.37,9.76-1.93,10-4.71.39-4.62-1.32-8.27-3.77-12.27-7.53-12.3-9.83-26.4-12.11-40.38-1-6.14-1.42-12.38-2.08-18.58-.11-1.04-.31-2.15-1.3-2.5-.85-.3-1.44.52-1.64,1.36-3.53,14.99-14.42,23.87-26.34,31.95-2.35,1.59-4.79,1.88-6.85.38-11.52-8.34-21.95-17.68-27.1-31.54-.36-.96-.35-2.41-2.41-2.51Zm70.67-48.77c0-2.32.26-4.03-.05-5.64-.7-3.51-2.15-8.29-5.5-8.08-3.81.23-6.79-.7-9.48-2.42-2.4-1.54-3.43-1.18-5.39.54-3.06,2.67-6.96,3.86-11.04,2.97-6.26-1.37-11.97-4.06-17.12-7.92-6.37-4.77-12.65.22-18.96.47-2.66.11-1.2,4.1-2.33,6.17-.85,1.56-1.25,3.62-2.65,4.66-4.42,3.3-4.44,7.69-3.96,12.52.26,2.61,1.68,6.25-3.27,6.67-1,.09-.73,1.28-.53,2.35,2.07,10.83,6.5,20.34,15.56,27.03,13.84,10.22,28.8,12.51,44.62,5.02,13.79-6.52,21.11-18.05,23.97-32.67.16-.83,1.32-2.54-.17-2.93-5.71-1.48-3.14-6.04-3.72-8.75Zm11.86,170.9c-7.2,1.36-11.31-.83-13.68-7.69-1.05-3.03-1.87-4.85-5.79-4.94-4.47-.09-8.95-2.79-10.23-6.94-2.16-6.97-5.23-7.35-12.14-6.23-11.86,1.93-23.97-.61-35.89-2.4-2.54-.38-4.2-.18-5.47,2.64-2.64,5.86-7.16,9.99-13.49,11.71-2.09.57-3.07,1.38-3.03,3.67.13,7.15.13,14.31.08,21.46-.02,2.67,1.03,3.97,3.78,3.99,12.64.05,25.29.14,37.93.25,1.71.01,2.82-.36,3.02-2.38.6-5.92,1.39-11.82,1.99-17.75.19-1.95-.45-3.91,2.83-3.93,3.13-.01,3.94,1.3,4.19,4.1.51,5.76,1.36,11.48,1.97,17.24.2,1.88,1.03,2.56,2.87,2.57,12.31.03,24.61.14,36.92.19,2.7,0,4.33-1.04,4.18-4.16-.18-3.64-.04-7.3-.04-11.41Zm3.11-50.5c-.36,2.01.95,4.64.83,7.11-.31,6.11,3.53,6.43,7.58,5.94,5.02-.61,10.03-1.66,14.91-3.02,6.63-1.84,6.93-2.65,5.55-9.55-3.11-15.5-7.53-30.65-13.31-45.34-4.28-10.88-9.5-21.31-18.52-29.24-.91-.8-2.04-2.35-3.37-1.36-1.06.79-.5,2.33-.28,3.67,1.03,6.47,1.91,12.97,2.76,19.47,1.24,9.41,2.36,18.79,4.76,28.05,1.28,4.92,2.58,10.43.52,15.46-1.12,2.75-1.47,5.33-1.43,8.81ZM38.92,123.96c-4.3,2.66-6.87,5.17-9.27,7.92-8.09,9.28-13.09,20.23-17.17,31.66-4.32,12.08-6.47,24.71-8.8,37.25-.49,2.62-2.47,6.82,1.56,8.97,6.31,3.37,13.25,4.54,20.28,5.21,2.72.26,3.71-.9,3.91-3.72.5-7.07,2.05-13.89.17-21.22-2.24-8.73,1.78-17.34,3.35-25.86,2.37-12.95,2.86-26.1,5.98-40.21ZM120.45,33.46c-.38-.83-.73-1.76-1.21-2.61-10.87-18.99-31.48-25.74-51.16-20.26-13.56,3.78-21.63,14.09-27.56,26.26-.43.88-.74,2.71-.39,2.93,1.14.7,2.4,0,3.69-.44,17.46-6.11,35.47-8.66,53.92-7.6,6.65.38,13.26,1.41,19.76,3,1.27.31,2.54.9,2.94-1.26Zm-53.84,95.44c2.76,5.79,7.61,8.29,12.42,10.85.9.48,2.6.59,1.64,2.31-.81,1.46-1.78.68-2.92.17-6.24-2.8-11.86-6.62-14.87-12.76-1.91-3.9-4.85-5.89-8.46-8.42.5,5.26,2.28,9.53,4.17,13.76,5.08,11.38,14.87,18.53,23.78,26.47,1.21,1.07,2.75.77,4.16-.13,12.4-7.92,22.04-18.07,26.38-32.52.66-2.19.85-4.35-.22-6.96-2.43,2.18-5.98,2.76-6.2,5.9-.43,6.21-5.23,8.38-9.37,11.24-.68.47-1.71.69-2.28-.09-.88-1.2.34-1.69,1.06-2.28q6.36-5.26,7.71-8.8c-12.27,5.32-24.5,5.91-37,1.25Zm-35.22,57.06c0,.5,0,1,0,1.5-.01,1.82-.29,4.14,1.97,4.48,1.9.29,2.38-2.01,3.07-3.42,2.56-5.24,4.7-10.69,5.84-16.4,1.94-9.76,3.62-19.58,5.12-29.43.96-6.32,1.46-12.72,2-19.1.11-1.26.85-3.3-1.44-3.6-2.14-.28-4.47-.45-5.73,1.9-.53.99-.73,2.19-.9,3.32-2.29,15.6-4.64,31.19-6.77,46.81-.65,4.76-3.53,8.97-3.15,13.93Zm104.29,5.58c.37-5.15,1.07-10.1-.13-15.2-2.42-10.33-4.27-20.78-5.22-31.39-.66-7.33-2.02-14.6-2.88-21.92-.45-3.79-3.25-3.8-5.84-3.92-3.45-.16-2.33,2.58-2.22,4.3.94,14.51,2.39,28.97,5.83,43.14,2.13,8.81,5,17.39,10.46,24.98Zm-11.75-147.36c.18-4.41-2.04-5.98-5.49-6.95-8.23-2.32-16.72-2.48-25.11-3-11.11-.69-22.18.92-33.07,3.15-6.67,1.37-13.17,3.43-19.37,6.39-2.33,1.11-2.88,2.93-2.28,4.88.89,2.9,2.86.49,3.96.14,18.53-5.95,37.48-8.49,56.94-7.82,8.13.28,15.97,2.41,24.42,3.2ZM23.14,226.35c.72,1.02,1.15,1.36,1.19,1.73.16,1.62-.1,3.88,2.14,3.73,2.15-.15,3.33-1.98,2.9-4.33-.46-2.57-.94-5.13-1.53-7.67-.27-1.17-.96-1.71-2.41-1.93-5.63-.86-11.24-1.87-16.76-3.24-1.71-.42-2.53-.72-3.57.97-5.52,8.93.21,22.32,10.51,24.38,6.41,1.28,9.83-.39,11.37-5.57-5.19.98-5.52.38-3.83-8.06Zm142.57,9.33c2.04-1.08,2.52-2.83,2.67-4.94.35-5.04-.6-9.78-2.48-14.44-1.14-2.82-2.3-3.59-5.53-2.44-3.63,1.29-7.52,2.09-11.54,2.26-6.76.29-9.65,3.67-8.79,9.34,5.88-2.14,9.07-.1,9.41,6.1.12,2.16-.01,4.33-.06,6.49-.03,1.69-.16,3.52,2.05,3.89,2.41.41,3.26-1.51,3.66-3.26.4-1.75.17-3.64.26-5.46.06-1.14.79-1.98,1.81-2.05,1.55-.1,1.15,1.27,1.17,2.15.06,2.19.02,4.38.02,7.39,2.87-1.78,4-3.39,4.1-5.75.07-1.83-.98-4.82,1.93-4.61,2.12.16.28,3.15,1.05,4.7.07.15.13.31.26.62Zm-99.24-14.6c1.33.06,2.66.06,3.98.19,2.65.26,2.95-1.33,2.94-3.41-.01-2.11.11-3.75-2.97-3.89-11.09-.5-21.92-2.72-32.71-5.23-1.79-.42-4.46-2.5-5.18,1.05-.53,2.65-.7,5.23,3.2,6.62,10,3.57,20.52,2.92,30.72,4.66Zm-30.62-155.86c-7.12,2.38-13.97,5.12-20.19,9.32-3.15,2.13-2.73,3.97.07,6.09,2.97,2.25,6.31,3.57,9.76,4.81,2.61.93,3.79.83,4.07-2.49.18-2.14,1.36-4.93,3.02-6.05,4.48-3.02,4.13-6.95,3.26-11.68Zm78.55,212.85v-.02c-3.48,0-6.96.16-10.43-.05-2.71-.16-4.17.61-3.58,3.5.47,2.32-1.87,6.16,3.14,6.17,6.95.02,13.9.04,20.86,0,1.07,0,2.28.2,2.92-1.24,2.02-4.52-.49-8.41-5.46-8.38-2.48.02-4.97,0-7.45,0Zm16.98-211.05c-2.22,5.96,6.08,7.25,6.94,12.42.02.13,1.21.27,1.75.09,3.79-1.29,7.45-2.81,10.19-5.95,1.95-2.23,1.75-4.15-.69-5.83-3.73-2.57-7.86-4.27-12.13-5.66q-5.91-1.92-6.06,4.92Zm-8.89-7.5c-5.06-2.66-35.14-3.93-46.41-1.85,3.66,3.23,8.03,4.7,12.31,6.38,5.11,2.01,10.52,1.11,13.79-3.23,1.72-2.29,3.01-1.81,4.37-.51,5.67,5.42,10.89,3.95,15.94-.78Zm-9.93,209.56c0,.19,0,.37,0,.56-6.32,0-12.64-.03-18.97.02-1.81.02-4.29-.89-4.2,2.5.07,2.93,2.09,2.94,4.18,2.93,12.64-.07,25.29-.16,37.93-.2,2.25,0,3.94-.27,3.77-3.2-.16-2.67-1.75-2.67-3.76-2.64-6.32.08-12.63.03-18.95.03Zm-55.66.55v-.43c-6.81,0-13.62,0-20.44,0-1.51,0-3.07-.27-3.06,2.09,0,2.06.33,3.68,2.85,3.73.83.02,1.66.06,2.49.06,12.31.04,24.61.06,36.92.12,2.11.01,3.89.21,3.81-2.96-.08-3.4-2.29-2.57-4.12-2.58-6.15-.04-12.3-.02-18.46-.02Zm78.47-156c-.23-2.75.13-6.17-.73-9.65-.57-2.3-1.22-3.61-3.59-3.86-2.36-.25-4.05.13-4.99,2.81-1.37,3.92-3.49,7.54-6.05,10.82-1.69,2.17-1.61,3.42,1.35,3.18,3.81-.31,6.67,1.02,9.24,3.77,1.01,1.08,2.6,2.77,4.21,1.79,1.22-.74.46-2.75.54-4.2.07-1.32.01-2.66.01-4.67Zm-101.87,10.59c5.57-3.4,9.22-8.66,16.76-7.06-3.36-5.12-5.97-9.16-7.79-13.62-1.05-2.56-3.36-2.64-5.45-2.53-2.28.12-3.48,1.82-3.65,4.07-.44,6.11-.33,12.22.12,19.15Zm51.88,87.85c-2.16,0-4.33-.01-6.49,0-3.25.02-3.69,2.08-3.48,4.71.21,2.65-1.02,6.14,3.43,6.31,4.32.17,8.66.06,12.99.05,1.22,0,2.11-.25,2.53-1.75,1.85-6.54-.19-9.34-6.98-9.32-.67,0-1.33,0-2,0Zm97.04,6.75c0-4.36-1.76-8.24-4.47-9.42-3.83-1.66-7.04.9-9.54,2.76-2.63,1.96.75,4.88,1.24,7.37.35,1.76.46,3.51.69,5.26.12.9-.22,2.43,1.18,2.19,3.56-.61,6.76-2.32,9.97-3.92,2.19-1.09.34-2.99.93-4.24Zm-35.01,17.07c.06-9.06-1.65-10.18-9.76-6.48-1.95.89-3.98,1.6-5.98,2.34-1.45.54-2.11,1.59-.42,2.21,4.9,1.79,5.57,5.49,5.1,9.93-.13,1.22-.04,2.33,1.78,2.08,3.35-.47,9.26-6.81,9.28-10.08Zm-92.34,54.29s0,.04,0,.06c-3.32,0-6.65-.05-9.97.02-1.62.03-3.9-.94-3.68,2.31.17,2.48.9,4.1,3.76,4.04,6.65-.13,13.29-.25,19.94-.2,2.48.02,3-1.01,3.08-3.27.09-2.51-.85-3.13-3.16-3.01-3.32.17-6.64.04-9.97.04Zm67.77,42.04s0-.06,0-.09c-6.49,0-12.98-.06-19.47.05-1.38.02-3.83-1.04-3.7,1.77.11,2.24,2.2,2.03,3.86,2.14,4.62.29,8.88-1.37,13.93-.39,8.18,1.59,16.89.45,25.38.46,1.61,0,3.25-.32,3.3-2.22.06-2.41-2.03-1.67-3.34-1.68-6.66-.07-13.31-.03-19.97-.03Zm-76.44-.11v.14c-6.65,0-13.31-.03-19.96.02-1.22,0-2.98-.36-2.87,1.72.09,1.65,1.47,2.24,2.87,2.1,9.95-.98,20.19,2.36,29.92-1.95,1.17-.52,2.35-.32,3.24.56,1.78,1.76,4,1.42,6.12,1.33,1.5-.06,3.7.57,3.55-2.16-.13-2.34-2.05-1.74-3.41-1.75-6.49-.05-12.97-.02-19.46-.02Zm67.75-35.74c0,.07,0,.14,0,.21,3.16,0,6.32-.07,9.48.03,1.99.06,3.03-.3,2.83-2.72-.16-1.91-.32-2.67-2.63-3.01-6.45-.94-12.9-.2-19.33-.59-1.9-.11-3.26.05-3.06,2.56.15,1.9-.08,3.68,2.75,3.55,3.32-.15,6.65-.04,9.97-.04Zm-79.67-69.01c.63,2.21-1.7,6.17,1.18,7.2,2.8,1,5.82-1.72,8.29-3.75.38-.32.74-.67,1.07-1.05,1.74-2.01,4.44-4.27,3.83-6.64-.58-2.26-4.14-1.7-6.47-2.18-7.88-1.63-7.87-1.66-7.89,6.41Zm8.18-140.43c-.71-8.26,1.21-15.34,7.21-21.07.84-.8,1.11-2.55-.02-3.66-1.34-1.32-11.24,1.83-11.38,3.69-.52,7.26,1.61,14.06,4.19,21.04Zm77.31,148.55c-8.59-1.34-12.44-4.24-13.35-10.06-.79-5.06,1.86-10.59,6.06-12.68,3.92-1.95,10.7-.67,13.81,2.6,3.69,3.88,3.84,9.21.43,15.39,4.08-1.42,5.66-7.64,3.35-13.24-2.74-6.66-11.39-9.88-18.11-6.74-6.8,3.18-9.72,12.76-5.93,19.48,2.99,5.3,9.64,7.84,13.74,5.24Zm9.49-164.55c-.17-2.77-.1-4.97-.5-7.07-.33-1.75-.47-4.9-3.3-3.45-1.92.99-5.39,3.27-3.51,5.96,3.57,5.12,3.33,10.59,3.24,16.22-.01.92-.26,2.27,1.15,2.27,1.13,0,1.54-1.18,1.65-2.17.49-4.11.9-8.24,1.27-11.76Zm6.01,13.47c-.11-1.65.07-3.39-.42-4.91-.47-1.48-1.15-3.76-2.95-3.54-1.74.22-1.83,2.36-1.73,4.03.26,4.29-.64,8.4-1.81,12.49-.32,1.11-.56,2.58.35,3.27,1,.75,2.24.06,3.04-.92,2.49-3.02,4.07-6.36,3.51-10.42Zm-94.65,14.64c-1.34-4.26-1.88-7.76-2.47-11.25-.59-3.47-.84-7.1-2.48-10.59-5.98,7.54-4.14,16.05,4.95,21.84Zm71.79,116.32c-4.99,7.07-5.22,10.25-1.86,14.42,2.07,2.57,6.34,3.13,11.02,1.05-7-2.52-9.06-7.94-9.15-15.47Zm9.81,15.75c4.76-4.35,4.7-8.25,3.21-12.24-1.48-3.97-4.85-5.07-8.77-4.86-.75.04-1.82-.2-2.09.78-.13.46.28,1.47.68,1.62,6.28,2.31,7.7,7.34,6.97,14.69ZM29.86,106.94c-3.95,5.06-4.89,16.1-1.9,22.27,2.75-3.31,3.42-11.26,1.9-22.27Zm108.74-.39c1.23,7.58-2.94,15.81,2.48,22.9,1.64-7.88,2.47-15.68-2.48-22.9Zm-16.24,131.51c-.39,6.97,3.7,11.76,8.43,11.05,2.56-.39,3.01-2.23,2.76-3.92-.33-2.23-1.69-.6-2.85-.38-3.57.69-4-2.78-5.58-4.69-1.65-1.99.17-2.42,1.48-3.09.86-.44,1.82-.92,1.63-2.14-.13-.86-.96-.95-1.56-.88-1.19.14-2.78-.81-3.41,1.04-.43,1.24-.75,2.53-.89,3Zm1.35,62.02c-1.41,1.05-5.44-2.35-5.29,2.79.14,4.55,3.6,2.75,5.89,3.05,1.3.17,2.67.15,3.96-.09,1.82-.34,2.05-1.84,2.12-3.43.08-1.69-.58-2.42-2.29-2.33-1.32.07-2.65.01-4.4.01Zm-19.06,28.67c.74-.44,3.41,1.63,3.5-1.54.08-2.61-4.39-7.37-6.79-7.29-3.6.11-1.56,2.96-1.92,4.54-.84,3.72.8,5.31,5.2,4.29Zm-35.3-2.86q-.17-5.81-1.62-5.65c-2.05.22-7.18,6.05-6.78,8.06.53,2.64,2.85,1.49,4.45,1.64,3.26.3,5.09-.85,3.95-4.04Zm-24.38-26.13c-1.64,1.47-5.34-1.98-5.5,2.86-.12,3.43,2.1,3.58,4.21,2.99,2.41-.67,6.71,2.08,6.9-3,.17-4.59-3.76-1.54-5.62-2.85Zm60.28-86.68c-2.11,0-3.73.02-5.35,0-2.4-.04-2.76,1.53-2.48,3.34.25,1.61-1.07,3.92,1.57,4.63,2.14.57,3.33-.37,3.9-2.59.43-1.7,1.41-3.27,2.36-5.37Zm23.82-2.54c2.14,1.66,1.89,6.14,5.44,5.27,1.78-.44,1.39-3.98.61-5.39-1.59-2.87-3.86.45-6.05.12ZM79.45,5.03c-.16-2.24-1.51-2.68-3.06-2.89-2.5-.35-3.43,1.64-4.46,3.22-.53.82.92,1.69,1.17,1.49,1.88-1.49,4.82.26,6.35-1.82Zm50.69,233.08c-.82.32-2.73-.9-2.71,1.41.02,1.85,1.23,2.6,2.97,2.46,1.44-.12,3.48.05,3.58-1.79.12-2.26-1.87-2.27-3.83-2.08Z"/>
      <path class="cls-7" d="m30.49,233.91c-.16-1,.39-1.66,1.26-1.42.72.2.55.96-.06,1.43-.4,0-.8,0-1.2-.01Z"/>
      <path class="cls-4" d="m122.41,80.5c.58,2.71-1.99,7.28,3.72,8.75,1.49.39.33,2.09.17,2.93-2.86,14.62-10.18,26.15-23.97,32.67-15.82,7.48-30.78,5.2-44.62-5.02-9.05-6.69-13.48-16.2-15.56-27.03-.2-1.07-.48-2.26.53-2.35,4.95-.42,3.53-4.06,3.27-6.67-.49-4.84-.47-9.22,3.96-12.52,1.4-1.04,1.79-3.1,2.65-4.66,1.13-2.07-.34-6.07,2.33-6.17,6.3-.25,12.58-5.24,18.96-.47,5.15,3.85,10.86,6.55,17.12,7.92,4.07.89,7.98-.29,11.04-2.97,1.96-1.72,2.99-2.08,5.39-.54,2.69,1.72,5.68,2.65,9.48,2.42,3.35-.2,4.81,4.57,5.5,8.08.32,1.6.05,3.32.05,5.64Zm-54.09,4.07c-.33-1.42,1.2-4.5-2.72-4.52-3.17-.02-4.35,1.89-4.21,4.78.13,2.67,1.12,5.13,4.14,5.1,2.89-.03,3.04-2.49,2.79-5.36Zm12.17,10.08c1.55,2.61,3.24,3.73,6.28,2.53,3.04-1.2,2.6-3.41,2.61-5.68.02-4.18-3.28-7.24-3.81-11.31-1.45,2.57-1.68,5-.18,7.64,1,1.76,2.83,3.83,1.4,5.79-1.4,1.92-3.95,1.33-6.29,1.02Zm25.88-10.54c.7-2.4-.25-4.88-2.96-4.76-2.44.11-4.22,2.32-4.05,5.31.15,2.64,1.05,4.32,4.07,4.47,4.03.2,2.99-2.52,2.94-5.02Zm-21.94,26.7c1.84.99,3.75-.21,5.73-.92.81-.3,1.45-.9,1.18-1.87-.27-.99-1.14-1.23-1.95-.87-3.96,1.78-7.68,1.33-11.35-.87-.82-.49-2.08-.64-2.55.52-.52,1.28.22,2.08,1.51,2.56,2.28.85,4.45,2.07,7.44,1.45Zm20.71-36.9c.17.06,1.31.28,2.3.78,1.01.51,2.11.71,2.6-.24.72-1.41-.61-1.99-1.64-2.48-4-1.94-7.65-1.07-11.01,1.54-.81.63-1.36,1.51-.54,2.51.61.75,1.41.78,2.1.08,1.45-1.45,3.09-2.43,6.19-2.2Zm-46.49.18c.1,1.25,1.08.97,1.8.98,2.13.04,4.35.36,6.38-.11,1.61-.37,3.81,2.85,4.32-.05.44-2.55-2.76-2.25-4.61-3.08-2.3-1.03-4.06-.09-6.06.21-1.2.18-1.46,1.15-1.83,2.05Z"/>
      <path class="cls-7" d="m134.27,251.4c0,4.11-.14,7.77.04,11.41.15,3.12-1.48,4.17-4.18,4.16-12.31-.04-24.61-.15-36.92-.19-1.84,0-2.68-.69-2.87-2.57-.6-5.75-1.46-11.48-1.97-17.24-.25-2.79-1.05-4.11-4.19-4.1-3.28.01-2.63,1.98-2.83,3.93-.59,5.92-1.39,11.82-1.99,17.75-.2,2.02-1.31,2.39-3.02,2.38-12.64-.11-25.28-.2-37.93-.25-2.75-.01-3.8-1.32-3.78-3.99.05-7.15.05-14.31-.08-21.46-.04-2.29.95-3.1,3.03-3.67,6.32-1.72,10.85-5.85,13.49-11.71,1.27-2.82,2.93-3.03,5.47-2.64,11.91,1.79,24.02,4.32,35.89,2.4,6.91-1.12,9.98-.74,12.14,6.23,1.29,4.15,5.77,6.85,10.23,6.94,3.92.08,4.74,1.9,5.79,4.94,2.37,6.86,6.48,9.05,13.68,7.69Z"/>
      <path class="cls-1" d="m120.45,33.46c-.4,2.16-1.67,1.57-2.94,1.26-6.5-1.59-13.11-2.62-19.76-3-18.45-1.06-36.46,1.49-53.92,7.6-1.3.45-2.55,1.14-3.69.44-.35-.21-.04-2.04.39-2.93,5.93-12.16,14-22.48,27.56-26.26,19.68-5.48,40.28,1.27,51.16,20.26.49.85.83,1.78,1.21,2.61Z"/>
      <path class="cls-1" d="m17.37,69.04c6.81-9.52,16.82-14.38,27.4-17.89,19.31-6.4,39.27-8.93,59.54-7.03,12.92,1.21,25.66,3.78,36.76,11.29,2.84,1.92,5.83,3.76,7.51,7.63-44.73-15.08-88.1-11.82-130.69,6.45-.17-.16-.34-.31-.52-.45Z"/>
      <path class="cls-7" d="m145.34,329.86c-9.81-.01-19.63-.12-29.44.02-2.74.04-4.24-.71-5.07-3.45-1.38-4.57-4.53-7.66-9.02-9.33-.62-.23-1.36-.31-1.83-.71-.86-.73-.89-15.95-.07-16.65,1.14-.97,2.55-.48,3.84-.53,2.16-.08,4.35.17,6.48-.08,4.3-.5,7.19.18,6.24,5.59-.46,2.6,1.21,3.5,3.62,3.45,2.49-.05,4.99,0,7.49.03.91.01,1.65.33,1.65,1.39,0,1.09-.81,1.3-1.69,1.33-2,.06-3.99.11-5.99.13-1.21.01-2.74.12-2.81,1.43-.07,1.39,1.49,1.52,2.66,1.53,2.9.03,5.8,0,9.37,0-1.99,3.42-7.07,3.55-6.07,8.2,11.6-6.99,20.26-4.19,21.59,6.8-.32.29-.63.57-.95.86Z"/>
      <path class="cls-7" d="m70.17,300.06c0,2.32-.1,4.66.03,6.97.3,5.34.78,10.4-6.23,12.43-3,.87-4.58,4.37-5.4,7.43-.68,2.53-2.03,2.99-4.28,2.98-9.96-.07-19.93-.03-29.89-.03-.34-.28-.68-.55-1.03-.83.05-4.66,2.3-7.89,6.54-9.63,5.71-2.35,11-2.23,15.04,3.67,1.75-5.53-3.12-5.78-5.65-8.22,3.58-1.89,7.5.06,11.4-1.52-2.35-2.22-4.88-.97-7.07-1.35-1.36-.23-3.44.5-3.37-1.77.08-2.29,2.2-1.33,3.51-1.53.98-.15,1.99-.16,2.98-.09,4.64.33,7.85-.72,6.82-6.46-.46-2.56,1.2-3,3.33-2.96,4.15.07,8.29.01,12.44,0,.28.3.55.61.83.91Z"/>
      <path class="cls-7" d="m31.37,185.96c-.37-4.96,2.51-9.17,3.16-13.92,2.13-15.62,4.48-31.21,6.77-46.81.17-1.13.37-2.34.9-3.32,1.26-2.34,3.59-2.18,5.73-1.9,2.3.31,1.55,2.34,1.44,3.6-.54,6.38-1.04,12.78-2,19.1-1.49,9.84-3.17,19.66-5.12,29.43-1.13,5.7-3.28,11.16-5.84,16.4-.69,1.41-1.16,3.71-3.07,3.42-2.26-.35-1.99-2.66-1.97-4.48,0-.5,0-1-.01-1.5Z"/>
      <path class="cls-7" d="m135.67,191.55c-5.46-7.59-8.33-16.17-10.46-24.98-3.43-14.16-4.89-28.63-5.83-43.14-.11-1.72-1.23-4.46,2.22-4.3,2.59.12,5.39.13,5.84,3.92.86,7.32,2.23,14.58,2.88,21.92.95,10.61,2.8,21.06,5.22,31.39,1.2,5.1.5,10.04.13,15.2Z"/>
      <path class="cls-9" d="m123.92,44.19c-8.44-.79-16.29-2.92-24.42-3.2-19.46-.67-38.41,1.86-56.94,7.82-1.1.35-3.07,2.77-3.96-.14-.6-1.95-.06-3.76,2.28-4.88,6.2-2.96,12.7-5.02,19.37-6.39,10.9-2.23,21.96-3.84,33.07-3.15,8.39.52,16.88.68,25.11,3,3.44.97,5.67,2.54,5.49,6.95Z"/>
      <path class="cls-4" d="m23.14,226.35c-1.69,8.44-1.36,9.04,3.83,8.06-1.54,5.18-4.95,6.85-11.37,5.57-10.31-2.06-16.03-15.45-10.51-24.38,1.04-1.69,1.86-1.39,3.57-.97,5.52,1.37,11.14,2.38,16.76,3.24,1.46.22,2.14.77,2.41,1.93.59,2.54,1.07,5.11,1.53,7.67.42,2.35-.75,4.19-2.9,4.33-2.24.15-1.98-2.11-2.14-3.73-.04-.37-.46-.7-1.19-1.73Z"/>
      <path class="cls-4" d="m165.71,235.67c-.13-.32-.19-.47-.26-.62-.77-1.55,1.07-4.55-1.05-4.7-2.91-.21-1.85,2.78-1.93,4.61-.1,2.36-1.22,3.97-4.1,5.75,0-3.01.04-5.2-.02-7.39-.02-.88.38-2.26-1.17-2.15-1.03.07-1.75.91-1.81,2.05-.09,1.82.14,3.71-.26,5.46-.4,1.75-1.25,3.67-3.66,3.26-2.21-.37-2.09-2.2-2.05-3.89.04-2.16.17-4.33.06-6.49-.34-6.21-3.52-8.24-9.41-6.1-.87-5.67,2.03-9.05,8.79-9.34,4.02-.17,7.91-.97,11.54-2.26,3.23-1.15,4.39-.38,5.53,2.44,1.88,4.66,2.83,9.41,2.48,14.44-.15,2.11-.63,3.87-2.67,4.94Z"/>
      <path class="cls-10" d="m66.47,221.08c-10.2-1.74-20.73-1.1-30.72-4.66-3.91-1.39-3.74-3.98-3.2-6.62.72-3.55,3.39-1.47,5.18-1.05,10.79,2.5,21.62,4.73,32.71,5.23,3.07.14,2.95,1.77,2.97,3.89.01,2.08-.29,3.67-2.94,3.41-1.32-.13-2.66-.13-3.98-.19Z"/>
      <path class="cls-7" d="m35.85,65.22c.87,4.73,1.22,8.66-3.26,11.68-1.66,1.12-2.84,3.92-3.02,6.05-.28,3.32-1.47,3.42-4.07,2.49-3.45-1.23-6.79-2.56-9.76-4.81-2.81-2.12-3.22-3.96-.07-6.09,6.22-4.2,13.07-6.94,20.19-9.32Z"/>
      <path class="cls-4" d="m114.4,278.07c2.48,0,4.97.02,7.45,0,4.97-.04,7.47,3.86,5.46,8.38-.64,1.44-1.85,1.23-2.92,1.24-6.95.04-13.9.01-20.86,0-5.01-.01-2.67-3.85-3.14-6.17-.58-2.89.87-3.66,3.58-3.5,3.46.21,6.95.05,10.43.05v.02Z"/>
      <path class="cls-4" d="m68.24,279.08c.27,8.5.27,8.55-7.97,8.67-4.98.08-9.96-.14-14.94-.02-5.51.13-3.43-4.02-3.94-6.7-.69-3.68,1.93-2.96,4-2.94,7.3.07,14.61.13,21.91.2.31.26.62.52.94.78Z"/>
      <path class="cls-7" d="m131.38,67.03q.15-6.85,6.06-4.92c4.28,1.39,8.4,3.09,12.13,5.66,2.44,1.68,2.64,3.59.69,5.83-2.74,3.13-6.4,4.65-10.19,5.95-.54.18-1.73.04-1.75-.09-.86-5.17-9.16-6.46-6.94-12.42Z"/>
      <path class="cls-9" d="m122.48,59.53c-5.05,4.73-10.27,6.19-15.94.78-1.35-1.29-2.64-1.78-4.37.51-3.27,4.35-8.68,5.24-13.79,3.23-4.27-1.68-8.65-3.14-12.31-6.38,11.27-2.08,41.35-.81,46.41,1.85Z"/>
      <path class="cls-7" d="m112.55,269.09c6.32,0,12.64.05,18.95-.03,2.01-.03,3.6-.03,3.76,2.64.17,2.94-1.52,3.2-3.77,3.2-12.64.03-25.29.12-37.93.2-2.09.01-4.11,0-4.18-2.93-.08-3.39,2.39-2.49,4.2-2.5,6.32-.05,12.64-.02,18.97-.02,0-.19,0-.37,0-.56Z"/>
      <path class="cls-7" d="m56.89,269.64c6.15,0,12.31-.03,18.46.02,1.83.01,4.04-.81,4.12,2.58.07,3.16-1.71,2.97-3.81,2.96-12.31-.06-24.61-.08-36.92-.12-.83,0-1.66-.04-2.49-.06-2.52-.05-2.85-1.67-2.85-3.73,0-2.36,1.55-2.09,3.06-2.09,6.81.01,13.63,0,20.44,0v.43Z"/>
      <path class="cls-7" d="m135.36,113.64c0,2.02.06,3.35-.01,4.67-.08,1.44.68,3.46-.54,4.2-1.61.98-3.21-.71-4.21-1.79-2.57-2.75-5.43-4.08-9.24-3.77-2.96.24-3.04-1.01-1.35-3.18,2.56-3.28,4.68-6.9,6.05-10.82.94-2.68,2.63-3.07,4.99-2.81,2.37.26,3.02,1.57,3.59,3.86.86,3.48.51,6.9.73,9.65Z"/>
      <path class="cls-7" d="m33.49,124.23c-.45-6.93-.57-13.03-.12-19.15.16-2.25,1.37-3.95,3.65-4.07,2.09-.11,4.4-.03,5.45,2.53,1.82,4.46,4.43,8.49,7.79,13.62-7.55-1.6-11.2,3.66-16.76,7.06Z"/>
      <path class="cls-4" d="m85.37,212.09c.67,0,1.33,0,2,0,6.79-.02,8.82,2.78,6.98,9.32-.42,1.5-1.31,1.75-2.53,1.75-4.33,0-8.66.12-12.99-.05-4.45-.18-3.22-3.67-3.43-6.31-.21-2.63.23-4.69,3.48-4.71,2.16-.01,4.33,0,6.49,0Z"/>
      <path class="cls-4" d="m182.41,218.83c-.59,1.25,1.26,3.15-.93,4.24-3.21,1.6-6.41,3.3-9.97,3.92-1.41.24-1.07-1.29-1.18-2.19-.23-1.75-.34-3.5-.69-5.26-.49-2.49-3.87-5.41-1.24-7.37,2.5-1.86,5.7-4.42,9.54-2.76,2.71,1.18,4.48,5.06,4.47,9.42Z"/>
      <path class="cls-4" d="m147.39,235.91c-.02,3.27-5.93,9.61-9.28,10.08-1.82.25-1.91-.86-1.78-2.08.47-4.44-.19-8.13-5.1-9.93-1.69-.62-1.03-1.67.42-2.21,2.01-.75,4.04-1.46,5.98-2.34,8.11-3.7,9.82-2.58,9.76,6.48Z"/>
      <path class="cls-5" d="m55.05,290.2c3.32,0,6.65.12,9.97-.04,2.31-.12,3.25.5,3.16,3.01-.08,2.27-.6,3.29-3.08,3.27-6.65-.06-13.29.07-19.94.2-2.86.05-3.59-1.56-3.76-4.04-.22-3.25,2.06-2.28,3.68-2.31,3.32-.07,6.65-.02,9.97-.02,0-.02,0-.04,0-.06Z"/>
      <path class="cls-10" d="m122.83,332.24c6.66,0,13.32-.04,19.97.03,1.31.01,3.39-.73,3.34,1.68-.05,1.9-1.69,2.22-3.3,2.22-8.49,0-17.2,1.14-25.38-.46-5.05-.98-9.32.68-13.93.39-1.66-.1-3.75.1-3.86-2.14-.14-2.81,2.31-1.74,3.7-1.77,6.49-.11,12.98-.05,19.47-.05,0,.03,0,.06,0,.09Z"/>
      <path class="cls-10" d="m46.39,332.13c6.49,0,12.97-.03,19.46.02,1.36.01,3.29-.59,3.41,1.75.15,2.73-2.05,2.09-3.55,2.16-2.12.09-4.34.43-6.12-1.33-.89-.88-2.07-1.08-3.24-.56-9.73,4.31-19.97.98-29.92,1.95-1.4.14-2.79-.45-2.87-2.1-.11-2.09,1.65-1.71,2.87-1.72,6.65-.05,13.31-.02,19.96-.02v-.14Z"/>
      <path class="cls-2" d="m114.14,296.39c-3.32,0-6.65-.12-9.97.04-2.83.13-2.6-1.65-2.75-3.55-.2-2.5,1.16-2.67,3.06-2.56,6.43.38,12.88-.35,19.33.59,2.31.34,2.47,1.1,2.63,3.01.2,2.42-.84,2.78-2.83,2.72-3.16-.1-6.32-.03-9.48-.03,0-.07,0-.14,0-.21Z"/>
      <path class="cls-7" d="m34.47,227.38c.02-8.07.02-8.04,7.89-6.41,2.33.48,5.89-.07,6.47,2.18.61,2.37-2.09,4.63-3.83,6.64-.33.38-.68.73-1.07,1.05-2.47,2.03-5.49,4.74-8.29,3.75-2.89-1.03-.55-5-1.18-7.2Z"/>
      <path class="cls-10" d="m42.65,86.95c-2.58-6.98-4.71-13.78-4.19-21.04.13-1.86,10.04-5.01,11.38-3.69,1.13,1.11.85,2.86.02,3.66-5.99,5.73-7.92,12.81-7.21,21.07Z"/>
      <path class="cls-7" d="m119.96,235.5c-4.09,2.6-10.75.07-13.74-5.24-3.78-6.71-.86-16.3,5.93-19.48,6.72-3.14,15.37.08,18.11,6.74,2.3,5.6.73,11.82-3.35,13.24,3.41-6.18,3.27-11.52-.43-15.39-3.12-3.27-9.89-4.55-13.81-2.6-4.2,2.09-6.85,7.62-6.06,12.68.9,5.81,4.75,8.72,13.35,10.06Z"/>
      <path class="cls-10" d="m129.45,70.95c-.37,3.53-.79,7.65-1.27,11.76-.12.99-.52,2.17-1.65,2.17-1.41,0-1.16-1.36-1.15-2.27.09-5.63.33-11.09-3.24-16.22-1.87-2.69,1.59-4.97,3.51-5.96,2.82-1.45,2.96,1.7,3.3,3.45.4,2.1.33,4.29.5,7.07Z"/>
      <path class="cls-4" d="m135.46,84.42c.56,4.07-1.02,7.4-3.51,10.42-.8.97-2.04,1.67-3.04.92-.91-.69-.67-2.16-.35-3.27,1.16-4.09,2.06-8.2,1.81-12.49-.1-1.67-.01-3.82,1.73-4.03,1.8-.22,2.48,2.06,2.95,3.54.49,1.53.31,3.27.42,4.91Z"/>
      <path class="cls-4" d="m40.81,99.05c-9.09-5.79-10.93-14.3-4.95-21.84,1.64,3.49,1.89,7.12,2.48,10.59.59,3.49,1.13,6.99,2.47,11.25Z"/>
      <path class="cls-7" d="m29.86,106.94c1.53,11.02.85,18.96-1.9,22.27-2.99-6.17-2.05-17.21,1.9-22.27Z"/>
      <path class="cls-7" d="m138.6,106.55c4.95,7.21,4.12,15.01,2.48,22.9-5.42-7.09-1.25-15.32-2.48-22.9Z"/>
      <path class="cls-4" d="m122.35,238.06c.14-.47.46-1.75.89-3,.64-1.85,2.23-.9,3.41-1.04.6-.07,1.43.03,1.56.88.19,1.22-.77,1.7-1.63,2.14-1.31.67-3.13,1.1-1.48,3.09,1.58,1.91,2.01,5.38,5.58,4.69,1.16-.22,2.52-1.86,2.85.38.25,1.69-.21,3.53-2.76,3.92-4.73.71-8.82-4.08-8.43-11.05Z"/>
      <path class="cls-7" d="m123.71,300.08c1.75,0,3.08.06,4.4-.01,1.7-.09,2.36.64,2.29,2.33-.07,1.59-.3,3.1-2.12,3.43-1.29.24-2.66.26-3.96.09-2.29-.3-5.75,1.51-5.89-3.05-.15-5.14,3.88-1.73,5.29-2.79Z"/>
      <path class="cls-7" d="m104.65,328.75c-4.4,1.02-6.04-.57-5.2-4.29.35-1.58-1.68-4.43,1.92-4.54,2.4-.07,6.87,4.68,6.79,7.29-.1,3.17-2.77,1.1-3.5,1.54Z"/>
      <path class="cls-7" d="m69.35,325.9c1.14,3.19-.69,4.34-3.95,4.04-1.6-.15-3.92,1-4.45-1.64-.4-2,4.73-7.84,6.78-8.06q1.45-.15,1.62,5.65Z"/>
      <path class="cls-7" d="m44.96,299.77c1.85,1.3,5.79-1.74,5.62,2.85-.19,5.08-4.5,2.34-6.9,3-2.11.58-4.33.43-4.21-2.99.16-4.83,3.86-1.38,5.5-2.86Z"/>
      <path class="cls-10" d="m105.24,213.09c-.95,2.1-1.93,3.66-2.36,5.37-.57,2.22-1.76,3.17-3.9,2.59-2.64-.71-1.31-3.01-1.57-4.63-.29-1.81.08-3.38,2.48-3.34,1.62.03,3.24,0,5.35,0Z"/>
      <path class="cls-9" d="m129.06,210.55c2.19.33,4.46-2.99,6.05-.12.78,1.41,1.17,4.95-.61,5.39-3.56.87-3.3-3.61-5.44-5.27Z"/>
      <path class="cls-1" d="m79.45,5.03c-1.53,2.08-4.47.33-6.35,1.82-.25.2-1.71-.67-1.17-1.49,1.03-1.58,1.96-3.56,4.46-3.22,1.55.21,2.9.65,3.06,2.89Z"/>
      <path class="cls-1" d="m17.89,69.49c-.39.43-.81.53-1.26.08.25-.18.49-.35.74-.53.18.14.35.3.52.45Z"/>
      <path class="cls-10" d="m70.17,300.06c-.28-.3-.55-.61-.83-.91.64-.03.92.27.83.91Z"/>
      <path class="cls-7" d="m68.24,279.08c-.31-.26-.62-.52-.94-.78.73-.24,1,.07.94.78Z"/>
      <path class="cls-9" d="m145.34,329.86c.32-.29.63-.57.95-.86.01.65-.3.94-.95.86Z"/>
      <path class="cls-9" d="m23.38,329.02c.34.28.68.55,1.03.83-.63.08-1-.16-1.03-.83Z"/>
      <path class="cls-8" d="m68.33,84.57c.25,2.87.1,5.33-2.79,5.36-3.02.03-4.01-2.43-4.14-5.1-.15-2.89,1.04-4.8,4.21-4.78,3.92.02,2.4,3.11,2.72,4.52Z"/>
      <path class="cls-8" d="m80.5,94.65c2.34.31,4.89.89,6.29-1.02,1.44-1.96-.4-4.03-1.4-5.79-1.5-2.64-1.27-5.07.18-7.64.53,4.07,3.83,7.12,3.81,11.31-.01,2.26.43,4.48-2.61,5.68-3.04,1.2-4.73.08-6.28-2.53Z"/>
      <path class="cls-8" d="m106.38,84.11c.05,2.5,1.09,5.22-2.94,5.02-3.02-.15-3.92-1.83-4.07-4.47-.17-2.99,1.61-5.2,4.05-5.31,2.71-.12,3.66,2.36,2.96,4.76Z"/>
      <path class="cls-8" d="m84.44,110.81c-2.98.62-5.16-.6-7.44-1.45-1.28-.48-2.03-1.27-1.51-2.56.47-1.16,1.74-1.02,2.55-.52,3.67,2.2,7.39,2.65,11.35.87.81-.36,1.67-.13,1.95.87.27.97-.36,1.58-1.18,1.87-1.98.72-3.89,1.92-5.73.92Z"/>
      <path class="cls-8" d="m105.15,73.9c-3.1-.23-4.74.74-6.19,2.2-.69.69-1.48.66-2.1-.08-.82-1-.28-1.88.54-2.51,3.36-2.62,7.01-3.48,11.01-1.54,1.02.49,2.36,1.07,1.64,2.48-.49.95-1.59.75-2.6.24-.99-.51-2.13-.73-2.3-.78Z"/>
      <path class="cls-8" d="m58.65,74.09c.37-.9.63-1.86,1.83-2.05,2-.3,3.76-1.24,6.06-.21,1.85.82,5.05.53,4.61,3.08-.5,2.9-2.71-.32-4.32.05-2.03.47-4.25.14-6.38.11-.72-.01-1.7.28-1.8-.98Z"/>
      <path class="cls-8" d="m99.09,144.25c-.34.42-.65,1.02-1.13,1.38-1.05.78-2.11,1.72-3.31,2.1-2.31.74-5.62,3.96-6.8,1.33-1.33-2.96,3.54-1.9,5.17-3.5,1.02-1.01,2.43-1.66,3.72-2.36.99-.54,1.88-.43,2.36,1.05Z"/>
      <path class="cls-6" d="m51.74,129.27c2.06.1,2.05,1.55,2.41,2.51,5.15,13.86,15.58,23.19,27.1,31.54,2.07,1.5,4.5,1.21,6.85-.38,11.93-8.08,22.81-16.96,26.34-31.95.2-.84.8-1.66,1.64-1.36.99.35,1.19,1.46,1.3,2.5.65,6.2,1.07,12.44,2.08,18.58,2.28,13.98,4.58,28.08,12.11,40.38,2.45,4,4.17,7.65,3.77,12.27-.24,2.78-5.31,5.08-10,4.71-3.82-.3-3.17-2.17-2.21-4.73.73-1.96-.23-3.64-2.34-4.25-2.62-.75-3.94.88-5.1,2.91-1.05,1.85.99,4.74-2.39,5.87-5.03,1.67-10.17,4.56-15.33,2.82-5.79-1.95-11.49-.98-17.2-1.56-3.16-.32-5.73,1.73-8.59,1.72-12.03-.05-23.86-1.88-35.44-5.11-3.41-.95-5.02-7.29-2.45-9.91,8.02-8.17,9.37-19.06,12.12-29.3,3.27-12.16,3.36-24.87,5.32-37.25Z"/>
      <path class="cls-6" d="m137.38,200.9c-.05-3.48.31-6.06,1.43-8.81,2.06-5.03.75-10.54-.52-15.46-2.4-9.25-3.53-18.64-4.76-28.05-.85-6.5-1.73-13-2.76-19.47-.21-1.34-.78-2.88.28-3.67,1.33-.99,2.46.55,3.37,1.36,9.02,7.93,14.24,18.36,18.52,29.24,5.78,14.7,10.19,29.84,13.31,45.34,1.38,6.9,1.08,7.71-5.55,9.55-4.88,1.36-9.89,2.42-14.91,3.02-4.05.49-7.89.17-7.58-5.94.13-2.47-1.19-5.11-.83-7.11Z"/>
      <path class="cls-6" d="m38.92,123.96c-3.12,14.11-3.61,27.26-5.98,40.21-1.56,8.53-5.59,17.13-3.35,25.86,1.88,7.33.34,14.15-.17,21.22-.2,2.82-1.19,3.98-3.91,3.72-7.03-.67-13.97-1.84-20.28-5.21-4.03-2.15-2.05-6.35-1.56-8.97,2.33-12.54,4.49-25.18,8.8-37.25,4.08-11.43,9.08-22.38,17.17-31.66,2.4-2.75,4.97-5.27,9.27-7.92Z"/>
      <path class="cls-3" d="m66.6,128.9c12.5,4.66,24.73,4.07,37-1.25q-1.35,3.54-7.71,8.8c-.72.59-1.94,1.08-1.06,2.28.57.78,1.6.56,2.28.09,4.14-2.87,8.94-5.03,9.37-11.24.22-3.14,3.77-3.73,6.2-5.9,1.07,2.61.88,4.77.22,6.96-4.34,14.45-13.98,24.6-26.38,32.52-1.41.9-2.95,1.21-4.16.13-8.91-7.93-18.71-15.09-23.78-26.47-1.89-4.23-3.66-8.5-4.17-13.76,3.61,2.53,6.54,4.52,8.46,8.42,3.01,6.14,8.63,9.96,14.87,12.76,1.13.51,2.11,1.29,2.92-.17.95-1.72-.74-1.83-1.64-2.31-4.81-2.56-9.66-5.06-12.42-10.85Zm32.49,15.34c-.48-1.48-1.37-1.59-2.36-1.05-1.29.7-2.69,1.35-3.72,2.36-1.63,1.61-6.5.54-5.17,3.5,1.18,2.62,4.49-.59,6.8-1.33,1.21-.39,2.26-1.32,3.31-2.1.48-.36.8-.96,1.13-1.38Z"/>
    </g>
  </g>
</svg>