<?xml version="1.0" encoding="UTF-8"?>
<svg id="Layer_2" data-name="Layer 2" xmlns="http://www.w3.org/2000/svg" viewBox="0 0 230.05 285.81">
  <defs>
    <style>
      .cls-1 {
        fill: #020203;
      }

      .cls-2 {
        fill: #f3c200;
      }

      .cls-3 {
        fill: #e8c086;
      }

      .cls-4 {
        fill: #fcfcfc;
      }

      .cls-5 {
        fill: #f3c49f;
      }

      .cls-6 {
        fill: #cf4c47;
      }

      .cls-7 {
        fill: #a9825e;
      }

      .cls-8 {
        fill: #0f0e0e;
      }

      .cls-9 {
        fill: #886a4e;
      }

      .cls-10 {
        fill: #7b5e49;
      }

      .cls-11 {
        fill: #fff;
        stroke: #000;
        stroke-miterlimit: 10;
        stroke-width: .5px;
      }
    </style>
  </defs>
  <g id="Layer_1-2" data-name="Layer 1">
    <g>
      <path class="cls-4" d="m5.13,282.67h8.84c1.36,0,2.72.03,4.08,0s2.64-.31,3.97-.37c1.02-.05,1.97.02,2.97.24.86.19,1.7.23,2.58.34.81.1,1.64.26,2.45.29.69.02,1.41-.09,2.09.02.97.15,2.02.35,3,.34s2.03-.01,3.05,0c.53,0,1.05-.08,1.58-.15,1.64-.21,3.3-.25,4.94-.46,1.19-.16,2.38-.36,3.56-.55.4-.06.8-.11,1.2-.16s.79-.19,1.2-.26c.99-.17,2.1-.02,3.08.1.64.08,1.27.12,1.9.24.51.09,1.08,0,1.58-.09.85-.15,1.73.12,2.57-.18.51-.18.88-.57,1.33-.84.5-.3.73-.77.93-1.32.15-.42.09-.87.09-1.31v-1.43c0-.41,0-.82,0-1.23,0-.56-.35-.86-.89-1.02-.21-.06-.41-.05-.62-.11-.15-.04-.29-.15-.44-.2-.22-.07-.43-.14-.66-.15-.39-.01-.76.14-1.16.13-.42,0-.84,0-1.27,0s-.9-.06-1.31,0c-.37.06-.7.21-1.08.24-1.02.08-2.01.13-3.03.12-1.58,0-3.26.18-4.8-.23-1.79-.48-3.5-1.12-5.36-1.28-2.31-.2-4.67-.14-6.91.51-1.01.29-2.13.14-3.18.14s-2.12-.08-3.16.02c-.8.07-1.59.24-2.38.32-.63.07-1.25.27-1.88.28-.35,0-.69,0-1.04,0-.38,0-.79.06-1.16,0-.28-.05-.51-.27-.76-.34-.36-.1-.76,0-1.11.09-.57.16-.98.26-1.56.25-.2,0-.46.05-.64,0-.16-.04-.3-.18-.44-.25-.38-.2-.77-.36-1.16-.53-.45-.2-.9-.42-1.35-.62-.9-.38-1.86-.58-2.84-.58-.27,0-.54,0-.82,0-.32,0-.59-.11-.91-.13-.62-.03-1.28.08-1.9,0-.29-.04-.54-.15-.84-.12-.42.04-.74.25-1.06.5-.56.44-.96.95-1.17,1.63-.49,1.59-.34,3.26-.34,4.91,0,.3,0,.57.06.86.07.31.02.59.06.89.05.49.34.85.4,1.31.03,0,.07.01-.27.14Z"/>
      <path class="cls-8" d="m215.25,254.65c-.65,2.71-1.44,5.91,3.8,6.72,6.44.99,11.33,8.77,10.97,15.13-.32,5.61-2.44,7.42-7.92,7.74-12.45.73-24.65-2.39-37.07-2.12-2.77.06-3.97-1.55-4.16-4.74-.45-7.48,1.86-14.8.98-22.26,1.25-2.26,1-4.74,1.21-7.19.19-2.2-1.79-5.22,2.44-6.29,1.48-.37.44-6.46-1.07-6.41-8.88.32-14.98-6.01-22.39-9.19-2.87-2.64-6.24-3.45-10.02-2.7-6.02,1.43-12.14.75-18.21.71-3-.02-5.44.77-7.86,2.39-3.57,2.38-7.23,4.63-10.94,6.79-3.01,1.75-6.19,3.04-9.37,1.24-2.4,4.42,1.05,6.98,2.42,10.21,1.94,4.57.06,9.81,2.14,14.43v6c0,.67,0,1.33-.01,2-.23,1.81.11,3.5.47,5.3.77,3.8,1.43,7.68-3.32,10.15-2.78,1.45-4.7-.46-7.03-.52-4.62-.11-8.66,2.25-13.37,2.25-13.88,0-27.8-1.06-41.67.7-2.37.3-4.55,1.34-7.49.45-4.56-1.38-10.05-1.4-14.52-.79-6.57.91-12.7-.98-19.03-.54-1.87.13-2.93-.62-3.38-2.7-1.38-6.41-2.35-11.24,7.21-10.38,1.46.13,2.88.33,4.33.61,3.51.68,7.28,1.35,10.6-.53,4.1-2.32,8.48-3.05,13.05-3.23,5.64-1.06,10.28,1.23,14.7,4.36,3.46,2.45,10.4.68,12.19-3.18,1.47-3.17,3.72-5.27,7.11-6.14,1.82-1.18,4.59-.41,5.82-2.83.48-3.72.91-7.44-.85-10.99.05-1.58.09-3.15.14-4.73.62-.21,1.02-.54.71-1.26.02-1.46.03-2.84-.32-4.35-1.21-5.16-2.87-10.27-2.67-15.68.19-.68-.18-.98-.77-1.12-4.47-14.71-1.16-29.97-3.23-44.85.32-2.02.51-4-1.78-5.12-2.7-5.32-3.41-11.01-3.23-16.88-.97-3.7,2.82-7.29.27-11.03-.54-3.16.55-6.04,1.93-8.71,2.5-4.83,3.83-10,5-15.25,2.48-5.07,6-9.97,2.68-16.01,1.24-7.64.98-15.9,8.5-20.97.91-.61,1.01-1.44.73-2.1-2.48-5.93,1.21-10.14,3.95-14.63,2.61-2.2,5.1-4.51,7.12-7.28.66-.38,1.32-.75,1.98-1.13,3.36-2.21,6.73-4.42,10.09-6.64,2.32-.52,3.48-1.75,2.63-4.24.78-3.96,1.56-7.92,2.34-11.87,1.05-.43.82-1.32.77-2.14,1.72-3,3.43-5.99,5.15-8.99h.01c.61-.04.98-.29.85-.98.33-.57.66-1.15,1-1.72,4.98-5.48,11.01-9.58,17.41-13.18.92-.09,1.83-.19,2.75-.28,1.36-1.13,4.65-.45,3.63-3.83.77-2.11,1.67-4.09,4.37-4.17,2.72.51,6.54-.99,7.7,2.54.79,2.4,1.78,2.47,3.77,2.69,7.67.84,15.19,3.58,21.14,7.83,8.54,6.1,14.02,15.22,16.43,25.79.59,2.6,2.42,3.67,5.04,4.45,8.99,2.66,17.18,6.83,23.46,14.08,3.5,4.05,3.32,9.9-.1,13.86-5.26,6.09-12.89,7.79-19.75,10.88-2.54,1.14-4.54,6.18-2.91,8.51,4.34,6.2,5.96,12.73,3.57,20.24-.57,1.8-1.98,4.04-.01,6.43,11.42,13.88,16.8,30.05,17.71,47.85-.63,6.32.46,12.71-.9,19,.26,5.43-3.46,10.65-.27,16.32,2.45,4.37,1.38,8.93-1.62,12.81-1.15,1.48-1.3,2.92-1.25,4.59.12,4.43-1.47,8.71-1.66,12.97-.2,4.58-4.29,8.73-1.46,13.53-.04,3.43.17,6.81-.66,10.28ZM7.09,281.83c2.49-.01,5.03-.35,7.46.04,4.99.8,5.09-2.99,4.74-5.67-.26-2.01-3.67-1.94-5.38-1.8-2.64.22-5.79-3.07-7.44-.11-.75,1.34.84,4.47-.16,6.82-.31.85.11.92.78.72Zm92.22-80.49c.16.35.32.7.48,1.05,6.78,8.47,10.81,18.04,11.46,28.94,3.92-1,5.23-3.34,3.61-8.98-1.4-4.87-2.95-9.76-5.63-14.23-2.08-3.49-4.53-6.05-8.71-6.53-.4-.08-.8-.16-1.21-.24Zm76.9,22.72c-.34,2.04-3.07,5.09.79,6.98,1.78.87,2.96,1.4,3.07-1.48.43-10.94,5.23-20.06,12.09-28.28.52-.24,1.04-.47,1.56-.71-.72-.7-1.42-.39-2.11.06-11.38,3.67-13.75,13.46-15.4,23.41Zm-38.42-98.57c-.77.58,0,.51.27.65,3.7,5.08,10.05,6.52,14.42,10.69-12.08-1.84-19.08-10.96-26.78-19.51-.96,4.99-.52,6.67,2.72,10.73,5.42,6.78,11.59,12.82,18.04,18.6,1.85,1.66,3.68,3.37,5.36,5.21,4.93,5.37,4.95,5.47,10.7,1.2,9.14-6.79,16.38-15.04,19.76-26.2.58-1.93,1.13-3.81.46-6.2-2.78,1.93-6.43,2.04-6.34,7.21.06,3.42-3.96,5.45-7.06,7.15-.75.41-1.75.46-2.21-.37-.46-.82.07-1.62.82-2.1,2.49-1.62,4.99-3.22,6.78-5.78-1.11-1.09-2.24-.67-3.22-.28-10.4,4.11-20.76,3.38-31.12-.15-.73-.25-1.6-.09-2.41-.13-.07-.24-.13-.48-.2-.72Zm81.43-69.28c-7.69-6.4-15.59-10.07-24.1-11.92-15.61-3.4-31.31-3.84-47.25-1.26-16.86,2.74-33.31,6.17-47.87,15.63-3.48,2.26-6.86,4.7-9.26,8.22-.66.57-.85,1.21-.33,1.98.41-.38.82-.77,1.24-1.15,40.87-17.51,82.91-22.47,127.58-11.49Zm-89.12,25.13c-.13,1.86.35,5.2-2.14,4.46-2.36-.7-7.62,1.45-6.98-4.42.44-4.04-.84-6.87-5.35-7.22-5.54-.43-9.68,2.26-10.54,6.8-1.37,7.2,2.93,13.14,10.26,14.18,2.23.32,2.37.41,1.09,2.33-.9,1.36,0,2.08.44,3.09,5.8,13.23,16.26,20.85,29.84,24.57,27.61,7.58,48.22-14.88,52.05-35.9,1.44-7.87.36-16.07-1.84-23.95-.4-1.42-1.34-1.75-2.48-2.02-1.59-.38-3.32-.46-4.78-1.13-3.27-1.5-5.87-2.35-9.24.69-2.89,2.61-7.3,1.73-11.06.87-4.56-1.04-9.17-2.76-12.48-5.82-5.75-5.34-11.76-1.75-17.67-1.72-1.42,0-1.09,1.35-1.2,2.29-.58,5.26-2.73,9.75-6.65,13.32-2.28,2.08-.77,4.74-1.28,6.39,0,1.52.05,2.36,0,3.18Zm53.24,49.93c-4.4,11.79-12.88,20-23.17,26.66-2.94,1.9-5.23,1.82-7.75-1.1-8-9.29-18.08-16.54-25.88-26.68-2.57,19.67-7.51,37.33-25.42,48.29,4.04,3.47,8.78,4.96,13.48,6.44,7.27,2.29,14.86,3.78,22.36,3.91,4.23.07,8.78-1.59,13.26-2.13,3.46-.42,6.88-.06,10.26-.12,8.53-.16,16.65-2.64,23.66-7.91.73-.55.96-1.33.89-2.2-1.31-15.69,2.58-31.27.9-46.97-.03-.28-.26-.55-.53-1.1-1.75.55-1.67,1.94-2.04,2.93Zm-72.55-11.21c-2.13-11.58-5.18-12.77-14.85-5.59-10.1,7.5-16.27,17.93-20.5,29.5-5.3,14.49-5.09,29.49-3.35,44.57.24,2.05,1.2,3.7,3.02,1.85,5.67-5.74,12.81-4.16,19.54-4.29,3.2-.06,4.48.25,3.94-4.09-1.52-12.21.65-24.09,5.53-35.43.62-1.44,1.45-3.18,3.15-2.23,1.76.98-.17,2.25-.6,3.32-1.15,2.89-2.98,5.58-2.02,8.99,7.04-11.35,8.5-23.7,6.13-36.61Zm2.68,90.28c2.79,5.39,3.91,11.28,4.56,17.23.49.03.94.19,1.09.04,10.25-9.77,23.42-5.88,35.39-7.55,1.47-.2,3.01,0,4.43-.33,1.65-.39,2.02-.5,2.93,1.59,1.81,4.15,6.72,4.7,10.78,7.1.29-9.44,3.62-17.25,8.53-24.48.55-.8,1.38-1.59,1.02-2.68-1.58-4.79,1.18-7.86,4.22-10.84.64-.62,1.92-1.09.93-2.31-.76-.93-1.66-.82-2.6-.08-7.75,6.09-17.2,8.55-26.23,11.69-5.76,2-11.98,3.72-18.21,1-3.66-1.59-7.55-.08-11.34-.89-7.14-1.52-14.18-3.33-20.81-5.84-1.22,6.72,2.7,11.27,5.32,16.33Zm84.61-77.51c-.19,9.35-2.12,18.35-4.96,27.19-.87,2.71-1.23,5.09-.35,8.11,1.4,4.79-.32,9.8-.86,14.71-.26,2.41-.32,3.97,3.08,3.02,6.97-1.95,13.64-.81,19.33,3.73,3.09,2.47,3.83,1.06,4.34-1.79,2.68-15.06,2.01-29.91-2.65-44.56-3.54-11.13-8.89-21.13-17.42-29.26-.93-.89-1.8-2.02-3.97-1.81,1.39,7.07,3.6,13.66,3.46,20.67ZM147.64,8.22c-15.29,1.57-30.94,15.62-34.26,31.41,24.82-9.2,49.93-13.16,76.53-8.03-6.89-15.97-24.2-25.23-42.27-23.38Zm-49.11,225.18c4.13-.55,3.99-2.5,3.08-5.32-.97-3.01-1.44-5.75,2.42-7.11,2.39-.84,2.08-2.3,1.23-4.3-2.31-5.41-5.43-10.19-9.52-14.43-1.69-1.75-3.45-2.35-5.71-2.09-8.5.96-14.78,8.2-15.05,16.75-.14,4.49,1.03,8.78,1.12,13.2.04,1.8.63,3,2.93,3.1,3.57.15,7.05,1.6,9.6.97,4.05-.14,6.95-.38,9.89-.77Zm111.87.79c2.28.23,3.45-.99,3.96-2.86,1.63-5.93,2.23-12.05,1.49-18.1-.65-5.39-9.45-12.47-14.92-13.12-3.04-.36-4.62,1.79-6.29,3.32-4.19,3.84-7.14,8.65-9.28,13.93-.6,1.48-1.1,3.13,1.08,3.51,4.82.83,4.16,4.33,3.14,7.18-1.24,3.48.18,4.61,3.08,4.91,4.08.42,8.06,1.92,11.38,1.2,2.7,0,4.54-.15,6.36.04Zm-8.81,24.58c2.65-.39,5.12-1.88,7.96-.8,1.3.5,2.97-.03,3.19-1.55.27-1.86-1.64-1.76-2.82-2.01-1.29-.27-2.66-.41-3.97-.28-4.12.39-6.9-.43-5.95-5.52.48-2.58-1.63-3.1-3.37-3.28-2.8-.28-5.65-.16-8.47-.13-.61,0-1.44.16-1.8.58-2.53,2.9-1.29,14.72,1.78,17.28,1.57,1.3,3.3,2.82,3.54,4.71.84,6.72,5.97,7.03,10.75,7.26,7.3.35,14.62.06,21.93.13,2.78.03,2.93-1.02,2.04-3.37-3.11-8.2-11.54-10.74-18.38-5.41-.79.62-1.47,2.42-2.7,1-1.2-1.37.36-2.28,1.15-3.31,1.53-1.97,4.22-1.58,6.96-3.54-4.56-.68-8.19-1.22-11.83-1.76Zm-111.36.4c-3.5,1.97-7.48-.06-11.46,1.64,2.43,1.38,4.39,2.39,6.23,3.6,1.05.69,2.67,1.66,1.64,3.1-1.26,1.76-2.2-.14-3.17-.83-7-4.97-15.65-2.74-18.69,4.72-1.23,3.01-1.12,4.68,2.86,4.5,8.47-.39,16.96-.43,25.44-.86,2.51-.13,4.9-.56,5.19-4.4.27-3.5,2.7-6.41,5.98-8.14,1.19-.63,2.77-.99,2.7-2.53-.22-4.6-.61-9.19-1.1-13.76-.13-1.26-1.45-1.13-2.42-1.12-2.16.03-4.34,0-6.49.2-3.24.3-5.65,1.32-4.9,5.46.65,3.56-1.28,4.72-4.66,4.47-2.7-.2-5.42-.04-8.14-.04,0,.48-.01.95-.02,1.43,3.47,1.17,7.59-.38,11,2.58Zm26.76-151.94c-2.58-3.28-5.66-1.93-8.6-1.69-1.12.09-1.08,1.18-.22,2.23,6.26,7.7,7.31,16.93,6.69,26.26-.5,7.55-2.43,14.96-5.99,21.79-1.47,2.81-2.91,5.71-5.43,7.69-3.23,2.53-2.37,5.98-2.4,9.19-.03,2.13,1.38,1.22,2.4.71,2.44-1.21,4.36-3.06,6.05-5.13,9.39-11.5,13.66-24.77,13.65-42.42.3-4.96-1.09-12.22-6.13-18.62Zm.43-66.06c-1.08.41-2.1,1-3.18,1.42-2.18.84-2.64,2.64-1.95,4.46.85,2.25,2.57.64,3.77.24,17.11-5.75,34.66-8.9,52.72-8.82,6.45.03,12.93.38,19.34,1.46,1.54.26,4.08,1.65,4.61-.82.53-2.47-1.2-4.31-3.93-4.82-7.51-1.4-15.06-2.42-22.75-2.3-16.68.53-32.97,3.18-48.63,9.18Zm-37.25,72.84c3.14,4.52,5.4,4.18,10.16,1.64,9.55-5.1,8.8-14.56,6.06-22.91-1.71-5.21-5.95-6.34-10.17-7.64-2.45-.76-4.03,1.26-5.26,3.01-2.95,4.21-4.46,8.89-3.84,14.23-.57,4.22.59,8.15,3.04,11.68Zm135.23,79.53c-7.91-7.33-21.38-7.73-28.28-.05-1.12,1.24-2.26,2.4-2.08,4.32.15,1.66.44,2.32,2.43,1.7,14.53-4.52,22.61-1.6,31.01,11.04,2.39-4.3,1.04-13.19-3.08-17.02Zm-113.81,5.54c1.3.5,2.81,1.65,4.05-.02,1.16-1.56-.59-2.36-1.21-3.36-5.93-9.61-23.12-9.75-29.1-2.33-4.12,5.12-5.39,10.67-2.97,17.36,6.19-11.56,17.78-16.01,29.24-11.65Zm119.24-128.61c4.89-4.13,4.46-7.33-1.2-10.1-4.19-2.05-8.62-3.47-13.23-4.16-1.85-.28-4.25,0-3.22,2.74,2.49,6.63,2.37,13.13-.98,20.69,7.59-2.55,13.61-4.92,18.63-9.16Zm-90.43-2.12c.88-.71,1.48-1.79,2.1-2.77,1.51-2.41,3.37-5.41,1.74-7.76-1.37-1.97-4.31.24-6.48.68-4.71.95-9.31,2.46-14,3.55-4.18.97-3.76,4.15-3.58,7.11.21,3.5,3.01,1.75,4.62,1.84,5.62.31,7.89,2.13,8.35,7.13.17,1.85-.68,4.87,2.12,4.73,3.49-.17.97-3.47,1.84-5.1-.82-3.88.25-6.97,3.29-9.42Zm-28.63,15.2c-.19-4.19,1.97-7.31,4.85-9.97.78-.72,1.54-1.23,1.4-2.36-.27-2.24,1.11-5.14-.76-6.55-1.42-1.07-3.68.81-5.48,1.57-4.91,2.07-9.8,4.23-13.94,7.67-4.05,3.36-3.87,5.81.55,8.47,3.32,2.01,7,3.03,10.78,3.66,2.1.43,2.69-.62,2.6-2.49Zm96.69-28.05c-.31-1.02-1.49-1.17-2.51-1.3-12.56-1.58-25.16-1.21-37.75-.66-.24.01-.47.39-.98.84,5.22,3.72,10.53,6.73,17.09,6.94,3.02.1,5.72-.46,7.29-3.25,1.23-2.2,2.62-2.1,4.47-.98,3.15,1.91,6.42,3.47,10.27,3.23,1.8-.11,2.79.66,2.74,2.62-.05,2.14.56,4.1,2.42,7.24,1.1-6.39-1.72-10.37-3.04-14.69Zm-6.56,56.79c-4.58,2.66-4.89,5.72-4.1,10.47,1.73,10.49,1.54,21.2.57,31.84-.26,2.89-.55,5.76.15,9.97,7.58-17.77,7.72-34.65,3.38-52.27Zm-88.01,76.78c10.2,4.61,20.79,7.68,32.06,8.06,1.9.06,3.2-.28,3.18-2.64-.02-1.93-.35-3.19-2.64-3.24-11.88-.23-23.12-3.37-34.14-8.03-.54,2.49-1.05,4.67,1.55,5.85Zm-4.13,54.07c2.27.05,3.49-.91,3.25-3.23-.21-2.01-.6-3.87-3.38-3.78-6.57.23-13.08,1.66-19.69,1.03-1.55-.15-2.25.69-1.85,2.05.46,1.55.12,3.86,2.75,3.88,3.32.03,6.64,0,9.96,0,2.99.01,5.98-.03,8.96.03Zm109.8-.02c3.25.06,3.05-2.76,3.23-4.51.24-2.4-2.1-1.32-3.31-1.43-5.68-.48-11.39-.76-17.07-1.24-1.25-.11-3.23-2-3.21.63.01,1.77-2.17,4.77,2.25,5.72,3.78.81,7.46.56,10.13.83,3.35,0,5.67-.04,7.98,0Zm-112.99,36.06c2.28-1.14,4.6,1.56,7.2.84,1.57-.43,3.85-.18,3.86-2.26,0-2.69-2.52-1.64-3.84-1.48-12.32,1.44-24.67,2.01-37.06,1.99-.94,0-2.25-.2-2.31,1.17-.04,1.12,1.14,1.4,2.06,1.84,2.7,1.29,5.55.58,9.48.98,5.99-1.88,13.64.41,20.61-3.07Zm-26.02-147.5c-.77,2.69.93,3.57,2.7,4.55,2.42,1.33,2.74-.92,3.52-2.17.96-1.55,1.9-3.14,2.59-4.82,1.18-2.86,5.25-4.89,4.3-7.81-.78-2.4-4.22-3.94-6.97-6.27-3.09,5.38-4.55,10.97-6.14,16.53Zm72.97,58.62c-2.52-.04-1.39,2.52-1.5,3.95-.15,1.92-.51,4.23,2.32,4.71,4.19.7,8.31-.37,12.17-1.53,2.92-.88,1.69-4.38,1.54-6.63-.22-3.32-3.29-.78-4.51-1.75-3.59-.2-6.66,1.3-10.03,1.25Zm79.21,90.9c1.35,0,3.04.02,3.15-1.66.13-2.11-1.83-1.48-2.98-1.5-4.33-.08-8.63-.49-12.94-.7-7.95-.4-15.92-.17-23.83-1.34-1.05-.15-2.56-.55-2.88,1.08-.38,1.94,1.18,2.06,2.53,2.19,2.08.2,4.18,1.29,6.2-.44.52-.44,1.77-.66,2.31-.34,5.81,3.44,12.2,2.51,18.45,2.72,3.33,0,6.66,0,9.99,0ZM104.08,106.28c1.44-3.02,3.62-4.51,7.12-4.24,1.78.13,4.02-1.31,2.05-2.86-4.11-3.24-8-6.72-12.09-9.97-.5-.4-1.58-.05-2.95-.05,2,6.13,3.79,12.09,2.55,18.58,2.01-.03,2.88-.53,3.32-1.46ZM25.61,281.95c6.5,1.85,12.97,1.35,19.37-.06,1.54-.34,4.51-1.07,3.76-3.58-.63-2.11-3-1.15-4.61-.67-7.29,2.2-14.47,2.11-21.51-1.01-1.46,3.3.09,4.49,2.99,5.32Zm150.3-96.16c-3.94,1.24-7.9,2.49-11.94,3.33-2.63.55-3.37,2.04-2.92,4.22.67,3.19,2.87,1.28,4.25.82,5.83-1.94,11.49-4.31,16.66-7.7.96-.63,2.02-1.37,1.58-2.77-.1-.32-.78-.45-1.02-.58-2.33.96-4.42,1.99-6.61,2.68Zm20.67-82.57c-1.69,3.77-.17,7.44,3.93,8.45,2.34.58,2.36-1.69,2.43-3.08.25-4.95.49-9.94-2.45-14.75-1.37,3.3-2.56,6.37-3.91,9.38Zm-106.7,146.58c.25-1.37-.72-2.92-1.79-3.21-3.01-.81-6.19-.74-9.22-.06-1.28.29-.81,2-.73,3.08.36,4.88,4.44.81,5.63,2.72,2.5-.72,5.48.99,6.11-2.53Zm112.16-1.15c-.23,3.95,2.63,3.61,5.03,3.38,2.34-.23,6.06,1.69,6.03-3.21-.02-4.63-3.69-1.65-5.41-2.9-1.86,1.16-5.39-1.73-5.65,2.74Zm-96.19,16.32c-3.5.71-4.74,4.01-5.08,7.17-.27,2.53,2.12,1.84,3.63,1.97,4.31.37,3.62-2.72,3.64-5.52-.31-1.34.78-4.22-2.19-3.62Zm-44.58,14.48c.4-.81,1.28-3.85-1.5-4.26-2.08-.31-4,.96-6.18,1.07-3.28.17-.17,3.68-2.14,5.08,3.37-1.23,7.57,2.7,9.82-1.89Zm125.25-6c1.28.47,2.4,1,3.64-.06,1.57-1.33.2-2.4-.3-3.45-1.12-2.34-2.17-4.83-6.17-5.81,1.46,3.42-2.21,7.45,2.83,9.32Zm-115.9-127.38c2.27-.15,2.59-3.38,2.79-5.25.28-2.66-2.75-3.36-4.51-3.51-2.09-.18-1.71,2.27-1.85,3.81-.32,2.8,1.1,5.12,3.57,4.96Zm-46.11,126.95c3.59,4.3,16.31,4.3,22.18.1-7.44,1.58-14.76,3.74-22.18-.1Zm42.73-107.98c.45-5.4,4.6-10.79,1.57-16.2-.52,0-1.05,0-1.57,0v16.21Zm120.29,18.88c2.84-2.03,3.37-5.84,1.74-12.49-2.61,2.97-2.97,5.57-1.74,12.49Zm-3.04,47.9c2.51.08,2.65-1.82,2.52-3.84-.13-1.95.35-4.57-2.48-4.38-2.77.18-.99,2.91-1.65,4.4.75,1.25-1.3,3.73,1.6,3.82Zm-78.36-8.54c-2.47.1-2.07,2.02-2.1,3.6-.04,1.8-.25,4.11,2.21,4.08,2.98-.03,1.16-2.76,1.8-4.16-.43-1.34,1.04-3.65-1.92-3.53Zm-64.61,48.3q-3.42-1.57-12.41-.08c4.5,1.52,8.47,2.71,12.41.08ZM152.33,4.5c-.21-1.41-1.95-2.54-3.84-2.41-1.68.11-3.19,1.1-2.98,2.61.24,1.77,2.19,1.49,3.84,1.41,1.08-.21,3.29.49,2.98-1.61Zm67.14,52.48c.12,0,.22-.21.34-.33-.13-.1-.26-.28-.38-.27-.12,0-.22.21-.34.33.13.1.26.28.38.27Z"/>
      <path class="cls-8" d="m39.03,264.13c.48-.05,1.29.07,1.4-.16q3.51-7.11,11.25-6.56c-1.49,3.03-4.62,1.58-6.74,2.38-4.24,1.61-1.45,4-2.2,6.86q4.96-6.37,13.83-3.67c.78.24,1.88.45,2.25-.36.35-.77.46-1.89-.89-2.33-2.41-.79-3.71-2.33-4.43-4.97-.57-2.08-3.18-1.09-4.9-1.17-1.81-.08-3.64.15-5.46.24-3.58,2.32-6.87,4.75-4.12,9.74Z"/>
      <path class="cls-5" d="m131.38,71.75c3.91-3.57,6.07-8.07,6.65-13.32.1-.94-.22-2.28,1.2-2.29,5.91-.03,11.92-3.62,17.67,1.72,3.3,3.07,7.92,4.79,12.48,5.82,3.75.86,8.17,1.74,11.06-.87,3.37-3.04,5.97-2.19,9.24-.69,1.46.67,3.18.75,4.78,1.13,1.14.27,2.09.61,2.48,2.02,2.2,7.87,3.28,16.08,1.84,23.95-3.84,21.03-24.44,43.48-52.05,35.9-13.58-3.73-24.04-11.34-29.84-24.57-.44-1.01-1.35-1.73-.44-3.09,1.28-1.92,1.14-2.01-1.09-2.33-7.34-1.04-11.64-6.98-10.26-14.18.87-4.54,5-7.24,10.54-6.8,4.51.35,5.79,3.18,5.35,7.22-.64,5.88,4.62,3.72,6.98,4.42,2.49.74,2.01-2.6,2.14-4.46.06-.83,0-1.66,0-3.18.51-1.65-1-4.31,1.28-6.39Zm39.15,15.06c.98,2.35,2.27,6.11-3.18,4.41-.83-.26-1.76-.03-2,.92-.33,1.29.75,1.65,1.68,1.96,4.18,1.38,7.89-1.65,6.94-5.97-.83-3.75-3.04-7.06-4.08-10.88-1.31,3.4-.67,6.41.65,9.57Zm-18.27,14.61c-.85.6-1.66,1.33-.97,2.41.5.77,1.48.78,2.25.32,5.49-3.31,10.77-2.23,15.99.69.74.41,1.72.64,2.28-.11.81-1.06-.07-1.81-.86-2.42-3.13-2.42-6.77-2.44-10.48-2.12-2.78.05-5.68-.57-8.2,1.23Zm-41.6-22.07c-.07,1.57,1.26,1.49,2.16,1.92,2.17,1.02,2.86,2.21.39,3.77-1.01.64-2.03,1.54-.9,2.76.89.96,1.69-.03,2.54-.52,1.55-.88,1.6-.79,4.88,1.85-.97-7.34-3.42-9.87-9.07-9.78Zm42.6,3.92c.98-.86,2.47-1.72,1.74-3.17-1.01-1.99-2.16-.3-3.16.31-1.88,1.15-3.57,1.08-5.5-.12-.69-.43-2.31-2.26-3.18,0-.68,1.77.55,2.87,2.02,3.4,1.2.44,2.55.46,2.75.49,2.59.02,4.1.18,5.35-.91Zm35.52,2.03c.8-.65,1.69-1.44,1.3-2.42-.45-1.14-1.69-.87-2.52-.4-2.23,1.25-3.9-.55-5.8-.96-1.27-.27-2.71-.95-3.36.41-.51,1.06.7,2.07,1.58,2.81,1.46,1.22,3.17,1.67,4.9,1.45,1.48.05,2.77.02,3.89-.89Zm-33-14.4c.02-2.87-4.09-1.64-6.38-1.64-2.43,0-6.76-1.47-6.75,1.66.01,2.7,4.47.42,6.76,1.44,2.22-.87,6.35,1.16,6.36-1.46Zm33.7,4.21c.92.22,2.1.4,2.3-1.01.13-.91-.56-1.51-1.38-1.81-3.58-1.32-7.22-1.68-11.08.26,3.38.86,6.76,1.75,10.15,2.55Z"/>
      <path class="cls-7" d="m108.15,193.99c-1.22,6.72,2.7,11.27,5.32,16.33,2.79,5.39,3.91,11.28,4.56,17.23.49.03.94.19,1.09.04,10.25-9.77,23.42-5.88,35.39-7.55,1.47-.2,3.01,0,4.43-.33,1.65-.39,2.02-.5,2.93,1.59,1.81,4.15,6.72,4.7,10.78,7.1.29-9.44,3.62-17.25,8.53-24.48.55-.8,1.38-1.59,1.02-2.68-1.58-4.79,1.18-7.86,4.22-10.84.64-.62,1.92-1.09.93-2.31-.76-.93-1.66-.82-2.6-.08-7.75,6.09-17.2,8.55-26.23,11.69-5.76,2-11.98,3.72-18.21,1-3.66-1.59-7.55-.08-11.34-.89-7.14-1.52-14.18-3.33-20.81-5.84Z"/>
      <path class="cls-3" d="m189.91,31.6c-6.89-15.97-24.2-25.23-42.27-23.38-15.29,1.57-30.94,15.62-34.26,31.41,24.82-9.2,49.93-13.16,76.53-8.03Z"/>
      <path class="cls-3" d="m91.63,67.7c40.87-17.51,82.91-22.47,127.58-11.49-7.69-6.4-15.59-10.07-24.1-11.92-15.61-3.4-31.31-3.84-47.25-1.26-16.86,2.74-33.31,6.17-47.87,15.63-3.48,2.26-6.86,4.7-9.26,8.22.3.28.6.55.9.83Z"/>
      <path class="cls-5" d="m88.65,234.17c4.05-.14,6.95-.38,9.89-.77,4.13-.55,3.99-2.5,3.08-5.32-.97-3.01-1.44-5.75,2.42-7.11,2.39-.84,2.08-2.3,1.23-4.3-2.31-5.41-5.43-10.19-9.52-14.43-1.69-1.75-3.45-2.35-5.71-2.09-8.5.96-14.78,8.2-15.05,16.75-.14,4.49,1.03,8.78,1.12,13.2.04,1.8.63,3,2.93,3.1,3.57.15,7.05,1.6,9.6.97Z"/>
      <path class="cls-5" d="m204.05,234.15c2.7,0,4.54-.15,6.36.04,2.28.23,3.45-.99,3.96-2.86,1.63-5.93,2.23-12.05,1.49-18.1-.65-5.39-9.45-12.47-14.92-13.12-3.04-.36-4.62,1.79-6.29,3.32-4.19,3.84-7.14,8.65-9.28,13.93-.6,1.48-1.1,3.13,1.08,3.51,4.82.83,4.16,4.33,3.14,7.18-1.24,3.48.18,4.61,3.08,4.91,4.08.42,8.06,1.92,11.38,1.2Z"/>
      <path class="cls-7" d="m213.43,260.52c-4.56-.68-8.19-1.22-11.83-1.76,2.65-.39,5.12-1.88,7.96-.8,1.3.5,2.97-.03,3.19-1.55.27-1.86-1.64-1.76-2.82-2.01-1.29-.27-2.66-.41-3.97-.28-4.12.39-6.9-.43-5.95-5.52.48-2.58-1.63-3.1-3.37-3.28-2.8-.28-5.65-.16-8.47-.13-.61,0-1.44.16-1.8.58-2.53,2.9-1.29,14.72,1.78,17.28,1.57,1.3,3.3,2.82,3.54,4.71.84,6.72,5.97,7.03,10.75,7.26,7.3.35,14.62.06,21.93.13,2.78.03,2.93-1.02,2.04-3.37-3.11-8.2-11.54-10.74-18.38-5.41-.79.62-1.47,2.42-2.7,1-1.2-1.37.36-2.28,1.15-3.31,1.53-1.97,4.22-1.58,6.96-3.54Z"/>
      <path class="cls-7" d="m79.23,256.59c3.47,1.17,7.59-.38,11,2.58-3.5,1.97-7.48-.06-11.46,1.64,2.43,1.38,4.39,2.39,6.23,3.6,1.05.69,2.67,1.66,1.64,3.1-1.26,1.76-2.2-.14-3.17-.83-7-4.97-15.65-2.74-18.69,4.72-1.23,3.01-1.12,4.68,2.86,4.5,8.47-.39,16.96-.43,25.44-.86,2.51-.13,4.9-.56,5.19-4.4.27-3.5,2.7-6.41,5.98-8.14,1.19-.63,2.77-.99,2.7-2.53-.22-4.6-.61-9.19-1.1-13.76-.13-1.26-1.45-1.13-2.42-1.12-2.16.03-4.34,0-6.49.2-3.24.3-5.65,1.32-4.9,5.46.65,3.56-1.28,4.72-4.66,4.47-2.7-.2-5.42-.04-8.14-.04,0,.48-.01.95-.02,1.43Z"/>
      <path class="cls-7" d="m123.12,125.84c.3-4.96-1.09-12.22-6.13-18.62-2.58-3.28-5.66-1.93-8.6-1.69-1.12.09-1.08,1.18-.22,2.23,6.26,7.7,7.31,16.93,6.69,26.26-.5,7.55-2.43,14.96-5.99,21.79-1.47,2.81-2.91,5.71-5.43,7.69-3.23,2.53-2.37,5.98-2.4,9.19-.03,2.13,1.38,1.22,2.4.71,2.44-1.21,4.36-3.06,6.05-5.13,9.39-11.5,13.66-24.77,13.65-42.42Z"/>
      <path class="cls-9" d="m166.05,31.98c-16.68.53-32.97,3.18-48.63,9.18-1.08.41-2.1,1-3.18,1.42-2.18.84-2.64,2.64-1.95,4.46.85,2.25,2.57.64,3.77.24,17.11-5.75,34.66-8.9,52.72-8.82,6.45.03,12.93.38,19.34,1.46,1.54.26,4.08,1.65,4.61-.82.53-2.47-1.2-4.31-3.93-4.82-7.51-1.4-15.06-2.42-22.75-2.3Z"/>
      <path class="cls-7" d="m80.97,88.09c1.22-1.75,2.8-3.76,5.26-3.01,4.22,1.3,8.45,2.43,10.17,7.64,2.75,8.35,3.5,17.82-6.06,22.91-4.77,2.54-7.03,2.88-10.16-1.64-2.45-3.53-3.61-7.46-3.04-11.68-.61-5.34.9-10.02,3.84-14.23Zm5.81,23.79c3.3-.2,6.23-5.11,6.27-10.13.02-2.44-.71-4.52-1.88-6.58-1.36-2.4-3.59-2.08-5.72-2.01-2.42.08-3.5,1.94-4.06,3.83-.5,1.7-.35,3.6-.49,5.41.2,5.83,2.52,9.67,5.87,9.47Z"/>
      <path class="cls-5" d="m218.48,210.55c2.39-4.3,1.04-13.19-3.08-17.02-7.91-7.33-21.38-7.73-28.28-.05-1.12,1.24-2.26,2.4-2.08,4.32.15,1.66.44,2.32,2.43,1.7,14.53-4.52,22.61-1.6,31.01,11.04Z"/>
      <path class="cls-5" d="m72.35,210.72c6.19-11.56,17.78-16.01,29.24-11.65,1.3.5,2.81,1.65,4.05-.02,1.16-1.56-.59-2.36-1.21-3.36-5.93-9.61-23.12-9.75-29.1-2.33-4.12,5.12-5.39,10.67-2.97,17.36Z"/>
      <path class="cls-7" d="m202.21,79.63c7.59-2.55,13.61-4.92,18.63-9.16,4.89-4.13,4.46-7.33-1.2-10.1-4.19-2.05-8.62-3.47-13.23-4.16-1.85-.28-4.25,0-3.22,2.74,2.49,6.63,2.37,13.13-.98,20.69Z"/>
      <path class="cls-10" d="m127.11,77.76c-.82-3.88.25-6.97,3.29-9.42.88-.71,1.48-1.79,2.1-2.77,1.51-2.41,3.37-5.41,1.74-7.76-1.37-1.97-4.31.24-6.48.68-4.71.95-9.31,2.46-14,3.55-4.18.97-3.76,4.15-3.58,7.11.21,3.5,3.01,1.75,4.62,1.84,5.62.31,7.89,2.13,8.35,7.13.17,1.85-.68,4.87,2.12,4.73,3.49-.17.97-3.47,1.84-5.1Z"/>
      <path class="cls-7" d="m99.16,86.03c2.1.43,2.69-.62,2.6-2.49-.19-4.19,1.97-7.31,4.85-9.97.78-.72,1.54-1.23,1.4-2.36-.27-2.24,1.11-5.14-.76-6.55-1.42-1.07-3.68.81-5.48,1.57-4.91,2.07-9.8,4.23-13.94,7.67-4.05,3.36-3.87,5.81.55,8.47,3.32,2.01,7,3.03,10.78,3.66Z"/>
      <path class="cls-10" d="m201.49,70.18c1.1-6.39-1.72-10.37-3.04-14.69-.31-1.02-1.49-1.17-2.51-1.3-12.56-1.58-25.16-1.21-37.75-.66-.24.01-.47.39-.98.84,5.22,3.72,10.53,6.73,17.09,6.94,3.02.1,5.72-.46,7.29-3.25,1.23-2.2,2.62-2.1,4.47-.98,3.15,1.91,6.42,3.47,10.27,3.23,1.8-.11,2.79.66,2.74,2.62-.05,2.14.56,4.1,2.42,7.24Z"/>
      <path class="cls-7" d="m188.51,164.56c7.58-17.77,7.72-34.65,3.38-52.27-4.58,2.66-4.89,5.72-4.1,10.47,1.73,10.49,1.54,21.2.57,31.84-.26,2.89-.55,5.76.15,9.97Z"/>
      <path class="cls-10" d="m102.33,183.22c-.54,2.49-1.05,4.67,1.55,5.85,10.2,4.61,20.79,7.68,32.06,8.06,1.9.06,3.2-.28,3.18-2.64-.02-1.93-.35-3.19-2.64-3.24-11.88-.23-23.12-3.37-34.14-8.03Z"/>
      <path class="cls-4" d="m90.79,243.12c2.99,0,5.98-.05,8.96.02,2.27.05,3.49-.91,3.25-3.23-.21-2.01-.6-3.87-3.38-3.78-6.57.23-13.08,1.66-19.69,1.03-1.55-.15-2.25.69-1.85,2.05.46,1.55.12,3.86,2.75,3.88,3.32.03,6.64,0,9.96.02Z"/>
      <path class="cls-4" d="m201.57,243.11c3.35,0,5.67-.04,7.98,0,3.25.06,3.05-2.76,3.23-4.51.24-2.4-2.1-1.32-3.31-1.43-5.68-.48-11.39-.76-17.07-1.24-1.25-.11-3.23-2-3.21.63.01,1.77-2.17,4.77,2.25,5.72,3.78.81,7.46.56,10.13.83Z"/>
      <path class="cls-10" d="m75.95,282.25c5.99-1.88,13.64.41,20.61-3.07,2.28-1.14,4.6,1.56,7.2.84,1.57-.43,3.85-.18,3.86-2.26,0-2.69-2.52-1.64-3.84-1.48-12.32,1.44-24.67,2.01-37.06,1.99-.94,0-2.25-.2-2.31,1.17-.04,1.12,1.14,1.4,2.06,1.84,2.7,1.29,5.55.58,9.48.98Z"/>
      <path class="cls-7" d="m76.69,115.15c-3.09,5.38-4.55,10.97-6.14,16.53-.77,2.69.93,3.57,2.7,4.55,2.42,1.33,2.74-.92,3.52-2.17.96-1.55,1.9-3.14,2.59-4.82,1.18-2.86,5.25-4.89,4.3-7.81-.78-2.4-4.22-3.94-6.97-6.27Z"/>
      <path class="cls-7" d="m191.6,200.63c-11.38,3.68-13.75,13.46-15.4,23.42-.34,2.04-3.07,5.09.79,6.98,1.78.87,2.96,1.4,3.07-1.48.43-10.94,5.23-20.06,12.09-28.28-.2-.2-.38-.42-.55-.65Z"/>
      <path class="cls-3" d="m153.55,189.05c-3.59-.2-6.66,1.3-10.03,1.25-2.52-.04-1.39,2.52-1.5,3.95-.15,1.92-.51,4.23,2.32,4.71,4.19.7,8.31-.37,12.17-1.53,2.92-.88,1.69-4.38,1.54-6.63-.22-3.32-3.29-.78-4.51-1.75Z"/>
      <path class="cls-7" d="m99.79,202.39c6.78,8.47,10.81,18.03,11.46,28.94,3.92-1,5.23-3.34,3.61-8.98-1.4-4.87-2.95-9.76-5.63-14.23-2.08-3.49-4.53-6.05-8.71-6.53-.24.27-.48.54-.73.81Z"/>
      <path class="cls-10" d="m212.74,281.21c3.33,0,6.66,0,9.99,0,1.35,0,3.04.02,3.15-1.66.13-2.11-1.83-1.48-2.98-1.5-4.33-.08-8.63-.49-12.94-.7-7.95-.4-15.92-.17-23.83-1.34-1.05-.15-2.56-.55-2.88,1.08-.38,1.94,1.18,2.06,2.53,2.19,2.08.2,4.18,1.29,6.2-.44.52-.44,1.77-.66,2.31-.34,5.81,3.44,12.2,2.51,18.45,2.72Z"/>
      <path class="cls-7" d="m100.75,107.74c2.01-.03,2.88-.53,3.32-1.46,1.44-3.02,3.62-4.51,7.12-4.24,1.78.13,4.02-1.31,2.05-2.86-4.11-3.24-8-6.72-12.09-9.97-.5-.4-1.58-.05-2.95-.05,2,6.13,3.79,12.09,2.55,18.58Z"/>
      <path class="cls-3" d="m22.62,276.63c-1.46,3.3.09,4.49,2.99,5.32,6.5,1.85,12.97,1.35,19.37-.06,1.54-.34,4.51-1.07,3.76-3.58-.63-2.11-3-1.15-4.61-.67-7.29,2.2-14.47,2.11-21.51-1.01Z"/>
      <path class="cls-10" d="m182.52,183.11c-2.33.96-4.42,1.99-6.61,2.68-3.94,1.24-7.9,2.49-11.94,3.33-2.63.55-3.37,2.04-2.92,4.22.67,3.19,2.87,1.28,4.25.82,5.83-1.94,11.49-4.31,16.66-7.7.96-.63,2.02-1.37,1.58-2.77-.1-.32-.78-.45-1.02-.58Z"/>
      <path class="cls-7" d="m200.48,93.84c-1.37,3.3-2.56,6.37-3.91,9.38-1.69,3.77-.17,7.44,3.93,8.45,2.34.58,2.36-1.69,2.43-3.08.25-4.95.49-9.94-2.45-14.75Z"/>
      <path class="cls-7" d="m83.77,252.32c2.5-.72,5.48.99,6.11-2.53.25-1.37-.72-2.92-1.79-3.21-3.01-.81-6.19-.74-9.22-.06-1.28.29-.81,2-.73,3.08.36,4.88,4.44.81,5.63,2.72Z"/>
      <path class="cls-7" d="m207.69,245.91c-1.86,1.16-5.39-1.73-5.65,2.74-.23,3.95,2.63,3.61,5.03,3.38,2.34-.23,6.06,1.69,6.03-3.21-.02-4.63-3.69-1.65-5.41-2.9Z"/>
      <path class="cls-7" d="m108.04,268.59c-.31-1.34.78-4.22-2.19-3.62-3.5.71-4.74,4.01-5.08,7.17-.27,2.53,2.12,1.84,3.63,1.97,4.31.37,3.62-2.72,3.64-5.52Z"/>
      <path class="cls-7" d="m183.68,264.14c1.46,3.42-2.21,7.45,2.83,9.32,1.28.47,2.4,1,3.64-.06,1.57-1.33.2-2.4-.3-3.45-1.12-2.34-2.17-4.83-6.17-5.81Z"/>
      <path class="cls-7" d="m67.04,141.11c-.32,2.8,1.1,5.12,3.57,4.96,2.27-.15,2.59-3.38,2.79-5.25.28-2.66-2.75-3.36-4.51-3.51-2.09-.18-1.71,2.27-1.85,3.81Z"/>
      <path class="cls-7" d="m46.68,273.12c-7.44,1.58-14.76,3.74-22.18-.1,3.59,4.3,16.31,4.3,22.18.1Z"/>
      <path class="cls-10" d="m67.23,148.84v16.21c.45-5.4,4.6-10.79,1.57-16.2-.52,0-1.05,0-1.57,0Z"/>
      <path class="cls-7" d="m182.88,228c.75,1.25-1.3,3.73,1.6,3.82,2.51.08,2.65-1.82,2.52-3.84-.13-1.95.35-4.57-2.48-4.38-2.77.18-.99,2.91-1.65,4.4Z"/>
      <path class="cls-7" d="m108.04,226.82c-.43-1.34,1.04-3.65-1.92-3.53-2.47.1-2.07,2.02-2.1,3.6-.04,1.8-.25,4.11,2.21,4.08,2.98-.03,1.16-2.76,1.8-4.16Z"/>
      <path class="cls-3" d="m29.1,271.51c4.5,1.52,8.47,2.71,12.41.08q-3.42-1.57-12.41-.08Z"/>
      <path class="cls-3" d="m149.35,6.11c1.08-.21,3.29.49,2.98-1.61-.21-1.41-1.95-2.54-3.84-2.41-1.68.11-3.19,1.1-2.98,2.61.24,1.77,2.19,1.49,3.84,1.41Z"/>
      <path class="cls-7" d="m192.16,201.28c.52-.24,1.04-.47,1.56-.71-.72-.7-1.42-.39-2.11.06.17.22.35.44.55.65Z"/>
      <path class="cls-3" d="m90.73,66.87c-.66.57-.85,1.21-.33,1.98.41-.38.82-.77,1.24-1.15-.3-.28-.6-.55-.9-.83Z"/>
      <path class="cls-6" d="m137.99,126.2c-.07-.24-.13-.48-.2-.72-.77.58,0,.51.27.65,0,0-.08.06-.08.06Z"/>
      <path class="cls-3" d="m219.09,56.71c.13.1.26.28.38.27.12,0,.22-.21.34-.33-.13-.1-.26-.28-.38-.27-.12,0-.22.21-.34.33Z"/>
      <path class="cls-7" d="m100.51,201.57c-.4-.08-.8-.16-1.21-.24.16.35.32.7.48,1.05.24-.27.48-.54.72-.81Z"/>
      <path class="cls-8" d="m119.74,89.13c-.97-7.34-3.42-9.87-9.07-9.78-.07,1.57,1.26,1.49,2.16,1.92,2.17,1.02,2.86,2.21.39,3.77-1.01.64-2.03,1.54-.9,2.76.89.96,1.69-.03,2.54-.52,1.55-.88,1.6-.79,4.88,1.85Z"/>
      <path class="cls-5" d="m169.88,77.24c-1.31,3.4-.67,6.41.65,9.57.98,2.35,2.27,6.11-3.18,4.41-.83-.26-1.76-.03-2,.92-.33,1.29.75,1.65,1.68,1.96,4.18,1.38,7.89-1.65,6.94-5.97-.83-3.75-3.04-7.06-4.08-10.88Z"/>
      <path class="cls-5" d="m160.47,100.19c-2.78.05-5.68-.57-8.2,1.23-.85.6-1.66,1.33-.97,2.41.5.77,1.48.78,2.25.32,5.49-3.31,10.77-2.23,15.99.69.74.41,1.72.64,2.28-.11.81-1.06-.07-1.81-.86-2.42-3.13-2.42-6.77-2.44-10.48-2.12Z"/>
      <path class="cls-5" d="m147.92,84.17c2.59.02,4.1.18,5.35-.91.98-.86,2.47-1.72,1.74-3.17-1.01-1.99-2.16-.3-3.16.31-1.88,1.15-3.57,1.08-5.5-.12-.69-.43-2.31-2.26-3.18,0-.68,1.77.55,2.87,2.02,3.4,1.2.44,2.55.46,2.75.49Z"/>
      <path class="cls-5" d="m184.9,86.19c1.48.05,2.77.02,3.89-.89.8-.65,1.69-1.44,1.3-2.42-.45-1.14-1.69-.87-2.52-.4-2.23,1.25-3.9-.55-5.8-.96-1.27-.27-2.71-.95-3.36.41-.51,1.06.7,2.07,1.58,2.81,1.46,1.22,3.17,1.67,4.9,1.45Z"/>
      <path class="cls-5" d="m149.42,72.35c2.22-.87,6.35,1.16,6.36-1.46.02-2.87-4.09-1.64-6.38-1.64-2.43,0-6.76-1.47-6.75,1.66.01,2.7,4.47.42,6.76,1.44Z"/>
      <path class="cls-5" d="m179.34,72.55c3.38.86,6.76,1.75,10.15,2.55.92.22,2.1.4,2.3-1.01.13-.91-.56-1.51-1.38-1.81-3.58-1.32-7.22-1.68-11.08.26Z"/>
      <path class="cls-8" d="m130.17,178.19c7.68,1.61,15.31.9,22.84-.52,4.52-.85,8.92-2.36,13.39-3.55,1.12-.3,2.58-.46,2.16-2.03-.4-1.5-1.86-1.18-2.93-.79-6.86,2.48-14.12,3.28-21.11,5.14-4.81,1.28-9.73-.38-14.35,1.75Z"/>
      <path class="cls-8" d="m169.32,138.24c-2.56,1.82-5.42,3.69-8.06,5.85-.64.52.25,1.8,1.12,1.55,3.32-.99,6.39-2.57,8.51-5.4.48-.64.29-2.01-1.58-1.99Z"/>
      <path class="cls-8" d="m81.39,97c.56-1.9,1.64-3.75,4.06-3.83,2.13-.07,4.36-.39,5.72,2.01,1.17,2.06,1.9,4.14,1.88,6.58-.04,5.02-2.98,9.94-6.27,10.13-3.35.2-5.67-3.64-5.87-9.47.14-1.81-.02-3.7.49-5.41Zm5.1-1.31c-3.17.07-3.31,3.64-3.38,6.35-.07,2.97.39,6.58,3.74,6.55,3.07-.02,3.05-3.72,3.29-6.5-.54-2.5.14-6.49-3.65-6.41Z"/>
      <path class="cls-7" d="m90.15,102.1c-.54-2.5.14-6.49-3.65-6.41-3.17.07-3.31,3.64-3.38,6.35-.07,2.97.39,6.58,3.74,6.55,3.07-.02,3.05-3.72,3.29-6.5Z"/>
      <path class="cls-8" d="m144.23,79.26c-.07,2.56.16,5.39,3.22,5.71,2.34.24,4.42-1.69,4.55-4.17.13-2.49-.06-5.75-3.21-6.3-3.05-.53-4.03,2.14-4.56,4.76Z"/>
      <path class="cls-8" d="m181.94,84.21c-.52,2.72-1.1,5.26,2.1,5.44,2.85.16,4.46-2.05,4.78-4.61.29-2.32-.48-4.85-3.2-5.27-3.84-.59-3.26,2.76-3.68,4.44Z"/>
      <path class="cls-8" d="m162.43,90.63c2.85,1.03,5.38,2.8,7.63.26,2.05-2.31,1.54-4.99.17-7.39-1.3-2.28-.18-4.84-1.26-7.78-1.86,2.44-2.56,5.11-1.73,6.99,2.18,4.96,1.85,7.83-4.82,7.92Z"/>
      <path class="cls-8" d="m141.86,69.2c.14,1.4,1.49,1.59,2.16,1.23,3.29-1.73,6.23-1.86,8.98,1.02.67.7,1.55.32,2.17-.31.54-.55.34-1.14.02-1.78-1.78-3.54-10.56-4.28-12.89-1.06-.18.26-.29.57-.45.89Z"/>
      <path class="cls-8" d="m187.25,71.76c-1.36-.05-2.56-.34-3.63-.08-1.35.33-3.44.7-3.04,2.52.38,1.69,2.09.54,3.3.48,1.93-.1,3.94-.08,5.67,1.05.99.65,1.99,2.45,3.11.58,1.03-1.73-.79-2.64-1.94-3.36-1.07-.66-2.42-.86-3.47-1.2Z"/>
      <path class="cls-1" d="m168.45,109.79c-3.14,1.41-6.53,1.5-9.86.8-3.25-.68-6.23-2.42-8.38-4.95-1.07-1.25-1.98-2.62-2.65-4.12-.14-.32-.27-.64-.39-.96-.1-.28-.22-1.14-.43-1.32-.1-.09.02-.27-.22-.14-.13.07-.3.74-.34.84-.35-1.52.33-2.63,1.99-2.12-.28.14-1.17.37-.99.74.14.28,1.41.61,1.73.75,1.2.52,2.38,1.05,3.63,1.45,2.56.81,5.21,1.47,7.86,1.89,2.6.41,5.13.57,7.75.67,1.31.05,2.61.02,3.92-.09,1.04-.08,2.65.09,3.58-.45-.29-.34-.53-.69-.9-.92.67.06,1.58.27,1.78,1.03.11.44-.13,1.39-.54,1.63,0-.35.12-.71-.12-1.06-1.92,2.74-4.35,4.96-7.42,6.34Zm-12.04-3.94c-1.29.02-2.82-.72-3.97-1.27-.62-.3-1.2-.65-1.81-.98-.4-.22-.58-.36-.5.19.13.9,1.56,2,2.2,2.57,1.07.96,2.28,1.73,3.59,2.33,2.68,1.23,5.85,1.69,8.76,1.2,1.31-.22,2.59-.62,3.79-1.19.24-.11,3.3-1.83,2.75-2.14-.18-.1-.93.21-1.17.26-.65.14-1.31.26-1.98.33-.61.06-1.22.1-1.83.1-.33,0-1.54.13-1.76-.15h.01s-.02-.01-.02-.01c1.7-.08,3.37-.41,5.01-.87.53-.15,1.73-.3,1.92-.86.25-.72-.12-1.01-.7-1.03-1.65-.04-3.29.05-4.95-.03-1.84-.09-3.67-.35-5.49-.64-1.76-.28-3.5-.64-5.22-1.13-.77-.22-1.54-.41-2.3-.65-.4-.13-1.56-.79-1.94-.61-.24.12-.53.83-.46,1.1.14.47,1.1.88,1.48,1.12,1.43.92,2.97,1.8,4.57,2.37,0,0,0,0,0,0Z"/>
      <path class="cls-11" d="m164.48,107.07c1.7-.08,3.37-.41,5.01-.87.53-.15,1.73-.3,1.92-.86.25-.72-.12-1.01-.7-1.03-1.65-.04-3.29.05-4.95-.03-1.84-.09-3.67-.35-5.49-.64-1.76-.28-3.5-.64-5.22-1.13-.77-.22-1.54-.41-2.3-.65-.4-.13-1.56-.79-1.94-.61-.24.12-.53.83-.46,1.1.14.47,1.1.88,1.48,1.12,1.43.92,2.97,1.8,4.57,2.37.05.03.1.06.14.08-.05.01-.17.02-.15-.08-1.29.02-2.82-.72-3.97-1.27-.62-.3-1.2-.65-1.81-.98-.4-.22-.58-.36-.5.19.13.9,1.56,2,2.2,2.57,1.07.96,2.28,1.73,3.59,2.33,2.68,1.23,5.85,1.69,8.76,1.2,1.31-.22,2.59-.62,3.79-1.19.24-.11,3.3-1.83,2.75-2.14-.18-.1-.93.21-1.17.26-.65.14-1.31.26-1.98.33-.61.06-1.22.1-1.83.1-.33,0-1.54.13-1.76-.15-.07.07-.14.06-.21,0,.07,0,.14-.01.2-.02Z"/>
      <path class="cls-6" d="m185.91,129.43c1.69,15.69-2.21,31.28-.9,46.97.07.87-.16,1.65-.89,2.2-7,5.27-15.13,7.75-23.66,7.91-3.38.07-6.8-.3-10.26.12-4.48.55-9.03,2.2-13.26,2.13-7.5-.13-15.08-1.62-22.36-3.91-4.7-1.48-9.44-2.97-13.48-6.44,17.92-10.95,22.85-28.61,25.42-48.29,7.8,10.14,17.88,17.39,25.88,26.68,2.52,2.92,4.81,3,7.75,1.1,10.29-6.66,18.77-14.87,23.17-26.66.37-.99.29-2.38,2.04-2.93.27.55.5.82.53,1.1Zm-32.89,48.24c4.52-.85,8.92-2.36,13.39-3.55,1.12-.3,2.58-.46,2.16-2.03-.4-1.5-1.86-1.18-2.93-.79-6.86,2.48-14.12,3.28-21.11,5.14-4.81,1.28-9.73-.38-14.35,1.75,7.68,1.61,15.31.9,22.84-.52Z"/>
      <path class="cls-6" d="m104.66,156.66c7.04-11.35,8.5-23.7,6.13-36.61-2.13-11.58-5.18-12.77-14.85-5.59-10.1,7.5-16.27,17.93-20.5,29.5-5.3,14.49-5.09,29.49-3.35,44.57.24,2.05,1.2,3.7,3.02,1.85,5.67-5.74,12.81-4.16,19.54-4.29,3.2-.06,4.48.25,3.94-4.09-1.52-12.21.65-24.09,5.53-35.43.62-1.44,1.45-3.18,3.15-2.23,1.76.98-.17,2.25-.6,3.32-1.15,2.89-2.98,5.58-2.02,8.99Z"/>
      <path class="cls-6" d="m194.62,112.15c1.39,7.07,3.6,13.66,3.46,20.67-.19,9.35-2.12,18.35-4.96,27.19-.87,2.71-1.23,5.09-.35,8.11,1.4,4.79-.32,9.8-.86,14.71-.26,2.41-.32,3.97,3.08,3.02,6.97-1.95,13.64-.81,19.33,3.73,3.09,2.47,3.83,1.06,4.34-1.79,2.68-15.06,2.01-29.91-2.65-44.56-3.54-11.13-8.89-21.13-17.42-29.26-.93-.89-1.8-2.02-3.97-1.81Z"/>
      <path class="cls-2" d="m137.99,126.2c.81.03,1.67-.12,2.41.13,10.36,3.52,20.72,4.25,31.12.15.98-.39,2.11-.81,3.22.28-1.78,2.56-4.28,4.16-6.78,5.78-.75.49-1.27,1.28-.82,2.1.46.83,1.46.79,2.21.37,3.1-1.7,7.12-3.73,7.06-7.15-.09-5.16,3.55-5.27,6.34-7.21.67,2.39.12,4.27-.46,6.2-3.37,11.17-10.62,19.42-19.76,26.2-5.74,4.26-5.76,4.17-10.7-1.2-1.68-1.83-3.51-3.54-5.36-5.21-6.45-5.78-12.63-11.82-18.04-18.6-3.24-4.06-3.68-5.73-2.72-10.73,7.7,8.54,14.7,17.67,26.78,19.51-4.37-4.17-10.72-5.62-14.42-10.69l-.08.06Zm23.28,17.88c-.64.52.25,1.8,1.12,1.55,3.32-.99,6.39-2.57,8.51-5.4.48-.64.29-2.01-1.58-1.99-2.56,1.82-5.42,3.69-8.06,5.85Z"/>
    </g>
  </g>
</svg>